<svg xmlns="http://www.w3.org/2000/svg" xmlns:xlink="http://www.w3.org/1999/xlink" width="132.094" height="31.801" viewBox="0 0 132.094 31.801">
  <defs>
    <clipPath id="clip-path">
      <path id="Caminho_646" data-name="Caminho 646" d="M2553.826,57.486l2.14-13.76,5.2-10.4h117.417l7.339,13.148V57.486s-6.421,7.644-9.785,7.644-114.971-3.058-114.971-3.058Z" transform="translate(-2120)" fill="#fff"/>
    </clipPath>
    <clipPath id="clip-path-2">
      <path id="Caminho_10" data-name="Caminho 10" d="M0-7.532H184V-46.294H0Z" fill="#fff"/>
    </clipPath>
  </defs>
  <g id="Grupo_de_máscara_1" data-name="Grupo de máscara 1" transform="translate(-433.826 -33.329)" clip-path="url(#clip-path)">
    <g id="Logo_OCB_Branco" data-name="Logo OCB Branco" transform="translate(375 26)">
      <g id="Grupo_10" data-name="Grupo 10" transform="translate(0 46.294)" clip-path="url(#clip-path-2)">
        <g id="Grupo_9" data-name="Grupo 9" transform="translate(0 -46.294)">
          <path id="Caminho_9" data-name="Caminho 9" d="M-35.686-3.415c0-2.975-2.674-3.8-5.189-3.8h-7.841V8.163h7.172c3.045,0,6.2-.576,6.2-4.313,0-2.1-1.475-3.275-3.435-3.621a3.523,3.523,0,0,0,3.09-3.644m-4.475.623c0,1.522-1.383,1.937-2.652,1.937h-1.546V-4.637H-42.6c1.2,0,2.443.415,2.443,1.845m.255,6.342c0,1.615-1.568,2.03-2.883,2.03h-1.569V1.521h1.522c1.407,0,2.93.276,2.93,2.029M-58.865.483A4.551,4.551,0,0,1-54-4.29a9.292,9.292,0,0,1,3.068.6l.137-3.229a18.316,18.316,0,0,0-4.037-.53c-4.727,0-8.786,2.952-8.786,7.933,0,5.281,3.759,7.933,8.786,7.933a12.864,12.864,0,0,0,4.084-.623l-.138-3.158a8.462,8.462,0,0,1-3.206.622A4.4,4.4,0,0,1-58.865.483m-6.229,0c0-5.1-2.975-7.933-8.026-7.933-4.959,0-8,2.952-8,7.933,0,5.1,2.951,7.933,8,7.933,5.005,0,8.026-2.905,8.026-7.933m-4.75,0c0,2.169-.577,4.959-3.276,4.959-2.583,0-3.252-2.883-3.252-4.959s.646-4.959,3.252-4.959c2.7,0,3.276,2.791,3.276,4.959m-15.2,7.68h1.636a16.887,16.887,0,0,1-.138-2.444V.738c0-2.86-1.314-4.29-4.173-4.29a9.646,9.646,0,0,0-3.506.761l.138,1.5a5.817,5.817,0,0,1,3.3-.922C-85.9-2.215-85.2-1.131-85.2.621v.554h-.9c-3.528,0-6.342,1.037-6.342,3.99,0,2.213,1.706,3.251,3.759,3.251a3.985,3.985,0,0,0,3.574-2.1ZM-85.2,3.09c0,2.145-.739,3.967-3.183,3.967-1.245,0-2.329-.623-2.329-1.961,0-2.537,3.137-2.7,5.19-2.7h.322ZM-96.576,8.163h1.684V.345c0-2.237-1.223-3.9-3.576-3.9a3.823,3.823,0,0,0-3.482,2.4,3.277,3.277,0,0,0-3.344-2.4,3.688,3.688,0,0,0-3.436,2.214l-.069-1.984h-1.545a26.435,26.435,0,0,1,.115,2.7V8.163h1.684v-6.2c0-2.006.784-4.082,2.883-4.082,1.729,0,2.261,1.222,2.261,2.767V8.163h1.683v-6.2c0-2.006.761-4.082,2.86-4.082,1.73,0,2.283,1.222,2.283,2.767Zm-23.918-5.281h7.68V2.189c0-3.067-1.291-5.742-4.543-5.742-3.09,0-4.89,2.974-4.89,5.926,0,3.437,1.569,6.043,5.283,6.043a10.239,10.239,0,0,0,3.551-.6l-.138-1.567a7.228,7.228,0,0,1-3.252.807c-2.421,0-3.69-1.938-3.69-4.175m0-1.245c0-1.569,1.061-3.852,3.16-3.852s2.813,2.076,2.813,3.852Zm-5.1,6.78a5.264,5.264,0,0,0,1.868-.345l-.093-1.408a3.112,3.112,0,0,1-1.292.3c-1.2,0-1.476-.9-1.476-1.915V-2.007h2.607V-3.323h-2.607V-6.482l-1.66.577v2.582h-2.168v1.315h2.168V4.611c0,2.1.3,3.806,2.653,3.806m-11.6-8.855c0-1.408,1.246-1.753,2.354-1.753a7.119,7.119,0,0,1,2.582.553l.138-1.407a8.575,8.575,0,0,0-2.859-.507c-1.891,0-3.945.923-3.945,3.137,0,3.528,5.559,2.745,5.559,5.535,0,1.315-1.269,1.914-2.445,1.914a6.453,6.453,0,0,1-3-.715l-.139,1.568a9.3,9.3,0,0,0,3.276.53c2.03,0,4.036-1.13,4.036-3.343,0-3.852-5.558-3.368-5.558-5.512m-5.926,8.6h1.684V-3.323h-1.684Zm0-14.045h1.684V-7.888h-1.684Zm-9.9,2.4c0-1.845,1.661-2.443,3.276-2.443a6.856,6.856,0,0,1,2.952.6l.139-1.638a9.463,9.463,0,0,0-3.114-.484c-2.492,0-5.12,1.245-5.12,4.036,0,1.845,1.315,2.884,2.814,3.69l1.591.854c1.406.761,2.744,1.522,2.744,2.9,0,2.007-1.5,2.861-3.367,2.861a6.583,6.583,0,0,1-3.552-.9l-.116,1.776a9.579,9.579,0,0,0,3.691.646c2.813,0,5.234-1.521,5.234-4.405,0-2.144-1.567-3.182-3.273-4.105l-1.593-.852c-1.222-.646-2.307-1.338-2.307-2.538m-6.371-3.924c1.483-2.721.36-5.065-.2-5.474,1.413,5.847-11.059,14.974-25.75,21.654-16.846,7.66-31.981,9.149-33.92,4.873-.031-.068-.057-.14-.083-.212,0,0-.215,3.142,3.857,3.977,6.2,1.242,17.891-.63,31.018-6.6,11.91-5.421,21.854-12.3,25.076-18.216m-2.52-4.352a1.823,1.823,0,0,0-.128-.933,1.551,1.551,0,0,0-1.339-.8,35.586,35.586,0,0,0-10.659,1.02,18.436,18.436,0,0,0-15.543-8.51A18.453,18.453,0,0,0-208.029-2.536a18.369,18.369,0,0,0,.589,4.616c-4.6,3.085-8.025,6.118-9.76,8.679a1.937,1.937,0,0,0-.279,1.314,1.418,1.418,0,0,0,.809.944,2.091,2.091,0,0,1,.252-.709c1.7-2.511,5.036-5.479,9.506-8.506a18.534,18.534,0,0,0,6.074,8.278A93.451,93.451,0,0,0-185.677,6.6a88.36,88.36,0,0,0,14.536-8.291c.012-.281.02-.565.02-.85a18.375,18.375,0,0,0-2.034-8.42,32.846,32.846,0,0,1,10.567-.991,2.2,2.2,0,0,1,.682.188M-179.848,1.507a.231.231,0,0,1-.069.183.272.272,0,0,1-.188.091l-5.4-.008-1.114,4.181s0,.012-.005.017L-186.63,6s0,0-.006,0a.427.427,0,0,1-.372.271h-1.336A.222.222,0,0,1-188.57,6h-.009l.009-.039,1.115-4.181-7.07,0-1.114,4.182c0,.008,0,.01-.006.018l0,.022s-.007,0-.007,0a.43.43,0,0,1-.372.27l-1.335,0A.223.223,0,0,1-197.59,6h-.008l.009-.037,1.106-4.17-5.4.006a.147.147,0,0,1-.141-.087.194.194,0,0,1,.029-.188l10.38-15.007a.273.273,0,0,1,.219-.125.142.142,0,0,1,.151.125l1.4,8.558-1.526,2.2-1-7.221L-199.027.017l7.1-.008,9.337-13.5a.277.277,0,0,1,.219-.126.143.143,0,0,1,.152.126Zm-7.135-1.5L-182.01,0l-1.34-9.951L-190.007.009Zm3.055,11.325a92.288,92.288,0,0,1-10.321,3.979,18.445,18.445,0,0,0,4.673.609,18.443,18.443,0,0,0,16.548-10.3,106.468,106.468,0,0,1-10.9,5.711" transform="translate(219.339 20.988)" fill="#fff"/>
        </g>
      </g>
    </g>
  </g>
</svg>
