<svg xmlns="http://www.w3.org/2000/svg" xmlns:xlink="http://www.w3.org/1999/xlink" width="1920" height="555" viewBox="0 0 1920 555">
  <defs>
    <clipPath id="clip-path">
      <rect id="Ret창ngulo_235" data-name="Ret창ngulo 235" width="1920" height="555" transform="translate(-2120 667)" fill="#fff" stroke="#707070" stroke-width="1" opacity="0.51"/>
    </clipPath>
    <clipPath id="clip-path-2">
      <rect id="Ret창ngulo_234" data-name="Ret창ngulo 234" width="1920" height="557" transform="translate(-2120)" fill="#fff" stroke="#707070" stroke-width="1" opacity="0.26"/>
    </clipPath>
    <linearGradient id="linear-gradient" x1="0.229" y1="0.183" x2="1.296" y2="0.175" gradientUnits="objectBoundingBox">
      <stop offset="0" stop-color="#78c7c9"/>
      <stop offset="1" stop-color="#fff"/>
    </linearGradient>
    <linearGradient id="linear-gradient-2" x1="0.815" y1="0.394" x2="0" y2="0.398" gradientUnits="objectBoundingBox">
      <stop offset="0" stop-color="#78c7c9"/>
      <stop offset="0.473" stop-color="#6784c1"/>
      <stop offset="1" stop-color="#2f4a81"/>
    </linearGradient>
    <clipPath id="clip-path-3">
      <path id="Caminho_10" data-name="Caminho 10" d="M0-7.532H184V-46.294H0Z" fill="#fff"/>
    </clipPath>
    <clipPath id="clip-path-4">
      <path id="Caminho_2" data-name="Caminho 2" d="M270.475-70.414a11.315,11.315,0,0,0-5.148-2.745h0a11.31,11.31,0,0,0-13.565,8.436h0A11.314,11.314,0,0,0,260.2-51.157h0a11.408,11.408,0,0,0,2.563.293h0a11.3,11.3,0,0,0,7.72-3.05h0a11.277,11.277,0,0,0,5.151,2.747h0a11.315,11.315,0,0,0,13.563-8.44h0a11.308,11.308,0,0,0-8.439-13.56h0a11.337,11.337,0,0,0-2.577-.3h0a11.265,11.265,0,0,0-7.705,3.052m1.913,7.577a1.816,1.816,0,0,0,1.29-2.221h0a11.31,11.31,0,0,0-.972-2.462h0a7.658,7.658,0,0,1,7.224-2.113h0a7.674,7.674,0,0,1,5.731,9.2h0a7.684,7.684,0,0,1-9.2,5.73h0a7.656,7.656,0,0,1-5.8-6.088h0a1.815,1.815,0,0,0-2.108-1.465h0a1.819,1.819,0,0,0-1.465,2.112h0a11.365,11.365,0,0,0,1.167,3.337h0a7.677,7.677,0,0,1-7.224,2.116h0A7.682,7.682,0,0,1,255.3-63.9h0a7.684,7.684,0,0,1,7.465-5.925h0a7.651,7.651,0,0,1,1.739.2h0a7.648,7.648,0,0,1,5.667,5.492h0a1.819,1.819,0,0,0,1.756,1.354h0a1.8,1.8,0,0,0,.463-.061m17.118-8.3a1.815,1.815,0,0,0-.338,2.545h0a1.814,1.814,0,0,0,2.547.336h0a7.587,7.587,0,0,1,4.656-1.573h0a7.671,7.671,0,0,1,7.662,7.662h0a7.671,7.671,0,0,1-7.662,7.662h0a6.961,6.961,0,0,1-3.206-1.038h0V-56.2a1.814,1.814,0,0,0-1.815-1.816h0a1.814,1.814,0,0,0-1.814,1.816h0v12.121a1.814,1.814,0,0,0,1.814,1.814h0a1.814,1.814,0,0,0,1.815-1.814h0v-7.456a8.787,8.787,0,0,0,3.206.658h0A11.306,11.306,0,0,0,307.663-62.17h0A11.3,11.3,0,0,0,296.37-73.463h0a11.184,11.184,0,0,0-6.864,2.322M244.65-73.463h-.014A11.3,11.3,0,0,0,233.343-62.17h0v0a11.3,11.3,0,0,0,11.294,11.293h.017A11.2,11.2,0,0,0,251.5-53.2h0a1.818,1.818,0,0,0,.338-2.547h0a1.817,1.817,0,0,0-2.547-.336h0a7.764,7.764,0,0,1-.7.48h0l-.048.027a7.662,7.662,0,0,1-3.9,1.067h-.011a7.673,7.673,0,0,1-7.664-7.661h0a7.672,7.672,0,0,1,7.664-7.663h.011a7.626,7.626,0,0,1,3.9,1.069h0l.048.026a7.424,7.424,0,0,1,.7.479h0a1.819,1.819,0,0,0,2.547-.337h0a1.815,1.815,0,0,0-.338-2.545h0a11.177,11.177,0,0,0-6.847-2.322h0Z" transform="translate(-233.343 73.466)" fill="none"/>
    </clipPath>
    <linearGradient id="linear-gradient-5" x1="0.571" y1="1" x2="1" y2="1" gradientUnits="objectBoundingBox">
      <stop offset="0" stop-color="#62c99f"/>
      <stop offset="0.1" stop-color="#60c3a4"/>
      <stop offset="0.2" stop-color="#5dbda9"/>
      <stop offset="0.3" stop-color="#5bb6ad"/>
      <stop offset="0.4" stop-color="#59b0b2"/>
      <stop offset="0.5" stop-color="#56a9b6"/>
      <stop offset="0.6" stop-color="#54a2ba"/>
      <stop offset="0.7" stop-color="#529bbe"/>
      <stop offset="0.8" stop-color="#4f94c1"/>
      <stop offset="0.9" stop-color="#4d8dc4"/>
      <stop offset="1" stop-color="#4b86c7"/>
    </linearGradient>
    <clipPath id="clip-path-5">
      <path id="Caminho_8" data-name="Caminho 8" d="M0-53.678H173.425v-39.63H0Z" transform="translate(0 93.308)" fill="none"/>
    </clipPath>
    <clipPath id="clip-path-6">
      <path id="Caminho_482" data-name="Caminho 482" d="M0,69.179H158.208V-183.2H0Z" transform="translate(0 183.199)" fill="none"/>
    </clipPath>
    <clipPath id="clip-path-7">
      <path id="Caminho_484" data-name="Caminho 484" d="M0,126.054H229.951V-333.814H0Z" transform="translate(0 333.814)" fill="none"/>
    </clipPath>
    <clipPath id="clip-path-10">
      <path id="Caminho_553" data-name="Caminho 553" d="M0,125.456H226.689V-332.229H0Z" transform="translate(0 332.229)" fill="none"/>
    </clipPath>
  </defs>
  <g id="bg-header-2" transform="translate(2120 -667)" clip-path="url(#clip-path)">
    <g id="bg-header-2-2" data-name="bg-header-2" transform="translate(64 -24)">
      <g id="bg-header-1" transform="translate(-64 691)">
        <g id="bg-header-1-2" data-name="bg-header-1" clip-path="url(#clip-path-2)">
          <g id="Grupo_639" data-name="Grupo 639">
            <path id="Caminho_646" data-name="Caminho 646" d="M8.06,0C-24.387,44.72-19.685,95.947-1.78,128.451,29,184.323,62.389,190.772,88.686,273.14,118.48,366.463,46.024,433.475,83.73,504.8c25.586,48.392,78.623,69.733,141.546,36.126C329.8,485.1,397.517,538.9,458.7,547.218c77.443,10.529,146.035-7.721,186.585-49,58.332-59.381,77.549-150.992,26.755-250.368-16.628-32.534-32.549-65.977-26.249-102.055,6.285-35.974,27.23-68.21,39.627-102.846A195.792,195.792,0,0,0,695.516,0Z" transform="translate(-1938.792)" fill="url(#linear-gradient)"/>
            <path id="Caminho_647" data-name="Caminho 647" d="M0,77.664A132.02,132.02,0,0,0,2.026,100.7c7.175,40.551,11.175,81.164,17,117.9,12.714,80.189,34.138,141.912,116.217,144.111,25.225.675,124.8-9.257,162.993-21.015,185.906-57.234,268.818,80.756,409.727,80.756H952.207c156.472,0-70.715-554.652,215.98-554.652H121.24C38.4-66.995,0,3.335,0,77.664" transform="translate(-1824.188 133.196)" fill="url(#linear-gradient-2)"/>
            <path id="Caminho_648" data-name="Caminho 648" d="M775,0c0,170.329,139.331,114.1,167.453,238.57s8.439,316.191,158.885,316.191h330.953c94.462,0,149.51-65.761,174.1-154.846s150.193-74.942,124.12-190.346S1766.771,0,1862.385,0Z" transform="translate(-2101 1)" fill="#1c205c"/>
          </g>
          <g id="Grupo_641" data-name="Grupo 641" transform="translate(-2101)">
            <path id="Caminho_274" data-name="Caminho 274" d="M8.06,0C-24.387,44.72-19.685,95.947-1.78,128.451,29,184.323,62.389,190.772,88.686,273.14,118.48,366.463,46.024,433.475,83.73,504.8c25.586,48.392,78.623,69.733,141.546,36.126C329.8,485.1,397.517,538.9,458.7,547.218c77.443,10.529,146.035-7.721,186.585-49,58.332-59.381,77.549-150.992,26.755-250.368-16.628-32.534-32.549-65.977-26.249-102.055,6.285-35.974,27.23-68.21,39.627-102.846A195.792,195.792,0,0,0,695.516,0Z" transform="translate(162.208)" fill="url(#linear-gradient)"/>
            <path id="Caminho_275" data-name="Caminho 275" d="M0,77.664A132.02,132.02,0,0,0,2.026,100.7c7.175,40.551,11.175,81.164,17,117.9,12.714,80.189,34.138,141.912,116.217,144.111,25.225.675,124.8-9.257,162.993-21.015,185.906-57.234,268.818,80.756,409.727,80.756H952.207c156.472,0-70.715-554.652,215.98-554.652H121.24C38.4-66.995,0,3.335,0,77.664" transform="translate(276.813 133.196)" fill="url(#linear-gradient-2)"/>
            <path id="Caminho_277" data-name="Caminho 277" d="M775,0c0,170.329,139.331,114.1,167.453,238.57s8.439,316.191,158.885,316.191h330.953c94.462,0,149.51-65.761,174.1-154.846s150.193-74.942,124.12-190.346S1766.771,0,1862.385,0Z" transform="translate(0 1)" fill="#1c205c"/>
          </g>
        </g>
        <g id="Grupo_642" data-name="Grupo 642" transform="translate(-2093 -18)">
          <g id="Logo_OCB_Branco" data-name="Logo OCB Branco" transform="translate(375 44)">
            <g id="Grupo_10" data-name="Grupo 10" transform="translate(0 46.294)" clip-path="url(#clip-path-3)">
              <g id="Grupo_9" data-name="Grupo 9" transform="translate(0 -46.294)">
                <path id="Caminho_9" data-name="Caminho 9" d="M-35.686-3.415c0-2.975-2.674-3.8-5.189-3.8h-7.841V8.163h7.172c3.045,0,6.2-.576,6.2-4.313,0-2.1-1.475-3.275-3.435-3.621a3.523,3.523,0,0,0,3.09-3.644m-4.475.623c0,1.522-1.383,1.937-2.652,1.937h-1.546V-4.637H-42.6c1.2,0,2.443.415,2.443,1.845m.255,6.342c0,1.615-1.568,2.03-2.883,2.03h-1.569V1.521h1.522c1.407,0,2.93.276,2.93,2.029M-58.865.483A4.551,4.551,0,0,1-54-4.29a9.292,9.292,0,0,1,3.068.6l.137-3.229a18.316,18.316,0,0,0-4.037-.53c-4.727,0-8.786,2.952-8.786,7.933,0,5.281,3.759,7.933,8.786,7.933a12.864,12.864,0,0,0,4.084-.623l-.138-3.158a8.462,8.462,0,0,1-3.206.622A4.4,4.4,0,0,1-58.865.483m-6.229,0c0-5.1-2.975-7.933-8.026-7.933-4.959,0-8,2.952-8,7.933,0,5.1,2.951,7.933,8,7.933,5.005,0,8.026-2.905,8.026-7.933m-4.75,0c0,2.169-.577,4.959-3.276,4.959-2.583,0-3.252-2.883-3.252-4.959s.646-4.959,3.252-4.959c2.7,0,3.276,2.791,3.276,4.959m-15.2,7.68h1.636a16.887,16.887,0,0,1-.138-2.444V.738c0-2.86-1.314-4.29-4.173-4.29a9.646,9.646,0,0,0-3.506.761l.138,1.5a5.817,5.817,0,0,1,3.3-.922C-85.9-2.215-85.2-1.131-85.2.621v.554h-.9c-3.528,0-6.342,1.037-6.342,3.99,0,2.213,1.706,3.251,3.759,3.251a3.985,3.985,0,0,0,3.574-2.1ZM-85.2,3.09c0,2.145-.739,3.967-3.183,3.967-1.245,0-2.329-.623-2.329-1.961,0-2.537,3.137-2.7,5.19-2.7h.322ZM-96.576,8.163h1.684V.345c0-2.237-1.223-3.9-3.576-3.9a3.823,3.823,0,0,0-3.482,2.4,3.277,3.277,0,0,0-3.344-2.4,3.688,3.688,0,0,0-3.436,2.214l-.069-1.984h-1.545a26.435,26.435,0,0,1,.115,2.7V8.163h1.684v-6.2c0-2.006.784-4.082,2.883-4.082,1.729,0,2.261,1.222,2.261,2.767V8.163h1.683v-6.2c0-2.006.761-4.082,2.86-4.082,1.73,0,2.283,1.222,2.283,2.767Zm-23.918-5.281h7.68V2.189c0-3.067-1.291-5.742-4.543-5.742-3.09,0-4.89,2.974-4.89,5.926,0,3.437,1.569,6.043,5.283,6.043a10.239,10.239,0,0,0,3.551-.6l-.138-1.567a7.228,7.228,0,0,1-3.252.807c-2.421,0-3.69-1.938-3.69-4.175m0-1.245c0-1.569,1.061-3.852,3.16-3.852s2.813,2.076,2.813,3.852Zm-5.1,6.78a5.264,5.264,0,0,0,1.868-.345l-.093-1.408a3.112,3.112,0,0,1-1.292.3c-1.2,0-1.476-.9-1.476-1.915V-2.007h2.607V-3.323h-2.607V-6.482l-1.66.577v2.582h-2.168v1.315h2.168V4.611c0,2.1.3,3.806,2.653,3.806m-11.6-8.855c0-1.408,1.246-1.753,2.354-1.753a7.119,7.119,0,0,1,2.582.553l.138-1.407a8.575,8.575,0,0,0-2.859-.507c-1.891,0-3.945.923-3.945,3.137,0,3.528,5.559,2.745,5.559,5.535,0,1.315-1.269,1.914-2.445,1.914a6.453,6.453,0,0,1-3-.715l-.139,1.568a9.3,9.3,0,0,0,3.276.53c2.03,0,4.036-1.13,4.036-3.343,0-3.852-5.558-3.368-5.558-5.512m-5.926,8.6h1.684V-3.323h-1.684Zm0-14.045h1.684V-7.888h-1.684Zm-9.9,2.4c0-1.845,1.661-2.443,3.276-2.443a6.856,6.856,0,0,1,2.952.6l.139-1.638a9.463,9.463,0,0,0-3.114-.484c-2.492,0-5.12,1.245-5.12,4.036,0,1.845,1.315,2.884,2.814,3.69l1.591.854c1.406.761,2.744,1.522,2.744,2.9,0,2.007-1.5,2.861-3.367,2.861a6.583,6.583,0,0,1-3.552-.9l-.116,1.776a9.579,9.579,0,0,0,3.691.646c2.813,0,5.234-1.521,5.234-4.405,0-2.144-1.567-3.182-3.273-4.105l-1.593-.852c-1.222-.646-2.307-1.338-2.307-2.538m-6.371-3.924c1.483-2.721.36-5.065-.2-5.474,1.413,5.847-11.059,14.974-25.75,21.654-16.846,7.66-31.981,9.149-33.92,4.873-.031-.068-.057-.14-.083-.212,0,0-.215,3.142,3.857,3.977,6.2,1.242,17.891-.63,31.018-6.6,11.91-5.421,21.854-12.3,25.076-18.216m-2.52-4.352a1.823,1.823,0,0,0-.128-.933,1.551,1.551,0,0,0-1.339-.8,35.586,35.586,0,0,0-10.659,1.02,18.436,18.436,0,0,0-15.543-8.51A18.453,18.453,0,0,0-208.029-2.536a18.369,18.369,0,0,0,.589,4.616c-4.6,3.085-8.025,6.118-9.76,8.679a1.937,1.937,0,0,0-.279,1.314,1.418,1.418,0,0,0,.809.944,2.091,2.091,0,0,1,.252-.709c1.7-2.511,5.036-5.479,9.506-8.506a18.534,18.534,0,0,0,6.074,8.278A93.451,93.451,0,0,0-185.677,6.6a88.36,88.36,0,0,0,14.536-8.291c.012-.281.02-.565.02-.85a18.375,18.375,0,0,0-2.034-8.42,32.846,32.846,0,0,1,10.567-.991,2.2,2.2,0,0,1,.682.188M-179.848,1.507a.231.231,0,0,1-.069.183.272.272,0,0,1-.188.091l-5.4-.008-1.114,4.181s0,.012-.005.017L-186.63,6s0,0-.006,0a.427.427,0,0,1-.372.271h-1.336A.222.222,0,0,1-188.57,6h-.009l.009-.039,1.115-4.181-7.07,0-1.114,4.182c0,.008,0,.01-.006.018l0,.022s-.007,0-.007,0a.43.43,0,0,1-.372.27l-1.335,0A.223.223,0,0,1-197.59,6h-.008l.009-.037,1.106-4.17-5.4.006a.147.147,0,0,1-.141-.087.194.194,0,0,1,.029-.188l10.38-15.007a.273.273,0,0,1,.219-.125.142.142,0,0,1,.151.125l1.4,8.558-1.526,2.2-1-7.221L-199.027.017l7.1-.008,9.337-13.5a.277.277,0,0,1,.219-.126.143.143,0,0,1,.152.126Zm-7.135-1.5L-182.01,0l-1.34-9.951L-190.007.009Zm3.055,11.325a92.288,92.288,0,0,1-10.321,3.979,18.445,18.445,0,0,0,4.673.609,18.443,18.443,0,0,0,16.548-10.3,106.468,106.468,0,0,1-10.9,5.711" transform="translate(219.339 20.988)" fill="#fff"/>
              </g>
            </g>
          </g>
          <g id="Logo_Focus_Coop" data-name="Logo Focus Coop" transform="translate(1371 43)">
            <g id="Grupo_2" data-name="Grupo 2" transform="translate(99.105 8.427)" clip-path="url(#clip-path-4)">
              <g id="Grupo_1" data-name="Grupo 1" transform="translate(-99.105 -8.427)">
                <path id="Caminho_1" data-name="Caminho 1" d="M-233.343-93.308H-59.919v39.63H-233.343Z" transform="translate(233.343 93.308)" fill="url(#linear-gradient-5)"/>
              </g>
            </g>
            <g id="Grupo_8" data-name="Grupo 8" clip-path="url(#clip-path-5)">
              <g id="Grupo_3" data-name="Grupo 3" transform="translate(0 0)">
                <path id="Caminho_3" data-name="Caminho 3" d="M-6.186-16.269h-4.567v-1.7h4.567v-3.516c0-6.99,5.494-7.96,10.705-5.737l-.4,1.576c-4-1.737-8.363-1.5-8.363,4.2v3.476H3.267v1.7H-4.247V1.509H-6.186Z" transform="translate(10.753 28.28)" fill="#fff"/>
              </g>
              <g id="Grupo_4" data-name="Grupo 4" transform="translate(13.616 9.911)">
                <path id="Caminho_4" data-name="Caminho 4" d="M-13.955-27.308c-5.132,0-10.3-3.313-10.3-10.06s5.131-10.1,10.263-10.1c5.091,0,10.18,3.393,10.18,10.1,0,6.666-5.05,10.06-10.141,10.06m.041-1.778a7.913,7.913,0,0,0,8.162-8.282,8.034,8.034,0,0,0-8.2-8.365c-4.161,0-8.363,2.749-8.363,8.365,0,5.575,4.243,8.321,8.4,8.282" transform="translate(24.258 47.469)" fill="#fff"/>
              </g>
              <g id="Grupo_5" data-name="Grupo 5" transform="translate(36 9.87)">
                <path id="Caminho_5" data-name="Caminho 5" d="M-23.258-7.881a7.155,7.155,0,0,0-6.788-4.081A8.178,8.178,0,0,0-38.489-3.6a8.05,8.05,0,0,0,8.282,8.364A7.4,7.4,0,0,0-23.095.118h1.937A9.27,9.27,0,0,1-30.329,6.5c-5.009,0-10.1-3.434-10.1-10.1,0-6.706,5.252-10.14,10.344-10.1,3.758.04,7.433,1.94,8.726,5.818Z" transform="translate(40.429 13.699)" fill="#fff"/>
              </g>
              <g id="Grupo_6" data-name="Grupo 6" transform="translate(57.978 10.315)">
                <path id="Caminho_6" data-name="Caminho 6" d="M-2.628,0V11.837c0,3.878,2.587,6.262,6.344,6.262,3.878.04,6.18-2.545,6.18-6.585V0h1.94V14.5c0,3.111.323,3.756,2.465,3.434l.039,1.616c-2.95.445-4.242-.04-4.242-3.15-1.819,2.705-3.757,3.514-6.829,3.514-4.929,0-7.839-3.393-7.839-8.08V0Z" transform="translate(4.568)" fill="#fff"/>
              </g>
              <g id="Grupo_7" data-name="Grupo 7" transform="translate(78.02 9.951)">
                <path id="Caminho_7" data-name="Caminho 7" d="M-2.572-19.7c.324,2.828,3.515,4.122,6.666,4.122,3.193,0,6.465-1.295,6.465-4.083,0-3.352-3.838-3.6-6.425-3.918-3.878-.446-8.041-1.132-8.041-5.133,0-4.039,3.88-5.534,7.881-5.534,4.039,0,7.878,1.656,7.878,5.132H10.076c0-2.424-3.03-3.516-6.061-3.516-2.949,0-6.343,1.131-6.141,3.879,0,2.99,4.242,3.272,6.506,3.475,4,.526,8.161,1.252,8.039,5.615,0,3.88-3.959,5.7-8.363,5.7-4.122,0-8.08-1.616-8.525-5.738Z" transform="translate(4.47 34.246)" fill="#fff"/>
              </g>
            </g>
          </g>
        </g>
      </g>
      <g id="Grupo_646" data-name="Grupo 646" transform="translate(-34 334)">
        <g id="Grupo_645" data-name="Grupo 645" transform="translate(-971.532 561.156)">
          <g id="Grupo_309" data-name="Grupo 309" clip-path="url(#clip-path-6)">
            <g id="Grupo_298" data-name="Grupo 298" transform="translate(0 0)">
              <path id="Caminho_471" data-name="Caminho 471" d="M39.659,66.38-68.86,76.529A14.913,14.913,0,0,1-85.1,63.069l-19.864-212.405A14.911,14.911,0,0,1-91.5-165.571L17.02-175.719a14.911,14.911,0,0,1,16.235,13.458L53.117,50.144A14.911,14.911,0,0,1,39.659,66.38" transform="translate(105.025 175.785)" fill="#546b82"/>
            </g>
            <g id="Grupo_299" data-name="Grupo 299" transform="translate(10.279 9.799)">
              <path id="Caminho_472" data-name="Caminho 472" d="M35.72,56.484-67.408,66.129a8.732,8.732,0,0,1-9.506-7.881L-94.555-130.39a8.734,8.734,0,0,1,7.881-9.507L16.453-149.54a8.731,8.731,0,0,1,9.507,7.88L43.6,46.977a8.731,8.731,0,0,1-7.88,9.507" transform="translate(94.594 149.579)" fill="#f4e2d6"/>
            </g>
            <g id="Grupo_300" data-name="Grupo 300" transform="translate(79.4 224.214)">
              <path id="Caminho_473" data-name="Caminho 473" d="M5.359,2.435A9.8,9.8,0,0,1-3.483,13.1,9.8,9.8,0,0,1-14.148,4.259,9.8,9.8,0,0,1-5.307-6.406,9.8,9.8,0,0,1,5.359,2.435" transform="translate(14.191 6.449)" fill="#425160"/>
            </g>
            <g id="Grupo_301" data-name="Grupo 301" transform="translate(64.609 90.458)">
              <path id="Caminho_474" data-name="Caminho 474" d="M6.543,3.206c.791,7.058-3.33,23.9-6.133,30.564a2.207,2.207,0,0,1-3.782.506c-4.56-5.914-13.041-22.12-13.837-29.223-.96-8.572,3.991-12.915,10.55-13.486S5.583-5.365,6.543,3.206" transform="translate(17.328 8.491)" fill="#d15454"/>
            </g>
            <g id="Grupo_302" data-name="Grupo 302" transform="translate(69.366 96.17)">
              <path id="Caminho_475" data-name="Caminho 475" d="M3.926,1.9C3.744,5.535.392,8.318-3.56,8.119s-7.009-3.3-6.827-6.934S-6.854-5.23-2.9-5.031,4.107-1.728,3.926,1.9" transform="translate(10.396 5.041)" fill="#fff"/>
            </g>
            <g id="Grupo_303" data-name="Grupo 303" transform="translate(86.667 22.077)">
              <path id="Caminho_476" data-name="Caminho 476" d="M10.061.542A2.207,2.207,0,0,0,5.933-.294L-26.258,58.03a3.579,3.579,0,0,0-.028,3.171l.894,1.847a5.787,5.787,0,0,0,7.979,2.56L12.951,49.052a3.576,3.576,0,0,0,1.8-3.8Z" transform="translate(26.642 1.436)" fill="#d3ccc9"/>
            </g>
            <g id="Grupo_304" data-name="Grupo 304" transform="translate(86.915 79.354)">
              <path id="Caminho_477" data-name="Caminho 477" d="M10.017.146l-27.4,16.8A5.784,5.784,0,0,0-20.1,21.167l-6.384,51.582a5.785,5.785,0,0,0,5.641,6.5c10.62.182,31.459.088,39.419.041a2.959,2.959,0,0,0,2.933-3.2c-1.018-12.36-4.716-57.27-6.059-73.189A3.577,3.577,0,0,0,10.017.146" transform="translate(26.526 0.387)" fill="#d3ccc9"/>
            </g>
            <g id="Grupo_305" data-name="Grupo 305" transform="translate(20.524 16.787)">
              <path id="Caminho_478" data-name="Caminho 478" d="M24.681,0-63.359,8.369a2.206,2.206,0,0,0-1.813,3.083L-40.9,66.87l2.567,6.278a2.21,2.21,0,0,0,2.675,1.28l27.609-8.238A2.209,2.209,0,0,0-6.74,65.127L26.83,3.253A2.207,2.207,0,0,0,24.681,0" transform="translate(65.359 0.008)" fill="#d3ccc9"/>
            </g>
            <g id="Grupo_306" data-name="Grupo 306" transform="translate(20.898 49.124)">
              <path id="Caminho_479" data-name="Caminho 479" d="M0,.52,10.572,109.111a1.726,1.726,0,0,0,2.7,1.254L48.842,85.792A1.727,1.727,0,0,0,49.29,83.4L24.353,46.589a1.753,1.753,0,0,1-.146-.263L3.3-.352A1.726,1.726,0,0,0,0,.52" transform="translate(0.007 1.377)" fill="#d3ccc9"/>
            </g>
            <g id="Grupo_307" data-name="Grupo 307" transform="translate(33.782 140.823)">
              <path id="Caminho_480" data-name="Caminho 480" d="M11.2.138l-40,33.6a2.544,2.544,0,0,0-.864,2.159l3.16,37.829a2.264,2.264,0,0,0,2.385,2.181c73.643-7.227,92.131-8.9,98.62-9.512,1.152-.107,2.334-2.834,2.239-4.1L74.257,28.9a2.3,2.3,0,0,0-2.12-2.214L24.792,25.073a2.212,2.212,0,0,1-1.967-1.506L14.586,1.143A2.115,2.115,0,0,0,11.2.138" transform="translate(29.669 0.365)" fill="#d3ccc9"/>
            </g>
            <g id="Grupo_308" data-name="Grupo 308" transform="translate(50.968 10.912)">
              <path id="Caminho_481" data-name="Caminho 481" d="M9.334,1.325l-32.473,3.01a1.244,1.244,0,0,1-1.354-1.124l-.219-2.35A1.245,1.245,0,0,1-23.587-.493L8.886-3.5A1.244,1.244,0,0,1,10.24-2.379l.218,2.35A1.244,1.244,0,0,1,9.334,1.325" transform="translate(24.718 3.509)" fill="#425160"/>
            </g>
          </g>
        </g>
        <g id="Grupo_643" data-name="Grupo 643" transform="translate(-1152 536.129)">
          <g id="Grupo_312" data-name="Grupo 312" transform="translate(0 0)" clip-path="url(#clip-path-7)">
            <g id="Grupo_311" data-name="Grupo 311" transform="translate(78.501 51.266)">
              <path id="Caminho_483" data-name="Caminho 483" d="M3.665,0C2.071,1.334-6.194,14.6-8.49,28.643a32.567,32.567,0,0,0-.924,13.17l33.4-.512c-.718-1.028-8.131-8.945-7.617-15.011A34.142,34.142,0,0,1,17,22.333a40.434,40.434,0,0,1,1.088-3.992c.114-.331,1.1-2.976,1.1-2.976a74.527,74.527,0,0,1,4.8-8.561Z" transform="translate(9.706)" fill="#ffba60"/>
            </g>
          </g>
          <g id="Grupo_313" data-name="Grupo 313" transform="translate(36.358 407.247)">
            <path id="Caminho_485" data-name="Caminho 485" d="M0,8.2l18.85,2.868L23.4-18.843,4.55-21.711Z" transform="translate(0 21.711)" fill="#ffb760"/>
          </g>
          <path id="Caminho_486" data-name="Caminho 486" d="M93.946-7.433H74.878V-37.687H93.946Z" transform="translate(28.275 445.637)" fill="#ffb760"/>
          <g id="Grupo_314" data-name="Grupo 314" transform="translate(32.294 188.101)">
            <path id="Caminho_487" data-name="Caminho 487" d="M8.6,65.886l-31.36-2.378L-4.413-174.478l44.684,4.269Z" transform="translate(22.764 174.478)" fill="#3f4954"/>
          </g>
          <path id="Caminho_488" data-name="Caminho 488" d="M116.788-135.583H33.908V-186.43h82.88Z" transform="translate(12.804 389.469)" fill="#3f4954"/>
          <g id="Grupo_315" data-name="Grupo 315" transform="translate(87.437 187.53)">
            <path id="Caminho_489" data-name="Caminho 489" d="M10.962,65.531l-33.279,1.281-6.71-240.35H17.4Z" transform="translate(29.028 173.538)" fill="#3f4954"/>
          </g>
          <g id="Grupo_338" data-name="Grupo 338" transform="translate(0 0)" clip-path="url(#clip-path-7)">
            <g id="Grupo_316" data-name="Grupo 316" transform="translate(130.608 100.056)">
              <path id="Caminho_490" data-name="Caminho 490" d="M0,6.113C2.659-.072,16.042-16.81,15.416-16.169c10.146,7.6,48.168,43.523,50.592,46.641.362.467,3.286,6.515.178,10.1C61.635,45.82,45.292,43.9,45.256,43.83,40.764,34.757,0,6.113,0,6.113" transform="translate(0 16.187)" fill="#ffb760"/>
            </g>
            <g id="Grupo_317" data-name="Grupo 317" transform="translate(24.476 81.769)">
              <path id="Caminho_491" data-name="Caminho 491" d="M15.015.07S24.93,19.646,41.2-.185c29.237,4.323,27.712-1.27,50.085,25.424C94.324,28.863,75.179,49.7,71.71,46.595c-1.4-1.251,2.288,101.438-1.4,105.285l-90.887.73c-.38-1.05-4.574-66.488,9.164-100.835,1.07-2.674-28.723,1.08-28.347-4.012C-36.283.7-16.763,5.155,15.015.07" transform="translate(39.764 0.185)" fill="#546b82"/>
            </g>
            <g id="Grupo_318" data-name="Grupo 318" transform="translate(177.746 145.836)">
              <path id="Caminho_492" data-name="Caminho 492" d="M0,3.2C4.443-.511,18.964-8.674,18.238-8.465c4.7,11.21,20.73,62.8,20,63.015S18.769,60.156,18.77,60.03C18.931,50.427,0,3.2,0,3.2" transform="translate(0 8.469)" fill="#ffb760"/>
            </g>
            <g id="Grupo_319" data-name="Grupo 319" transform="translate(179.964 209.533)">
              <path id="Caminho_493" data-name="Caminho 493" d="M4.863,11.42C11.3,16.52,14.509,6.911,19.606,8.9c6,2.336,19.543-32.7,13.214-38.068s-47.13,10.958-45.66,16.227c1.765,6.322,14.606-1.809,13.891-.7-.591.922.7-1.188-.044.012C-1.606-9.4-13.594,2.259-10.218,5.405c4.869,4.536,2.274,1.637,6.073,4.666,6.066,4.838,6.676-.5,9.008,1.349" transform="translate(12.878 30.242)" fill="#ffb760"/>
            </g>
            <g id="Grupo_320" data-name="Grupo 320" transform="translate(100.428 433.823)">
              <path id="Caminho_494" data-name="Caminho 494" d="M11.167,2.792c2.094,1.289,54.023,28.441-37.517,7.58-5.466-1.245-3.291-11.783,1.433-14.206,3.082-1.58,9.118-2.8,13.476-3.284,7.559-.842,5.972-.338,22.608,9.911" transform="translate(29.571 7.395)" fill="#7a99af"/>
            </g>
            <g id="Grupo_321" data-name="Grupo 321" transform="translate(0 431.44)">
              <path id="Caminho_495" data-name="Caminho 495" d="M4.555,2.815C2.437,4.109-50.254,31.5,43.759,9.391,49.374,8.069,46.678-2.1,41.682-4.351c-3.262-1.469-9.57-2.527-14.108-2.907-7.869-.66-6.2-.2-23.019,10.073" transform="translate(12.062 7.455)" fill="#7a99af"/>
            </g>
            <g id="Grupo_322" data-name="Grupo 322" transform="translate(112.551 20.514)">
              <path id="Caminho_496" data-name="Caminho 496" d="M0,3.072C0,9.26,2.175,14.277,4.857,14.277S9.715,9.26,9.715,3.072,7.541-8.134,4.857-8.134,0-3.117,0,3.072" transform="translate(0 8.134)"/>
            </g>
            <g id="Grupo_323" data-name="Grupo 323" transform="translate(76.114 40.273)">
              <path id="Caminho_497" data-name="Caminho 497" d="M.021,1.828C.411,5.3,2.187,7.954,3.988,7.753S6.934,4.569,6.544,1.1,4.377-5.032,2.576-4.829-.369-1.647.021,1.828" transform="translate(0.055 4.84)" fill="#ffba60"/>
            </g>
            <g id="Grupo_324" data-name="Grupo 324" transform="translate(84.384 62.591)">
              <path id="Caminho_498" data-name="Caminho 498" d="M2.88,3.563c7.709,2.049,14.532-4.969,13.632-5.1S-5.979-11.816-7.3-8.912C-8.49-6.308-6.709,1.014,2.88,3.563" transform="translate(7.628 9.434)" fill="#ce8c44"/>
            </g>
            <g id="Grupo_325" data-name="Grupo 325" transform="translate(78.555 13.638)">
              <path id="Caminho_499" data-name="Caminho 499" d="M0,7.847c0,8.388,2.674,15.934,6.936,21.17q.242.3.49.584c3.71,4.284,8.527,6.872,13.793,6.872,11.719,0,21.221-12.816,21.221-28.626s-9.5-28.626-21.221-28.626S0-7.963,0,7.847" transform="translate(0 20.779)" fill="#ffba60"/>
            </g>
            <g id="Grupo_326" data-name="Grupo 326" transform="translate(74.793 13.384)">
              <path id="Caminho_500" data-name="Caminho 500" d="M0,1.961C0,5.912,10.17,9.113,22.714,9.113s22.713-3.2,22.713-7.153S35.257-5.192,22.714-5.192,0-1.99,0,1.961" transform="translate(0 5.192)"/>
            </g>
            <g id="Grupo_327" data-name="Grupo 327" transform="translate(81.997 22.249)">
              <path id="Caminho_501" data-name="Caminho 501" d="M1.57,1.8c3.773,2.179,7.376,3,8.047,1.842S7.772-.226,4-2.4s-7.377-3-8.047-1.842S-2.2-.376,1.57,1.8" transform="translate(4.157 4.772)"/>
            </g>
            <g id="Grupo_328" data-name="Grupo 328" transform="translate(112.109 40.165)">
              <path id="Caminho_502" data-name="Caminho 502" d="M0,.832C0,2.509.865,3.869,1.931,3.869S3.864,2.509,3.864.832,3-2.2,1.931-2.2,0-.844,0,.832" transform="translate(0 2.204)"/>
            </g>
            <g id="Grupo_329" data-name="Grupo 329" transform="translate(92.789 39.834)">
              <path id="Caminho_503" data-name="Caminho 503" d="M0,.832C0,2.509.865,3.869,1.931,3.869S3.864,2.509,3.864.832,3-2.2,1.931-2.2,0-.844,0,.832" transform="translate(0 2.204)"/>
            </g>
            <g id="Grupo_330" data-name="Grupo 330" transform="translate(111.525 36.194)">
              <path id="Caminho_504" data-name="Caminho 504" d="M.068.2A4.926,4.926,0,0,1,6.853,1.817c.368.6-.536,1.241-.905.632A3.813,3.813,0,0,0,.7,1.1C.094,1.47-.542.566.068.2" transform="translate(0.18 0.528)"/>
            </g>
            <g id="Grupo_331" data-name="Grupo 331" transform="translate(90.324 35.931)">
              <path id="Caminho_505" data-name="Caminho 505" d="M.034.5A4.925,4.925,0,0,1,6.969-.238c.548.446-.09,1.347-.642.9a3.812,3.812,0,0,0-5.395.486C.483,1.692-.419,1.054.034.5" transform="translate(0.09 1.336)"/>
            </g>
            <g id="Grupo_332" data-name="Grupo 332" transform="translate(80.316 43.02)">
              <path id="Caminho_506" data-name="Caminho 506" d="M.891,3.808C4.313,2.042-.653-7.914-1.085-9.053c-.231-.608-.081-1.261.557-.953.066.032.128.065.189.1-.085-.377,1.546,1.734,1.562,2.124C.449-6.239,3.5-3.53,4.579-2.766c.018.012.033.025.048.037.112.039.222.077.333.114.271.09.541.182.807.282,13.071,3,25.924-.873,31.225-1.809,1.091-.193,1.773,2.56,1.546,3.644C35.227,15.291,27.675,22.009,16.423,21,1.972,19.707-3.608.31-2.131,1.065-1.57,1.352-.917,4.742.891,3.808" transform="translate(2.361 10.085)" fill="#bfdde2"/>
            </g>
            <g id="Grupo_333" data-name="Grupo 333" transform="translate(80.329 41.057)">
              <path id="Caminho_507" data-name="Caminho 507" d="M.044.069s4.435,13.454-.11,12.7c-.663-.11,5.389,5.812,3.51-2.375S.467-1.18.044.069" transform="translate(0.117 0.183)" fill="#ce8c44"/>
            </g>
            <g id="Grupo_334" data-name="Grupo 334" transform="translate(80.026 40.313)">
              <path id="Caminho_508" data-name="Caminho 508" d="M.608,3.945C4.135,2.4-.379-8.923-1.476-9.451c-.639-.309,1.2-1.181,1.686-.962.6.276,4.119,7.808,4.134,7.821.112.039.875.3,1.141.4,13.072,3,26.494,1.223,31.8.287a1.5,1.5,0,0,1,1.694,1.89c-4.313,14.772-11.591,22.24-22.835,21.156C2.706,19.843-1.884,2.8-1.268,3.282c.234.183.455,1.287,1.876.663" transform="translate(1.61 10.447)" fill="#effcf7"/>
            </g>
            <g id="Grupo_335" data-name="Grupo 335" transform="translate(70.33 15.512)">
              <path id="Caminho_509" data-name="Caminho 509" d="M.615,3.162c-3.171,7.662-2.956,15.027.479,16.449s8.795-3.636,11.966-11.3,2.956-15.027-.479-16.45S3.787-4.5.615,3.162" transform="translate(1.629 8.375)"/>
            </g>
            <g id="Grupo_336" data-name="Grupo 336" transform="translate(68.976 0.001)">
              <path id="Caminho_510" data-name="Caminho 510" d="M13.51,4.276c.911,2.015-11.35-.912-25.135,4.2S-33.772,22.226-34.553,20.5C-37.031,15.016-37.4-2.713-19.185-9.43.439-16.669,11.031-1.207,13.51,4.276" transform="translate(35.776 11.324)" fill="#546b82"/>
            </g>
            <g id="Grupo_337" data-name="Grupo 337" transform="translate(87.523 12.423)">
              <path id="Caminho_511" data-name="Caminho 511" d="M.039,2.447c-.007,3.276,16.337.237,25.436-.66C45.674-.2,45.338-.195,45.36-1.717c.051-3.579-8.107-5.914-22.6-4.177C-3.345-2.764.039,2.447.039,2.447" transform="translate(0.104 6.481)" fill="#8797a7"/>
            </g>
          </g>
          <path id="Caminho_513" data-name="Caminho 513" d="M80.552-133.03H199.534v-108.3H80.552Z" transform="translate(30.418 368.737)" fill="#c19e82"/>
          <g id="Grupo_346" data-name="Grupo 346" transform="translate(0 0)" clip-path="url(#clip-path-7)">
            <g id="Grupo_339" data-name="Grupo 339" transform="translate(152.156 139.098)">
              <path id="Caminho_514" data-name="Caminho 514" d="M11.011,2.3h0a8.39,8.39,0,0,1-8.39,8.39H-20.768a8.39,8.39,0,0,1-8.39-8.39h0a8.39,8.39,0,0,1,8.39-8.39H2.621a8.39,8.39,0,0,1,8.39,8.39" transform="translate(29.158 6.09)" fill="#f7e8d8"/>
            </g>
            <g id="Grupo_340" data-name="Grupo 340" transform="translate(24.455 129.717)">
              <path id="Caminho_515" data-name="Caminho 515" d="M8.07.367C1.186-.979-22.23-.755-21.347-.971c1.989,15.224,4.279,53.755,17.457,78.129.339.63,4.081,6.9,8.829,6.1,6.947-1.178,12.053-20.144,12-20.228C10.89,52.563,8.07.367,8.07.367" transform="translate(21.372 0.971)" fill="#ffb760"/>
            </g>
            <g id="Grupo_341" data-name="Grupo 341" transform="translate(46.503 192.296)">
              <path id="Caminho_516" data-name="Caminho 516" d="M4.163,0C-.552,4.94-11.326,21.561-11.019,20.706,1.718,27.734,60.81,53.288,61.116,52.432S69.307,29.51,69.161,29.5C57.9,28.551,4.163,0,4.163,0" transform="translate(11.026)" fill="#ffb760"/>
            </g>
            <g id="Grupo_342" data-name="Grupo 342" transform="translate(142.684 217.167)">
              <path id="Caminho_517" data-name="Caminho 517" d="M3.152,0S-3.561,5.081-.2,7.489s-10.35-.536-7.833-2.139S3.152,0,3.152,0" transform="translate(8.347)" fill="#ce8c44"/>
            </g>
            <g id="Grupo_343" data-name="Grupo 343" transform="translate(106.598 212.403)">
              <path id="Caminho_518" data-name="Caminho 518" d="M13.907,9.566C12.231,18.552,2.988,12.506.241,17.843-2.992,24.122-38.188,3.391-36.788-5.751S8.9-29.706,11.359-24.1C14.308-17.371-1.7-15.3-.354-14.844c1.117.379-1.387-.533.044-.021,5.037,1.8,22.8,3.4,22.247,8.519-.8,7.384-.705,3.032-1.679,8.351-1.557,8.494-5.743,4.3-6.351,7.56" transform="translate(36.828 25.332)" fill="#ffb760"/>
            </g>
            <g id="Grupo_344" data-name="Grupo 344" transform="translate(1.454 446.359)">
              <path id="Caminho_519" data-name="Caminho 519" d="M15.109.534c-.307.171-.672.347-1.087.529C9.773,2.924.1,5.34-11.3,7.24c-5.4.9-10.478,1.566-14.816,1.977-5.957.563-10.514.645-12.616.191-.774-.167-1.222-.405-1.276-.72a.306.306,0,0,1,.022-.163c.734-1.772,17.758-4.054,32.848-6.57C8.092-.583,15.7-2.417,16.293-.809a.558.558,0,0,1,.033.106c.059.351-.375.77-1.218,1.237" transform="translate(40.01 1.414)" fill="#e5f9ff"/>
            </g>
            <g id="Grupo_345" data-name="Grupo 345" transform="translate(101.478 450.544)">
              <path id="Caminho_520" data-name="Caminho 520" d="M0,.15C.187-1.663,17.324,1.441,32.555,3.526,47.213,5.532,54.758,5.866,55.14,7.5a.6.6,0,0,1,.015.2c-.185,1.812-12.682,1.591-27.913-.493C13.04,5.262,1.48,2.384.134.536A.57.57,0,0,1,0,.15" transform="translate(0.001 0.397)" fill="#e5f9ff"/>
            </g>
          </g>
        </g>
        <g id="Grupo_644" data-name="Grupo 644" transform="translate(-899.896 542.211)">
          <g id="Grupo_348" data-name="Grupo 348" transform="translate(124.679 202.745)">
            <path id="Caminho_522" data-name="Caminho 522" d="M22.24,14.785-58.9,16.341l.362-50.845L26.95-39.154Z" transform="translate(58.895 39.154)" fill="#3f4954"/>
          </g>
          <g id="Grupo_349" data-name="Grupo 349" transform="translate(116.189 406.325)">
            <path id="Caminho_523" data-name="Caminho 523" d="M0,8.2l17.245,2.624L21.8-19.087,4.55-21.711Z" transform="translate(0 21.711)" fill="#ffb760"/>
          </g>
          <path id="Caminho_524" data-name="Caminho 524" d="M149.886-4.049H133.031v-32.9h16.855Z" transform="translate(50.235 443.733)" fill="#ffb760"/>
          <g id="Grupo_350" data-name="Grupo 350" transform="translate(112.369 186.934)">
            <path id="Caminho_525" data-name="Caminho 525" d="M8.16,65.147l-29.769-2.764,3.244-105.126L-5.107-172.52l44.684,4.269L20.246-37.228Z" transform="translate(21.609 172.52)" fill="#3f4954"/>
          </g>
          <g id="Grupo_351" data-name="Grupo 351" transform="translate(164.608 186.364)">
            <path id="Caminho_526" data-name="Caminho 526" d="M11.028,65.524l-31.149.325L-29.2-40.252l1.057-133.267h46.43L9.731-34.736Z" transform="translate(29.205 173.519)" fill="#3f4954"/>
          </g>
          <g id="Grupo_378" data-name="Grupo 378" clip-path="url(#clip-path-10)">
            <g id="Grupo_352" data-name="Grupo 352" transform="translate(144.634 432.711)">
              <path id="Caminho_527" data-name="Caminho 527" d="M4.879,2.514c-2.226,1.179-57.1,25.471,37.74,10.318C48.282,11.927,46.8.98,42.151-1.822,39.118-3.651,33.045-5.311,28.634-6.1c-7.651-1.376-6.068-.752-23.756,8.618" transform="translate(12.919 6.657)" fill="#d15454"/>
            </g>
            <g id="Grupo_353" data-name="Grupo 353" transform="translate(77.6 429.997)">
              <path id="Caminho_528" data-name="Caminho 528" d="M4.966,2.107c-2.234,1-56.9,21.064,35.279,12.794,5.506-.493,5.026-11.367.811-14.45C38.307-1.561,32.63-3.62,28.47-4.709c-7.215-1.889-5.75-1.164-23.5,6.816" transform="translate(13.151 5.58)" fill="#d15454"/>
            </g>
            <g id="Grupo_354" data-name="Grupo 354" transform="translate(100.253 128.891)">
              <path id="Caminho_529" data-name="Caminho 529" d="M2.313,0C13.259,1.949,28.775,1.911,27.977,1.715c-1.9,14.172-3.262,46.868-15.345,69.623-.313.587-3.739,6.447-8.029,5.73C-1.676,76.018-6.17,58.414-6.126,58.335-.581,48.562,2.313,0,2.313,0" transform="translate(6.126 0)" fill="#ffb760"/>
            </g>
            <g id="Grupo_355" data-name="Grupo 355" transform="translate(125.533 0)">
              <path id="Caminho_530" data-name="Caminho 530" d="M19.44,11.749C9.753,26.82,22.1,27.864,18.254,31.788c-10.6,10.82-28.434,4.282-40.076,0-4.842-1.78-19.715,8.97-22.3,4.968-11.7-18.106-7.728-33.562.034-48.37,7.931-15.125,24.895-23.793,42.438-17.341S28.674-2.617,19.44,11.749" transform="translate(51.481 31.113)"/>
            </g>
            <g id="Grupo_356" data-name="Grupo 356" transform="translate(173.689 39.767)">
              <path id="Caminho_531" data-name="Caminho 531" d="M1.793,1.705C1.431,4.934-.312,7.388-2.1,7.188S-5.044,4.207-4.682.979-2.575-4.7-.789-4.5s2.944,2.98,2.582,6.209" transform="translate(4.748 4.515)" fill="#ffba60"/>
            </g>
            <g id="Grupo_357" data-name="Grupo 357" transform="translate(150.429 50.683)">
              <path id="Caminho_532" data-name="Caminho 532" d="M5.129,0C6.6,1.548,14.206,16.945,16.32,33.247a47.361,47.361,0,0,1,.85,15.287l-30.753-.6c.661-1.193,7.485-10.382,7.013-17.423-.116-1.514-.313-3.053-.579-4.6s-.6-3.091-1-4.633c-.1-.384-1.014-3.454-1.014-3.454A95.422,95.422,0,0,0-13.583,7.9Z" transform="translate(13.583)" fill="#ffba60"/>
            </g>
            <g id="Grupo_358" data-name="Grupo 358" transform="translate(153.104 60.673)">
              <path id="Caminho_533" data-name="Caminho 533" d="M3.2,4.071C-3.359,6.411-9.16-1.607-8.394-1.758S10.728-13.5,11.854-10.182C12.862-7.208,11.35,1.158,3.2,4.071" transform="translate(8.463 10.779)" fill="#ce8c44"/>
            </g>
            <g id="Grupo_359" data-name="Grupo 359" transform="translate(135.202 13.466)">
              <path id="Caminho_534" data-name="Caminho 534" d="M11.633,7.847c0,8.388-2.674,15.934-6.936,21.17q-.242.3-.49.584C.5,33.885-4.321,36.472-9.586,36.472c-11.719,0-21.221-12.816-21.221-28.626s9.5-28.626,21.221-28.626S11.633-7.963,11.633,7.847" transform="translate(30.807 20.779)" fill="#ffba60"/>
            </g>
            <g id="Grupo_360" data-name="Grupo 360" transform="translate(141.219 13.898)">
              <path id="Caminho_535" data-name="Caminho 535" d="M1.5,1.957c.526,4.126-.236,7.621-1.7,7.807S-3.278,6.758-3.8,2.632s.236-7.62,1.7-7.807S.973-2.169,1.5,1.957" transform="translate(3.97 5.183)"/>
            </g>
            <g id="Grupo_361" data-name="Grupo 361" transform="translate(138.742 39.495)">
              <path id="Caminho_536" data-name="Caminho 536" d="M1.059.832c0,1.677-.865,3.036-1.931,3.036S-2.805,2.509-2.805.832-1.94-2.2-.872-2.2,1.059-.844,1.059.832" transform="translate(2.805 2.204)"/>
            </g>
            <g id="Grupo_362" data-name="Grupo 362" transform="translate(158.062 39.164)">
              <path id="Caminho_537" data-name="Caminho 537" d="M1.059.832c0,1.677-.865,3.036-1.931,3.036S-2.805,2.509-2.805.832-1.94-2.2-.872-2.2,1.059-.844,1.059.832" transform="translate(2.805 2.204)"/>
            </g>
            <g id="Grupo_363" data-name="Grupo 363" transform="translate(136.072 35.524)">
              <path id="Caminho_538" data-name="Caminho 538" d="M1.883.2A4.926,4.926,0,0,0-4.9,1.817c-.368.6.536,1.241.905.632A3.813,3.813,0,0,1,1.251,1.1C1.857,1.47,2.494.566,1.883.2" transform="translate(4.988 0.528)"/>
            </g>
            <g id="Grupo_364" data-name="Grupo 364" transform="translate(157.123 35.261)">
              <path id="Caminho_539" data-name="Caminho 539" d="M1.958.5A4.925,4.925,0,0,0-4.977-.238c-.548.446.09,1.347.642.9a3.812,3.812,0,0,1,5.395.486c.449.546,1.35-.092.9-.642" transform="translate(5.186 1.336)"/>
            </g>
            <g id="Grupo_365" data-name="Grupo 365" transform="translate(135.122 42.402)">
              <path id="Caminho_540" data-name="Caminho 540" d="M10.332,3.808C6.91,2.042,11.876-7.914,12.308-9.053c.231-.608.081-1.261-.557-.953-.065.032-.128.065-.189.1.085-.377-1.546,1.734-1.562,2.124.773,1.546-2.273,4.254-3.357,5.019-.018.012-.033.025-.048.037-.112.039-.222.077-.333.114-.271.09-.541.182-.807.282-13.072,3-25.925-.873-31.225-1.809-1.091-.193-1.773,2.56-1.546,3.642C-24,15.291-16.452,22.009-5.2,21,9.251,19.707,14.831.31,13.354,1.065c-.561.287-1.214,3.677-3.022,2.743" transform="translate(27.36 10.085)" fill="#bfdde2"/>
            </g>
            <g id="Grupo_366" data-name="Grupo 366" transform="translate(172.127 40.438)">
              <path id="Caminho_541" data-name="Caminho 541" d="M1.032.069s-4.435,13.454.11,12.7c.663-.11-5.389,5.812-3.51-2.375S.609-1.18,1.032.069" transform="translate(2.732 0.183)" fill="#ce8c44"/>
            </g>
            <g id="Grupo_367" data-name="Grupo 367" transform="translate(135.71 39.695)">
              <path id="Caminho_542" data-name="Caminho 542" d="M10.533,3.945c-3.527-1.55.985-12.868,2.084-13.4.641-.309-1.2-1.181-1.685-.962-.606.276-4.12,7.808-4.136,7.821-.112.039-.875.3-1.141.4-13.071,3-26.494,1.223-31.8.287a1.5,1.5,0,0,0-1.694,1.89C-23.52,14.754-16.242,22.222-5,21.138,8.435,19.843,13.026,2.8,12.41,3.282c-.234.183-.455,1.287-1.876.663" transform="translate(27.894 10.447)" fill="#effcf7"/>
            </g>
            <g id="Grupo_368" data-name="Grupo 368" transform="translate(145.562 3.908)">
              <path id="Caminho_543" data-name="Caminho 543" d="M10.784,9.347C6.41,14.6-5.585,11.812-16.007,3.127S-31.331-16.852-26.957-22.1s16.369-2.465,26.791,6.22S15.158,4.1,10.784,9.347" transform="translate(28.557 24.753)"/>
            </g>
            <g id="Grupo_369" data-name="Grupo 369" transform="translate(108.433 90.398)">
              <path id="Caminho_544" data-name="Caminho 544" d="M12.83,0s9.847,12.955,25.881,0C72.469,2.626,84.783,22.447,84.238,42.048,83.9,54.238,65.363,27.161,65.517,72.42l13.1,65.521s-92.8.536-99.485.536L-16.5,56.923c.174-1.9,1.577-10.356,2.456-12.1l1.734-3.31s-22.207,4.246-21.662-1.6C-31.515,13.616-14.174.935,12.83,0" transform="translate(33.977)" fill="#8c8cc6"/>
            </g>
            <g id="Grupo_370" data-name="Grupo 370" transform="translate(191.667 133.287)">
              <path id="Caminho_545" data-name="Caminho 545" d="M2.317.345C13.241,2.4,29.654-.711,28.858-.914c-1.9,13.736-4.2,48.776-16.277,70.7-.311.565-3.733,6.2-8.016,5.444C-1.7,74.118-6.179,56.953-6.135,56.878-.6,47.468,2.317.345,2.317.345" transform="translate(6.135 0.914)" fill="#ffb760"/>
            </g>
            <g id="Grupo_371" data-name="Grupo 371" transform="translate(91.732 210.694)">
              <path id="Caminho_546" data-name="Caminho 546" d="M5.46,7.769c.382,2.043-14.442,5.081-13.1,8.291,1.569,3.768,21.334-6.712,23-3.477.219.426-14.035,5.455-11.233,8.023C7.332,23.547,48.034,2.7,46.961-4.306,45.794-11.927,9.226-24.1,6.827-19.6c-1.9,3.569,10.887,7.333,9.763,7.715-.93.315,1.156-.444-.037-.017-4.2,1.5-31.418,6.568-30.615,9.242C-12.284,3.27,6.4-3.974,3.855-.254,2.77,1.334-16.2,2.42-14.329,6.431-12.266,10.854,5.112,5.9,5.46,7.769" transform="translate(14.459 20.574)" fill="#ffb760"/>
            </g>
            <g id="Grupo_372" data-name="Grupo 372" transform="translate(137.022 191.153)">
              <path id="Caminho_547" data-name="Caminho 547" d="M15.086,0C19.119,4.287,28.367,18.682,28.1,17.942,17.324,23.929-32.716,45.621-32.982,44.881s-7.091-19.813-6.965-19.823C-30.388,24.308,15.086,0,15.086,0" transform="translate(39.949)" fill="#ffb760"/>
            </g>
            <g id="Grupo_373" data-name="Grupo 373" transform="translate(0 194.404)">
              <path id="Caminho_548" data-name="Caminho 548" d="M5.287,7.5C5.655,9.474-8.7,12.413-7.407,15.512c1.518,3.637,20.663-6.491,22.275-3.37.212.411-13.594,5.274-10.882,7.752C7.092,22.732,46.518,2.58,45.484-4.179,44.358-11.535,8.952-23.272,6.625-18.923c-1.843,3.447,10.539,7.074,9.45,7.443-.9.3,1.12-.43-.034-.017-4.068,1.453-30.429,6.358-29.653,8.939C-11.893,3.167,6.2-3.837,3.738-.244,2.685,1.291-15.687,2.349-13.877,6.221c2,4.268,18.828-.521,19.164,1.28" transform="translate(14.002 19.864)" fill="#ffb760"/>
            </g>
            <g id="Grupo_374" data-name="Grupo 374" transform="translate(43.553 186.226)">
              <path id="Caminho_549" data-name="Caminho 549" d="M16.161,0c3.073,4.9,9.19,20.527,9.081,19.763C13.478,23.432-39.905,34.6-40.015,33.833s-2.9-20.414-2.779-20.4C-33.286,14.561,16.161,0,16.161,0" transform="translate(42.798)" fill="#ffb760"/>
            </g>
            <g id="Grupo_375" data-name="Grupo 375" transform="translate(100.576 186.62)">
              <path id="Caminho_550" data-name="Caminho 550" d="M0,0S5.663.887,7.38,3.283A16.391,16.391,0,0,1,9.738,8.291Z" fill="#ce8c44"/>
            </g>
            <g id="Grupo_376" data-name="Grupo 376" transform="translate(145.435 451.45)">
              <path id="Caminho_551" data-name="Caminho 551" d="M0,1.149C-.17-.665,17.442-.93,32.963-1.826c14.938-.862,22.49-1.993,23.188-.46A.567.567,0,0,1,56.2-2.1c.171,1.813-12.272,4.01-27.792,4.907C13.939,3.647,1.907,3.056.208,1.5A.568.568,0,0,1,0,1.149" transform="translate(0.001 3.043)" fill="#e5f9ff"/>
            </g>
            <g id="Grupo_377" data-name="Grupo 377" transform="translate(77.975 448.517)">
              <path id="Caminho_552" data-name="Caminho 552" d="M14.574.643c-.317.117-.687.231-1.106.343C9.175,2.124-.314,2.915-11.34,2.915c-5.228,0-10.112-.178-14.26-.486-5.7-.423-10-1.092-11.908-1.886-.7-.292-1.087-.6-1.087-.92a.317.317,0,0,1,.045-.157C-37.581-2.162-21.2-1.614-6.593-1.614,8.145-1.614,15.6-2.17,15.9-.487a.712.712,0,0,1,.014.109c0,.357-.474.7-1.34,1.021" transform="translate(38.595 1.703)" fill="#e5f9ff"/>
            </g>
          </g>
        </g>
      </g>
    </g>
  </g>
</svg>
