<svg xmlns="http://www.w3.org/2000/svg" xmlns:xlink="http://www.w3.org/1999/xlink" width="370" height="36.015" viewBox="0 0 370 36.015">
  <defs>
    <clipPath id="clip-path">
      <path id="Caminho_10" data-name="Caminho 10" d="M0-10.481H170V-46.294H0Z" transform="translate(0 46.294)" fill="#6784c1"/>
    </clipPath>
  </defs>
  <g id="footer-logos" transform="translate(-375 -2012.333)">
    <g id="logo_siscoop" data-name="logo siscoop" transform="translate(375 2023.333)">
      <path id="Caminho_386" data-name="Caminho 386" d="M-3224.829,4004.581a9.064,9.064,0,0,1-9.055-9.054v0a9.062,9.062,0,0,1,9.055-9.052h.015a8.975,8.975,0,0,1,5.49,1.862,1.457,1.457,0,0,1,.271,2.041,1.461,1.461,0,0,1-2.043.271,5.917,5.917,0,0,0-.562-.385l-.038-.021a6.131,6.131,0,0,0-3.124-.857h-.008a6.152,6.152,0,0,0-6.146,6.143,6.152,6.152,0,0,0,6.145,6.143s0,0,.005,0,0,0,0,0a6.155,6.155,0,0,0,3.124-.857l.038-.022a6.149,6.149,0,0,0,.563-.384,1.459,1.459,0,0,1,2.043.27,1.458,1.458,0,0,1-.271,2.042,8.98,8.98,0,0,1-5.49,1.862.005.005,0,0,0,0,0h-.01Zm38.913,5.449v-5.976a7.059,7.059,0,0,0,2.571.527,9.065,9.065,0,0,0,9.054-9.056,9.063,9.063,0,0,0-9.054-9.052,8.981,8.981,0,0,0-5.506,1.862,1.457,1.457,0,0,0-.27,2.041,1.456,1.456,0,0,0,2.042.269,6.091,6.091,0,0,1,3.734-1.261,6.15,6.15,0,0,1,6.144,6.142,6.151,6.151,0,0,1-6.144,6.145,5.583,5.583,0,0,1-2.571-.834v-.522a1.456,1.456,0,0,0-1.456-1.456,1.456,1.456,0,0,0-1.455,1.456v9.717a1.455,1.455,0,0,0,1.455,1.456,1.456,1.456,0,0,0,1.456-1.456m-18.188-7.884a9.058,9.058,0,0,0,4.131,2.2,9.074,9.074,0,0,0,10.875-6.767,9.066,9.066,0,0,0-6.766-10.871,9.036,9.036,0,0,0-8.245,2.207,9.068,9.068,0,0,0-4.129-2.2,9.069,9.069,0,0,0-10.877,6.763,9.071,9.071,0,0,0,6.765,10.875,9.131,9.131,0,0,0,2.055.235,9.066,9.066,0,0,0,6.19-2.445m-4.8-12.594a6.13,6.13,0,0,1,4.545,4.4,1.457,1.457,0,0,0,1.78,1.036,1.457,1.457,0,0,0,1.034-1.78,9.055,9.055,0,0,0-.779-1.972,6.139,6.139,0,0,1,5.792-1.695,6.152,6.152,0,0,1,4.6,7.375,6.162,6.162,0,0,1-7.379,4.595,6.136,6.136,0,0,1-4.651-4.882,1.455,1.455,0,0,0-1.691-1.174,1.457,1.457,0,0,0-1.175,1.693,9.074,9.074,0,0,0,.936,2.675,6.157,6.157,0,0,1-5.794,1.7,6.156,6.156,0,0,1-4.591-7.381,6.158,6.158,0,0,1,5.985-4.75,6.077,6.077,0,0,1,1.394.162" transform="translate(3328.262 -3986.471)" fill="#6784c1"/>
      <g id="Grupo_139" data-name="Grupo 139" transform="translate(0 0.848)">
        <g id="Grupo_134" data-name="Grupo 134" transform="translate(0 0.033)">
          <path id="Caminho_387" data-name="Caminho 387" d="M-3430,4000.132c.263,2.3,2.856,3.347,5.417,3.347,2.594,0,5.252-1.05,5.252-3.315,0-2.724-3.118-2.921-5.219-3.183-3.151-.361-6.532-.919-6.532-4.168,0-3.282,3.151-4.5,6.4-4.5,3.282,0,6.4,1.345,6.4,4.168h-1.445c0-1.969-2.462-2.855-4.923-2.855-2.4,0-5.154.919-4.99,3.151,0,2.428,3.447,2.658,5.285,2.822,3.25.427,6.631,1.018,6.533,4.562,0,3.151-3.218,4.627-6.8,4.627-3.349,0-6.565-1.313-6.927-4.66Z" transform="translate(3431.539 -3988.317)" fill="#6784c1"/>
        </g>
        <g id="Grupo_135" data-name="Grupo 135" transform="translate(14.74)">
          <path id="Caminho_388" data-name="Caminho 388" d="M-3392.3,4004.625c-4.169,0-8.371-2.691-8.371-8.172s4.169-8.2,8.338-8.2c4.136,0,8.272,2.756,8.272,8.2C-3384.059,4001.868-3388.162,4004.625-3392.3,4004.625Zm.033-1.444a6.429,6.429,0,0,0,6.631-6.728,6.527,6.527,0,0,0-6.664-6.794,6.517,6.517,0,0,0-6.795,6.794A6.488,6.488,0,0,0-3392.265,4003.181Z" transform="translate(3400.669 -3988.248)" fill="#6784c1"/>
        </g>
        <g id="Grupo_136" data-name="Grupo 136" transform="translate(31.713)">
          <path id="Caminho_389" data-name="Caminho 389" d="M-3365.122,3988.511c2.791-.558,3.71.82,3.71,3.085,1.05-2.232,3.052-3.347,5.81-3.347a4.6,4.6,0,0,1,4.891,3.84c.886-2.494,3.25-3.84,6.139-3.84,4.07,0,5.219,3.118,5.219,6.662v5.612c0,1.838-.165,3.052,2.3,2.626v1.247c-3.152.624-3.906-.755-3.906-3.643v-5.842c0-2.855-.92-5.284-4.071-5.284-3.25.033-5.154,2.264-5.154,5.513v9.255h-1.575v-9.255c0-3.019-.952-5.481-4.235-5.481s-5.317,2.2-5.317,5.481v9.255h-1.576v-11.061c0-2.888.131-3.905-2.232-3.643Z" transform="translate(3365.122 -3988.248)" fill="#6784c1"/>
        </g>
        <g id="Grupo_137" data-name="Grupo 137" transform="translate(59.981)">
          <path id="Caminho_390" data-name="Caminho 390" d="M-3297.551,4004.625c-4.169,0-8.371-2.691-8.371-8.172s4.169-8.2,8.338-8.2c4.136,0,8.272,2.756,8.272,8.2C-3289.312,4001.868-3293.415,4004.625-3297.551,4004.625Zm.032-1.444a6.429,6.429,0,0,0,6.631-6.728,6.527,6.527,0,0,0-6.664-6.794,6.517,6.517,0,0,0-6.795,6.794A6.488,6.488,0,0,0-3297.519,4003.181Z" transform="translate(3305.922 -3988.248)" fill="#6784c1"/>
        </g>
        <g id="Grupo_138" data-name="Grupo 138" transform="translate(77.545 0.033)">
          <path id="Caminho_391" data-name="Caminho 391" d="M-3267.594,4000.132c.262,2.3,2.856,3.347,5.417,3.347,2.593,0,5.252-1.05,5.252-3.315,0-2.724-3.118-2.921-5.219-3.183-3.151-.361-6.532-.919-6.532-4.168,0-3.282,3.151-4.5,6.4-4.5,3.283,0,6.4,1.345,6.4,4.168h-1.444c0-1.969-2.462-2.855-4.924-2.855-2.4,0-5.154.919-4.99,3.151,0,2.428,3.447,2.658,5.286,2.822,3.25.427,6.63,1.018,6.533,4.562,0,3.151-3.218,4.627-6.8,4.627-3.349,0-6.565-1.313-6.926-4.66Z" transform="translate(3269.137 -3988.317)" fill="#6784c1"/>
        </g>
      </g>
      <g id="Grupo_140" data-name="Grupo 140" transform="translate(157.08 5.176)">
        <path id="Caminho_392" data-name="Caminho 392" d="M-3092.78,3997.313a6.422,6.422,0,0,0-3.419.986q2.735,2.549,5.378,5.472-2.644,2.924-5.378,5.473a6.42,6.42,0,0,0,3.419.986,6.459,6.459,0,0,0,6.46-6.458A6.459,6.459,0,0,0-3092.78,3997.313Z" transform="translate(3099.24 -3997.313)" fill="#6784c1"/>
        <path id="Caminho_393" data-name="Caminho 393" d="M-3101.48,4010.5a3.584,3.584,0,0,0,3.579-3.583,3.584,3.584,0,0,0-3.579-3.583,6.424,6.424,0,0,0-1.087,3.583A6.423,6.423,0,0,0-3101.48,4010.5Z" transform="translate(3102.567 -4000.46)" fill="#6784c1"/>
      </g>
    </g>
    <g id="Grupo_282" data-name="Grupo 282" transform="translate(575 2012.333)">
      <g id="Logo_OCB_Branco" data-name="Logo OCB Branco" transform="translate(0 0)">
        <g id="Grupo_10" data-name="Grupo 10" transform="translate(0 0)" clip-path="url(#clip-path)">
          <g id="Grupo_9" data-name="Grupo 9" transform="translate(0 0)">
            <path id="Caminho_9" data-name="Caminho 9" d="M-49.659-4.752c0-2.749-2.471-3.515-4.794-3.515H-61.7V5.945h6.627c2.814,0,5.732-.532,5.732-3.985,0-1.939-1.363-3.026-3.174-3.345a3.255,3.255,0,0,0,2.855-3.367m-4.134.576c0,1.406-1.278,1.789-2.45,1.789h-1.428V-5.881h1.621c1.107,0,2.257.384,2.257,1.705m.235,5.859c0,1.492-1.449,1.876-2.663,1.876h-1.45V-.191h1.406c1.3,0,2.707.255,2.707,1.874M-71.075-1.151a4.205,4.205,0,0,1,4.5-4.41,8.585,8.585,0,0,1,2.834.554l.127-2.984a16.923,16.923,0,0,0-3.73-.49c-4.367,0-8.117,2.728-8.117,7.33,0,4.879,3.473,7.33,8.117,7.33A11.885,11.885,0,0,0-63.574,5.6L-63.7,2.686a7.819,7.819,0,0,1-2.962.575,4.066,4.066,0,0,1-4.411-4.411m-5.755,0c0-4.709-2.749-7.33-7.415-7.33-4.581,0-7.394,2.728-7.394,7.33,0,4.71,2.727,7.33,7.394,7.33,4.625,0,7.415-2.684,7.415-7.33m-4.389,0c0,2-.533,4.581-3.026,4.581-2.387,0-3-2.663-3-4.581s.6-4.581,3-4.581c2.493,0,3.026,2.578,3.026,4.581m-14.043,7.1h1.512a15.6,15.6,0,0,1-.128-2.258v-4.6c0-2.643-1.214-3.964-3.856-3.964a8.912,8.912,0,0,0-3.239.7l.128,1.385A5.374,5.374,0,0,1-97.8-3.643c1.748,0,2.387,1,2.387,2.62v.512h-.832c-3.26,0-5.859.958-5.859,3.686,0,2.045,1.576,3,3.473,3a3.682,3.682,0,0,0,3.3-1.939Zm-.149-4.687c0,1.982-.682,3.665-2.941,3.665-1.15,0-2.151-.576-2.151-1.812,0-2.344,2.9-2.493,4.795-2.493h.3Zm-10.506,4.687h1.556V-1.278c0-2.067-1.13-3.6-3.3-3.6a3.532,3.532,0,0,0-3.217,2.216,3.028,3.028,0,0,0-3.09-2.216,3.407,3.407,0,0,0-3.175,2.045l-.063-1.833h-1.427a24.427,24.427,0,0,1,.106,2.493V5.945h1.556V.213c0-1.854.724-3.771,2.663-3.771,1.6,0,2.089,1.129,2.089,2.557V5.945h1.555V.213c0-1.854.7-3.771,2.643-3.771,1.6,0,2.11,1.129,2.11,2.557Zm-22.1-4.879h7.1V.426c0-2.834-1.193-5.305-4.2-5.305-2.855,0-4.518,2.748-4.518,5.476,0,3.176,1.45,5.583,4.881,5.583a9.46,9.46,0,0,0,3.281-.554l-.128-1.448a6.678,6.678,0,0,1-3,.746c-2.236,0-3.409-1.79-3.409-3.857m0-1.15c0-1.45.98-3.559,2.92-3.559s2.6,1.918,2.6,3.559Zm-4.709,6.264A4.864,4.864,0,0,0-131,5.86l-.086-1.3a2.875,2.875,0,0,1-1.194.278c-1.107,0-1.364-.832-1.364-1.769v-6.52h2.409V-4.667h-2.409V-7.585l-1.534.533v2.386h-2v1.215h2V2.663c0,1.939.278,3.516,2.452,3.516M-143.443-2c0-1.3,1.151-1.62,2.175-1.62a6.577,6.577,0,0,1,2.386.511l.128-1.3a7.922,7.922,0,0,0-2.642-.469c-1.748,0-3.644.853-3.644,2.9,0,3.26,5.136,2.536,5.136,5.114,0,1.215-1.173,1.768-2.259,1.768a5.962,5.962,0,0,1-2.77-.661l-.128,1.449a8.593,8.593,0,0,0,3.026.49c1.875,0,3.729-1.044,3.729-3.089,0-3.559-5.135-3.111-5.135-5.093m-5.476,7.947h1.556V-4.667h-1.556Zm0-12.976h1.556V-8.885h-1.556Zm-9.143,2.216c0-1.7,1.535-2.257,3.026-2.257a6.335,6.335,0,0,1,2.728.553l.128-1.513a8.743,8.743,0,0,0-2.877-.447c-2.3,0-4.731,1.15-4.731,3.729,0,1.7,1.215,2.664,2.6,3.409l1.47.789c1.3.7,2.535,1.406,2.535,2.684,0,1.854-1.385,2.643-3.111,2.643a6.082,6.082,0,0,1-3.282-.832l-.107,1.641a8.851,8.851,0,0,0,3.41.6c2.6,0,4.836-1.406,4.836-4.07,0-1.981-1.448-2.94-3.024-3.793l-1.471-.788c-1.129-.6-2.131-1.236-2.131-2.345m-5.886-3.625c1.37-2.514.333-4.679-.183-5.058,1.306,5.4-10.218,13.835-23.791,20.007-15.564,7.078-29.547,8.453-31.339,4.5-.029-.063-.053-.129-.077-.2,0,0-.2,2.9,3.564,3.675,5.725,1.147,16.53-.583,28.658-6.1,11-5.008,20.191-11.363,23.168-16.83m-2.329-4.021a1.685,1.685,0,0,0-.118-.862,1.433,1.433,0,0,0-1.237-.743,32.879,32.879,0,0,0-9.848.942,17.034,17.034,0,0,0-14.36-7.863A17.049,17.049,0,0,0-208.889-3.94a16.971,16.971,0,0,0,.545,4.265c-4.249,2.851-7.414,5.653-9.017,8.018a1.789,1.789,0,0,0-.258,1.214,1.311,1.311,0,0,0,.747.873,1.932,1.932,0,0,1,.233-.655c1.574-2.32,4.653-5.062,8.783-7.859a17.124,17.124,0,0,0,5.612,7.649,86.341,86.341,0,0,0,14.007-5.059,81.637,81.637,0,0,0,13.43-7.66c.011-.26.019-.522.019-.785a16.977,16.977,0,0,0-1.879-7.779,30.347,30.347,0,0,1,9.763-.916,2.034,2.034,0,0,1,.63.173M-182.853-.2a.214.214,0,0,1-.063.169.251.251,0,0,1-.174.084l-4.987-.007L-189.107,3.9s0,.011,0,.015l-.007.023s0,0-.005,0a.394.394,0,0,1-.343.251H-190.7a.2.2,0,0,1-.21-.248h-.009l.009-.036,1.03-3.863-6.532,0-1.03,3.864c0,.007,0,.009-.005.016l0,.02s-.006,0-.006,0a.4.4,0,0,1-.344.25l-1.234,0a.206.206,0,0,1-.21-.25h-.007l.008-.034,1.022-3.853-4.989.005a.136.136,0,0,1-.13-.08.179.179,0,0,1,.027-.173l9.59-13.865a.252.252,0,0,1,.2-.115.131.131,0,0,1,.139.115l1.291,7.907L-193.5-4.109l-.923-6.671-6.15,9.2,6.558-.007,8.626-12.47a.256.256,0,0,1,.2-.116.132.132,0,0,1,.14.116Zm-6.592-1.387,4.594-.005-1.238-9.194-6.15,9.2Zm2.823,10.463a85.266,85.266,0,0,1-9.535,3.676,17.042,17.042,0,0,0,4.317.562,17.04,17.04,0,0,0,15.289-9.515,98.369,98.369,0,0,1-10.071,5.277" transform="translate(219.339 20.988)" fill="#6784c1"/>
          </g>
        </g>
      </g>
    </g>
  </g>
</svg>
