<svg xmlns="http://www.w3.org/2000/svg" xmlns:xlink="http://www.w3.org/1999/xlink" width="395.195" height="51.943" viewBox="0 0 395.195 51.943">
  <defs>
    <clipPath id="clip-path">
      <path id="Caminho_10" data-name="Caminho 10" d="M0-12.514H160.351v-33.78H0Z" transform="translate(0 46.294)" fill="#6784c1"/>
    </clipPath>
  </defs>
  <g id="footer-mobile" transform="translate(-9 0)">
    <g id="Grupo_564" data-name="Grupo 564" transform="translate(0 -904.333)">
      <g id="logo_siscoop" data-name="logo siscoop" transform="translate(32 914.709)">
        <path id="Caminho_386" data-name="Caminho 386" d="M-3225.343,4003.553a8.55,8.55,0,0,1-8.541-8.54v0a8.548,8.548,0,0,1,8.541-8.539h.014a8.468,8.468,0,0,1,5.179,1.756,1.375,1.375,0,0,1,.256,1.925,1.378,1.378,0,0,1-1.927.255,5.613,5.613,0,0,0-.531-.363l-.035-.02a5.781,5.781,0,0,0-2.947-.808h-.008a5.8,5.8,0,0,0-5.8,5.794,5.8,5.8,0,0,0,5.8,5.794,0,0,0,0,1,0,0s0,0,0,0a5.8,5.8,0,0,0,2.947-.808l.035-.02a5.8,5.8,0,0,0,.531-.362,1.376,1.376,0,0,1,1.927.254,1.376,1.376,0,0,1-.256,1.926,8.473,8.473,0,0,1-5.179,1.757,0,0,0,0,0,0,0h-.01Zm36.7,5.14v-5.637a6.656,6.656,0,0,0,2.425.5,8.551,8.551,0,0,0,8.541-8.542,8.549,8.549,0,0,0-8.541-8.539,8.473,8.473,0,0,0-5.193,1.756,1.374,1.374,0,0,0-.255,1.925,1.373,1.373,0,0,0,1.926.254,5.746,5.746,0,0,1,3.522-1.189,5.8,5.8,0,0,1,5.795,5.793,5.8,5.8,0,0,1-5.795,5.8,5.264,5.264,0,0,1-2.425-.787v-.492a1.373,1.373,0,0,0-1.374-1.373,1.373,1.373,0,0,0-1.373,1.373v9.165a1.373,1.373,0,0,0,1.373,1.373,1.373,1.373,0,0,0,1.374-1.373m-17.156-7.437a8.548,8.548,0,0,0,3.9,2.076,8.559,8.559,0,0,0,10.258-6.383,8.552,8.552,0,0,0-6.382-10.254,8.523,8.523,0,0,0-7.777,2.081,8.555,8.555,0,0,0-3.895-2.074,8.554,8.554,0,0,0-10.26,6.379,8.556,8.556,0,0,0,6.381,10.258,8.617,8.617,0,0,0,1.939.222,8.551,8.551,0,0,0,5.839-2.306m-4.524-11.879a5.782,5.782,0,0,1,4.287,4.153,1.374,1.374,0,0,0,1.679.977,1.374,1.374,0,0,0,.976-1.679,8.562,8.562,0,0,0-.735-1.861,5.79,5.79,0,0,1,5.463-1.6,5.8,5.8,0,0,1,4.334,6.956,5.813,5.813,0,0,1-6.96,4.334,5.788,5.788,0,0,1-4.387-4.6,1.372,1.372,0,0,0-1.595-1.107,1.374,1.374,0,0,0-1.108,1.6,8.563,8.563,0,0,0,.882,2.523,5.808,5.808,0,0,1-5.465,1.6,5.806,5.806,0,0,1-4.331-6.962,5.808,5.808,0,0,1,5.645-4.481,5.736,5.736,0,0,1,1.315.153" transform="translate(3322.905 -3986.471)" fill="#6784c1"/>
        <g id="Grupo_139" data-name="Grupo 139" transform="translate(0 0.8)">
          <g id="Grupo_134" data-name="Grupo 134" transform="translate(0 0.031)">
            <path id="Caminho_387" data-name="Caminho 387" d="M-3430.084,3999.461c.248,2.167,2.694,3.157,5.109,3.157,2.446,0,4.954-.991,4.954-3.127,0-2.57-2.941-2.755-4.923-3-2.973-.341-6.162-.867-6.162-3.931,0-3.1,2.972-4.241,6.038-4.241,3.1,0,6.038,1.269,6.038,3.932h-1.363c0-1.857-2.322-2.693-4.644-2.693-2.26,0-4.862.867-4.707,2.972,0,2.29,3.251,2.507,4.985,2.661,3.066.4,6.254.96,6.162,4.3,0,2.972-3.035,4.365-6.409,4.365-3.158,0-6.193-1.238-6.533-4.4Z" transform="translate(3431.539 -3988.317)" fill="#6784c1"/>
          </g>
          <g id="Grupo_135" data-name="Grupo 135" transform="translate(13.904)">
            <path id="Caminho_388" data-name="Caminho 388" d="M-3392.773,4003.7c-3.932,0-7.9-2.538-7.9-7.708s3.933-7.739,7.865-7.739a7.479,7.479,0,0,1,7.8,7.739A7.447,7.447,0,0,1-3392.773,4003.7Zm.031-1.362a6.064,6.064,0,0,0,6.255-6.346,6.156,6.156,0,0,0-6.286-6.408,6.147,6.147,0,0,0-6.409,6.408A6.12,6.12,0,0,0-3392.742,4002.333Z" transform="translate(3400.669 -3988.248)" fill="#6784c1"/>
          </g>
          <g id="Grupo_136" data-name="Grupo 136" transform="translate(29.913)">
            <path id="Caminho_389" data-name="Caminho 389" d="M-3365.122,3988.5c2.632-.527,3.5.773,3.5,2.909.99-2.105,2.879-3.157,5.48-3.157a4.337,4.337,0,0,1,4.613,3.622c.836-2.353,3.066-3.622,5.791-3.622,3.839,0,4.923,2.941,4.923,6.284v5.293c0,1.733-.155,2.879,2.167,2.477v1.176c-2.973.588-3.684-.712-3.684-3.436v-5.51c0-2.693-.867-4.984-3.839-4.984-3.066.031-4.862,2.136-4.862,5.2v8.73h-1.486v-8.73c0-2.848-.9-5.169-3.994-5.169s-5.016,2.074-5.016,5.169v8.73h-1.487v-10.433c0-2.724.124-3.683-2.106-3.436Z" transform="translate(3365.122 -3988.248)" fill="#6784c1"/>
          </g>
          <g id="Grupo_137" data-name="Grupo 137" transform="translate(56.576)">
            <path id="Caminho_390" data-name="Caminho 390" d="M-3298.026,4003.7c-3.932,0-7.9-2.538-7.9-7.708s3.932-7.739,7.865-7.739a7.479,7.479,0,0,1,7.8,7.739A7.447,7.447,0,0,1-3298.026,4003.7Zm.031-1.362a6.064,6.064,0,0,0,6.255-6.346,6.156,6.156,0,0,0-6.285-6.408,6.147,6.147,0,0,0-6.409,6.408A6.12,6.12,0,0,0-3298,4002.333Z" transform="translate(3305.922 -3988.248)" fill="#6784c1"/>
          </g>
          <g id="Grupo_138" data-name="Grupo 138" transform="translate(73.144 0.031)">
            <path id="Caminho_391" data-name="Caminho 391" d="M-3267.682,3999.461c.248,2.167,2.694,3.157,5.109,3.157,2.446,0,4.954-.991,4.954-3.127,0-2.57-2.941-2.755-4.923-3-2.972-.341-6.162-.867-6.162-3.931,0-3.1,2.972-4.241,6.038-4.241,3.1,0,6.038,1.269,6.038,3.932h-1.362c0-1.857-2.322-2.693-4.645-2.693-2.26,0-4.861.867-4.707,2.972,0,2.29,3.252,2.507,4.986,2.661,3.065.4,6.254.96,6.162,4.3,0,2.972-3.035,4.365-6.41,4.365-3.159,0-6.193-1.238-6.533-4.4Z" transform="translate(3269.137 -3988.317)" fill="#6784c1"/>
          </g>
        </g>
        <g id="Grupo_140" data-name="Grupo 140" transform="translate(148.165 4.882)">
          <path id="Caminho_392" data-name="Caminho 392" d="M-3092.974,3997.313a6.056,6.056,0,0,0-3.225.93q2.58,2.4,5.073,5.162-2.494,2.758-5.073,5.162a6.059,6.059,0,0,0,3.225.93,6.092,6.092,0,0,0,6.093-6.092A6.092,6.092,0,0,0-3092.974,3997.313Z" transform="translate(3099.067 -3997.313)" fill="#6784c1"/>
          <path id="Caminho_393" data-name="Caminho 393" d="M-3101.542,4010.095a3.38,3.38,0,0,0,3.375-3.38,3.381,3.381,0,0,0-3.375-3.38,6.059,6.059,0,0,0-1.025,3.38A6.057,6.057,0,0,0-3101.542,4010.095Z" transform="translate(3102.567 -4000.623)" fill="#6784c1"/>
        </g>
      </g>
      <g id="Grupo_282" data-name="Grupo 282" transform="translate(220.649 904.333)">
        <g id="Logo_OCB_Branco" data-name="Logo OCB Branco" transform="translate(0 0)">
          <g id="Grupo_10" data-name="Grupo 10" transform="translate(0 0)" clip-path="url(#clip-path)">
            <g id="Grupo_9" data-name="Grupo 9" transform="translate(0 0)">
              <path id="Caminho_9" data-name="Caminho 9" d="M-59.29-5.673c0-2.593-2.331-3.316-4.522-3.316h-6.834V4.416h6.251c2.654,0,5.406-.5,5.406-3.759,0-1.829-1.286-2.854-2.994-3.155A3.07,3.07,0,0,0-59.29-5.673m-3.9.543c0,1.327-1.205,1.688-2.311,1.688h-1.347v-3.3h1.529c1.044,0,2.129.362,2.129,1.608M-62.968.4c0,1.408-1.367,1.769-2.512,1.769h-1.367V-1.372h1.327c1.226,0,2.553.241,2.553,1.768M-79.49-2.277a3.966,3.966,0,0,1,4.241-4.16,8.1,8.1,0,0,1,2.674.522l.12-2.814a15.962,15.962,0,0,0-3.518-.462c-4.119,0-7.657,2.573-7.657,6.914,0,4.6,3.276,6.914,7.657,6.914a11.211,11.211,0,0,0,3.559-.543l-.12-2.752a7.375,7.375,0,0,1-2.794.542A3.835,3.835,0,0,1-79.49-2.277m-5.428,0c0-4.442-2.593-6.914-6.994-6.914-4.321,0-6.974,2.573-6.974,6.914,0,4.442,2.572,6.914,6.974,6.914,4.362,0,6.994-2.532,6.994-6.914m-4.14,0c0,1.89-.5,4.321-2.855,4.321-2.251,0-2.834-2.512-2.834-4.321S-94.183-6.6-91.912-6.6c2.352,0,2.855,2.432,2.855,4.321M-102.3,4.416h1.426a14.718,14.718,0,0,1-.12-2.13V-2.055c0-2.493-1.145-3.739-3.637-3.739a8.406,8.406,0,0,0-3.055.663l.12,1.306a5.069,5.069,0,0,1,2.874-.8c1.648,0,2.251.944,2.251,2.471v.483h-.784c-3.075,0-5.527.9-5.527,3.477,0,1.929,1.486,2.833,3.276,2.833a3.473,3.473,0,0,0,3.115-1.829Zm-.141-4.421c0,1.869-.644,3.457-2.774,3.457-1.085,0-2.029-.543-2.029-1.709,0-2.211,2.733-2.352,4.523-2.352h.281Zm-9.91,4.421h1.467V-2.4c0-1.95-1.066-3.4-3.117-3.4a3.332,3.332,0,0,0-3.035,2.09,2.856,2.856,0,0,0-2.914-2.09,3.214,3.214,0,0,0-2.995,1.929l-.06-1.729h-1.346a23.041,23.041,0,0,1,.1,2.352V4.416h1.467V-.99c0-1.748.683-3.557,2.512-3.557,1.507,0,1.97,1.065,1.97,2.412V4.416h1.467V-.99c0-1.748.663-3.557,2.493-3.557,1.508,0,1.99,1.065,1.99,2.412ZM-133.2-.186h6.693v-.6c0-2.673-1.125-5-3.959-5-2.693,0-4.261,2.592-4.261,5.165,0,3,1.367,5.266,4.6,5.266a8.923,8.923,0,0,0,3.095-.522l-.12-1.366a6.3,6.3,0,0,1-2.834.7c-2.11,0-3.216-1.688-3.216-3.638m0-1.085c0-1.367.925-3.357,2.754-3.357s2.452,1.809,2.452,3.357Zm-4.442,5.908a4.587,4.587,0,0,0,1.628-.3l-.081-1.227a2.712,2.712,0,0,1-1.126.262c-1.044,0-1.286-.784-1.286-1.669v-6.15h2.272V-5.593H-138.5V-8.346l-1.447.5v2.25h-1.889v1.146h1.889V1.321c0,1.829.262,3.316,2.312,3.316M-147.751-3.08c0-1.227,1.086-1.528,2.051-1.528a6.2,6.2,0,0,1,2.25.482l.12-1.226a7.473,7.473,0,0,0-2.492-.442c-1.648,0-3.438.8-3.438,2.733,0,3.075,4.844,2.392,4.844,4.824,0,1.146-1.106,1.668-2.131,1.668a5.624,5.624,0,0,1-2.613-.623l-.121,1.367a8.1,8.1,0,0,0,2.855.462c1.769,0,3.517-.985,3.517-2.914,0-3.357-4.844-2.935-4.844-4.8m-5.165,7.5h1.467V-5.593h-1.467Zm0-12.24h1.467V-9.572h-1.467Zm-8.624,2.09c0-1.608,1.448-2.129,2.855-2.129a5.975,5.975,0,0,1,2.573.522l.121-1.427A8.247,8.247,0,0,0-158.7-9.19c-2.172,0-4.462,1.085-4.462,3.517,0,1.608,1.146,2.513,2.452,3.216l1.386.744c1.225.663,2.391,1.327,2.391,2.531,0,1.749-1.307,2.493-2.934,2.493a5.737,5.737,0,0,1-3.1-.784l-.1,1.548a8.348,8.348,0,0,0,3.216.563c2.452,0,4.561-1.326,4.561-3.839,0-1.869-1.366-2.773-2.852-3.578l-1.388-.743c-1.065-.563-2.01-1.166-2.01-2.212m-5.552-3.419c1.292-2.371.314-4.414-.172-4.771,1.232,5.1-9.638,13.05-22.441,18.871-14.681,6.676-27.87,7.973-29.56,4.247-.027-.059-.05-.122-.072-.185,0,0-.188,2.738,3.362,3.466,5.4,1.082,15.592-.549,27.031-5.754C-178.566,2-169.9-4-167.092-9.153m-2.2-3.793a1.589,1.589,0,0,0-.112-.813,1.352,1.352,0,0,0-1.167-.7,31.013,31.013,0,0,0-9.289.889A16.067,16.067,0,0,0-193.4-20.988a16.081,16.081,0,0,0-16.082,16.08,16.008,16.008,0,0,0,.514,4.023c-4.008,2.689-6.993,5.332-8.505,7.563a1.688,1.688,0,0,0-.243,1.145,1.236,1.236,0,0,0,.7.823,1.822,1.822,0,0,1,.22-.618c1.485-2.188,4.389-4.775,8.284-7.413a16.152,16.152,0,0,0,5.293,7.214A81.441,81.441,0,0,0-190,3.058a77,77,0,0,0,12.667-7.225c.01-.245.018-.493.018-.741a16.013,16.013,0,0,0-1.772-7.338,28.624,28.624,0,0,1,9.209-.864,1.919,1.919,0,0,1,.594.163M-184.924-1.384a.2.2,0,0,1-.06.159.237.237,0,0,1-.164.08l-4.7-.007-.97,3.643s0,.01,0,.015l-.007.022s0,0-.005,0a.372.372,0,0,1-.324.236h-1.164a.193.193,0,0,1-.2-.234h-.008l.008-.034.972-3.643-6.161,0-.971,3.645c0,.007,0,.009-.005.015l0,.019s-.006,0-.006,0a.375.375,0,0,1-.324.236h-1.164a.194.194,0,0,1-.2-.236h-.007l.008-.032.964-3.634-4.706.005a.128.128,0,0,1-.123-.076.169.169,0,0,1,.026-.163l9.046-13.078a.238.238,0,0,1,.191-.109.124.124,0,0,1,.131.109l1.218,7.458-1.329,1.92-.871-6.293-5.8,8.677,6.186-.007,8.137-11.762a.241.241,0,0,1,.19-.109.124.124,0,0,1,.132.109Zm-6.218-1.308,4.334-.005-1.167-8.672-5.8,8.68Zm2.663,9.869a80.426,80.426,0,0,1-8.994,3.467,16.074,16.074,0,0,0,4.072.53A16.073,16.073,0,0,0-178.98,2.2a92.784,92.784,0,0,1-9.5,4.977" transform="translate(219.339 20.988)" fill="#6784c1"/>
            </g>
          </g>
        </g>
      </g>
    </g>
    <g id="Grupo_287" data-name="Grupo 287" transform="translate(9 52.047)">
      <path id="Caminho_450" data-name="Caminho 450" d="M56.012-.113h46.3V-5.354h-46.3Z" transform="translate(56.338 0)" fill="#0d4c76"/>
      <path id="Caminho_451" data-name="Caminho 451" d="M71.389-.113H140.6V-5.354H71.389Z" transform="translate(68.521 0)" fill="#32beec"/>
      <path id="Caminho_452" data-name="Caminho 452" d="M0-.113H31.267V-5.354H0Z" transform="translate(0 0)" fill="#237aa3"/>
      <g id="Grupo_283" data-name="Grupo 283" transform="translate(49.124 -5.354)">
        <path id="Caminho_453" data-name="Caminho 453" d="M0,0,0,5.241h59.14L59.14,0Z" fill="#88c754"/>
      </g>
      <g id="Grupo_284" data-name="Grupo 284" transform="translate(73.422 -5.354)">
        <path id="Caminho_454" data-name="Caminho 454" d="M0,0V5.241H26.871L26.865,0Z" fill="#2085ae"/>
      </g>
      <path id="Caminho_455" data-name="Caminho 455" d="M10.385-.113H28.242V-5.354H10.385Z" transform="translate(20.882 0)" fill="#0d4c76"/>
      <path id="Caminho_456" data-name="Caminho 456" d="M44.886-.11h33.5V-5.351h-33.5Z" transform="translate(46.223 0.006)" fill="#ff922e"/>
      <path id="Caminho_457" data-name="Caminho 457" d="M150.543-.113h45.833V-5.354H150.543Z" transform="translate(147.964 0)" fill="#0d4c76"/>
      <path id="Caminho_458" data-name="Caminho 458" d="M165.766-.113h70.918V-5.354H165.766Z" transform="translate(158.511 0)" fill="#32beec"/>
      <path id="Caminho_459" data-name="Caminho 459" d="M94.378-.113H125.4V-5.354H94.378Z" transform="translate(97.615 0)" fill="#237aa3"/>
      <g id="Grupo_285" data-name="Grupo 285" transform="translate(219.233 -5.354)">
        <path id="Caminho_460" data-name="Caminho 460" d="M0,0,0,5.241h59.14L59.14,0Z" fill="#88c754"/>
      </g>
      <g id="Grupo_286" data-name="Grupo 286" transform="translate(266.028 -5.354)">
        <path id="Caminho_461" data-name="Caminho 461" d="M0,0V5.241H27.259l0-5.241Z" fill="#2085ae"/>
      </g>
      <path id="Caminho_462" data-name="Caminho 462" d="M104.763-.113H122.62V-5.354H104.763Z" transform="translate(110.795 0)" fill="#0d4c76"/>
      <path id="Caminho_463" data-name="Caminho 463" d="M139.392-.11h33.573V-5.351H139.392Z" transform="translate(143.525 0.006)" fill="#ff922e"/>
    </g>
  </g>
</svg>
