<svg id="logo-coop" xmlns="http://www.w3.org/2000/svg" width="170" height="25.015" viewBox="0 0 170 25.015">
  <path id="Caminho_386" data-name="Caminho 386" d="M-3224.829,4004.581a9.064,9.064,0,0,1-9.055-9.054v0a9.062,9.062,0,0,1,9.055-9.052h.015a8.975,8.975,0,0,1,5.49,1.862,1.457,1.457,0,0,1,.271,2.041,1.461,1.461,0,0,1-2.043.271,5.917,5.917,0,0,0-.562-.385l-.038-.021a6.131,6.131,0,0,0-3.124-.857h-.008a6.152,6.152,0,0,0-6.146,6.143,6.152,6.152,0,0,0,6.145,6.143s0,0,.005,0,0,0,0,0a6.155,6.155,0,0,0,3.124-.857l.038-.022a6.149,6.149,0,0,0,.563-.384,1.459,1.459,0,0,1,2.043.27,1.458,1.458,0,0,1-.271,2.042,8.98,8.98,0,0,1-5.49,1.862.005.005,0,0,0,0,0h-.01Zm38.913,5.449v-5.976a7.059,7.059,0,0,0,2.571.527,9.065,9.065,0,0,0,9.054-9.056,9.063,9.063,0,0,0-9.054-9.052,8.981,8.981,0,0,0-5.506,1.862,1.457,1.457,0,0,0-.27,2.041,1.456,1.456,0,0,0,2.042.269,6.091,6.091,0,0,1,3.734-1.261,6.15,6.15,0,0,1,6.144,6.142,6.151,6.151,0,0,1-6.144,6.145,5.583,5.583,0,0,1-2.571-.834v-.522a1.456,1.456,0,0,0-1.456-1.456,1.456,1.456,0,0,0-1.455,1.456v9.717a1.455,1.455,0,0,0,1.455,1.456,1.456,1.456,0,0,0,1.456-1.456m-18.188-7.884a9.058,9.058,0,0,0,4.131,2.2,9.074,9.074,0,0,0,10.875-6.767,9.066,9.066,0,0,0-6.766-10.871,9.036,9.036,0,0,0-8.245,2.207,9.068,9.068,0,0,0-4.129-2.2,9.069,9.069,0,0,0-10.877,6.763,9.071,9.071,0,0,0,6.765,10.875,9.131,9.131,0,0,0,2.055.235,9.066,9.066,0,0,0,6.19-2.445m-4.8-12.594a6.13,6.13,0,0,1,4.545,4.4,1.457,1.457,0,0,0,1.78,1.036,1.457,1.457,0,0,0,1.034-1.78,9.055,9.055,0,0,0-.779-1.972,6.139,6.139,0,0,1,5.792-1.695,6.152,6.152,0,0,1,4.6,7.375,6.162,6.162,0,0,1-7.379,4.595,6.136,6.136,0,0,1-4.651-4.882,1.455,1.455,0,0,0-1.691-1.174,1.457,1.457,0,0,0-1.175,1.693,9.074,9.074,0,0,0,.936,2.675,6.157,6.157,0,0,1-5.794,1.7,6.156,6.156,0,0,1-4.591-7.381,6.158,6.158,0,0,1,5.985-4.75,6.077,6.077,0,0,1,1.394.162" transform="translate(3328.262 -3986.471)" fill="#6784c1"/>
  <g id="Grupo_139" data-name="Grupo 139" transform="translate(0 0.848)">
    <g id="Grupo_134" data-name="Grupo 134" transform="translate(0 0.033)">
      <path id="Caminho_387" data-name="Caminho 387" d="M-3430,4000.132c.263,2.3,2.856,3.347,5.417,3.347,2.594,0,5.252-1.05,5.252-3.315,0-2.724-3.118-2.921-5.219-3.183-3.151-.361-6.532-.919-6.532-4.168,0-3.282,3.151-4.5,6.4-4.5,3.282,0,6.4,1.345,6.4,4.168h-1.445c0-1.969-2.462-2.855-4.923-2.855-2.4,0-5.154.919-4.99,3.151,0,2.428,3.447,2.658,5.285,2.822,3.25.427,6.631,1.018,6.533,4.562,0,3.151-3.218,4.627-6.8,4.627-3.349,0-6.565-1.313-6.927-4.66Z" transform="translate(3431.539 -3988.317)" fill="#6784c1"/>
    </g>
    <g id="Grupo_135" data-name="Grupo 135" transform="translate(14.74)">
      <path id="Caminho_388" data-name="Caminho 388" d="M-3392.3,4004.625c-4.169,0-8.371-2.691-8.371-8.172s4.169-8.2,8.338-8.2c4.136,0,8.272,2.756,8.272,8.2C-3384.059,4001.868-3388.162,4004.625-3392.3,4004.625Zm.033-1.444a6.429,6.429,0,0,0,6.631-6.728,6.527,6.527,0,0,0-6.664-6.794,6.517,6.517,0,0,0-6.795,6.794A6.488,6.488,0,0,0-3392.265,4003.181Z" transform="translate(3400.669 -3988.248)" fill="#6784c1"/>
    </g>
    <g id="Grupo_136" data-name="Grupo 136" transform="translate(31.713)">
      <path id="Caminho_389" data-name="Caminho 389" d="M-3365.122,3988.511c2.791-.558,3.71.82,3.71,3.085,1.05-2.232,3.052-3.347,5.81-3.347a4.6,4.6,0,0,1,4.891,3.84c.886-2.494,3.25-3.84,6.139-3.84,4.07,0,5.219,3.118,5.219,6.662v5.612c0,1.838-.165,3.052,2.3,2.626v1.247c-3.152.624-3.906-.755-3.906-3.643v-5.842c0-2.855-.92-5.284-4.071-5.284-3.25.033-5.154,2.264-5.154,5.513v9.255h-1.575v-9.255c0-3.019-.952-5.481-4.235-5.481s-5.317,2.2-5.317,5.481v9.255h-1.576v-11.061c0-2.888.131-3.905-2.232-3.643Z" transform="translate(3365.122 -3988.248)" fill="#6784c1"/>
    </g>
    <g id="Grupo_137" data-name="Grupo 137" transform="translate(59.981)">
      <path id="Caminho_390" data-name="Caminho 390" d="M-3297.551,4004.625c-4.169,0-8.371-2.691-8.371-8.172s4.169-8.2,8.338-8.2c4.136,0,8.272,2.756,8.272,8.2C-3289.312,4001.868-3293.415,4004.625-3297.551,4004.625Zm.032-1.444a6.429,6.429,0,0,0,6.631-6.728,6.527,6.527,0,0,0-6.664-6.794,6.517,6.517,0,0,0-6.795,6.794A6.488,6.488,0,0,0-3297.519,4003.181Z" transform="translate(3305.922 -3988.248)" fill="#6784c1"/>
    </g>
    <g id="Grupo_138" data-name="Grupo 138" transform="translate(77.545 0.033)">
      <path id="Caminho_391" data-name="Caminho 391" d="M-3267.594,4000.132c.262,2.3,2.856,3.347,5.417,3.347,2.593,0,5.252-1.05,5.252-3.315,0-2.724-3.118-2.921-5.219-3.183-3.151-.361-6.532-.919-6.532-4.168,0-3.282,3.151-4.5,6.4-4.5,3.283,0,6.4,1.345,6.4,4.168h-1.444c0-1.969-2.462-2.855-4.924-2.855-2.4,0-5.154.919-4.99,3.151,0,2.428,3.447,2.658,5.286,2.822,3.25.427,6.63,1.018,6.533,4.562,0,3.151-3.218,4.627-6.8,4.627-3.349,0-6.565-1.313-6.926-4.66Z" transform="translate(3269.137 -3988.317)" fill="#6784c1"/>
    </g>
  </g>
  <g id="Grupo_140" data-name="Grupo 140" transform="translate(157.08 5.176)">
    <path id="Caminho_392" data-name="Caminho 392" d="M-3092.78,3997.313a6.422,6.422,0,0,0-3.419.986q2.735,2.549,5.378,5.472-2.644,2.924-5.378,5.473a6.42,6.42,0,0,0,3.419.986,6.459,6.459,0,0,0,6.46-6.458A6.459,6.459,0,0,0-3092.78,3997.313Z" transform="translate(3099.24 -3997.313)" fill="#6784c1"/>
    <path id="Caminho_393" data-name="Caminho 393" d="M-3101.48,4010.5a3.584,3.584,0,0,0,3.579-3.583,3.584,3.584,0,0,0-3.579-3.583,6.424,6.424,0,0,0-1.087,3.583A6.423,6.423,0,0,0-3101.48,4010.5Z" transform="translate(3102.567 -4000.46)" fill="#6784c1"/>
  </g>
</svg>
