<svg xmlns="http://www.w3.org/2000/svg" width="570" height="563.007" viewBox="0 0 570 563.007">
  <g id="mapa" transform="translate(-2104.169 -1418.185)">
    <rect id="Retângulo_132" data-name="Retângulo 132" width="18.285" height="11.636" transform="translate(2469.703 1723.874)" fill="#88c754"/>
    <path id="Caminho_424" data-name="Caminho 424" d="M2448.01,1497.676v38.743a.835.835,0,0,1-.459.744l-25.566,12.782,12.483,12.484a.832.832,0,0,1,.244.588v26.254l13.056,13.054a.834.834,0,0,1,.244.589v26.252l5.818,5.818,5.817-5.818v-26.252a.834.834,0,0,1,.244-.589l19.948-19.947a.828.828,0,0,1,.587-.244h19.117v-32.416a.836.836,0,0,1,.244-.588l25.178-25.178h-37.89a.833.833,0,0,1-.832-.831v-12.7Z" transform="translate(54.94 13.742)" fill="#88c754"/>
    <path id="Caminho_425" data-name="Caminho 425" d="M2549.458,1584.909v-12.468c0-.019.01-.035.01-.054a.822.822,0,0,1,.042-.211c.006-.017,0-.038.011-.054s.013-.019.019-.03a.794.794,0,0,1,.153-.229l.007-.01,19.36-19.359-32.417-32.416h-18.771v58.668l6.163,6.162Z" transform="translate(71.517 17.614)" fill="#88c754"/>
    <path id="Caminho_426" data-name="Caminho 426" d="M2521.519,1520.079l-26.11,26.11v32.9a.832.832,0,0,1-.832.832h-19.6l-19.46,19.46v25.909l12.468,12.468,19.359-19.361a.845.845,0,0,1,.27-.179.821.821,0,0,1,.318-.063h26.254l19.461-19.461v-12.611l-6.406-6.405a.83.83,0,0,1-.244-.588v-59.013Z" transform="translate(60.736 17.614)" fill="#88c754"/>
    <path id="Caminho_427" data-name="Caminho 427" d="M2459.27,1680.485l3.61-3.611V1644.8H2398.05v5.819a.8.8,0,0,1-.043.263l-6.65,19.948a.806.806,0,0,1-.2.325L2364.8,1697.51v25.783l24.37,14.622,7.916,4.749,12.84-12.839a.833.833,0,0,1,.587-.244h32.416V1698h-19.117a.831.831,0,0,1-.832-.83v-13.3a.833.833,0,0,1,.832-.832h19.948a.832.832,0,0,1,.831.832v11.293Z" transform="translate(45.056 39.175)" fill="#88c754"/>
    <path id="Caminho_428" data-name="Caminho 428" d="M2457.98,1628.537l-6.405-6.406a.832.832,0,0,1-.244-.588V1595.29l-13.055-13.055a.859.859,0,0,1-.181-.27.836.836,0,0,1-.063-.318v-26.253l-11.636-11.636v24.59a.828.828,0,0,1-.244.588l-13.054,13.055v12.955a.831.831,0,0,1-.244.588l-19.7,19.7v45.37h64.831Z" transform="translate(49.956 21.708)" fill="#88c754"/>
    <path id="Caminho_429" data-name="Caminho 429" d="M2331,1452.047v5.819a.832.832,0,0,1-.7.82l-39.2,6.534v18.9l21.947,21.948,11.055,11.054a.842.842,0,0,1,.228.421.831.831,0,0,1-.044.476l-26.484,66.211,5.576,16.724.916,2.748,26.215,26.216h79.1l19.461-19.461V1597.5a.831.831,0,0,1,.244-.588l13.054-13.055V1557.6a.7.7,0,0,1,.014-.1c0-.01,0-.022,0-.033s.009-.018.011-.027c.006-.026.006-.052.013-.076s.024-.052.034-.078a.975.975,0,0,1,.064-.135c.007-.012.016-.021.023-.032s.02-.021.029-.034l.01-.01a.856.856,0,0,1,.091-.1.7.7,0,0,1,.084-.058.73.73,0,0,1,.088-.061l26.139-13.068v-38.551H2456.5a.83.83,0,0,1-.587-.244l-13.057-13.055h-25.908L2403.9,1505a.829.829,0,0,1-.587.244h-13.3a.834.834,0,0,1-.315-.063.818.818,0,0,1-.272-.181l-19.948-19.948a.791.791,0,0,1-.18-.27.832.832,0,0,1-.063-.318v-12.954l-19.461-19.461Z" transform="translate(32.315 5.854)" fill="#88c754"/>
    <path id="Caminho_430" data-name="Caminho 430" d="M2234.041,1653.023l52.514,13.128,12.723-12.722v-25.422h-25.767a.831.831,0,0,1-.832-.832v-32.9l-6.162-6.162h-32.071v12.468a.831.831,0,0,1-.832.832h-26.252l-11.636,11.636h17.94a.831.831,0,0,1,.832.831v19.6Z" transform="translate(15.828 29.375)" fill="#88c754"/>
    <path id="Caminho_431" data-name="Caminho 431" d="M2361.657,1473.516a.831.831,0,0,1,.244.588v12.955l19.116,19.115,32.071-32.071-19.359-19.359a.83.83,0,0,1-.244-.588V1435.04h-5.474l-19.7,19.7a.832.832,0,0,1-.588.243h-24.591Z" transform="translate(41.308 2.914)" fill="#88c754"/>
    <path id="Caminho_432" data-name="Caminho 432" d="M2110.032,1582.543l-5.863,5.863,12.8,25.6h39.382a.831.831,0,0,1,.832.832V1640.6h25.422l25.4-25.4Z" transform="translate(0 28.413)" fill="#88c754"/>
    <path id="Caminho_433" data-name="Caminho 433" d="M2315.118,1733.285l12.712-12.712a.831.831,0,0,1,.588-.243h39.9a.831.831,0,0,1,.832.83v12.468h11.636v-25.766a.831.831,0,0,1,.244-.588l26.458-26.458,6.544-19.634v-52.229h-78.961a.837.837,0,0,1-.588-.243l-25.781-25.783-6.135,12.268a.831.831,0,0,1-.743.46h-39.064v31.583h25.767a.833.833,0,0,1,.832.831v26.6a.817.817,0,0,1-.065.319.839.839,0,0,1-.179.27l-6.588,6.588-6.467,6.467v38.72h25.765a.831.831,0,0,1,.831.832v12.954Z" transform="translate(27.415 28.479)" fill="#88c754"/>
    <path id="Caminho_434" data-name="Caminho 434" d="M2256.838,1431.216a.834.834,0,0,1-.372.088H2217.4v25.422l6.162,6.162h19.6a.831.831,0,0,1,.831.832v32.9l19.116,19.117,26.01-26.01a.831.831,0,0,1,.588-.244h12.468V1471.2h-19.116a.831.831,0,0,1-.832-.832v-26.6a.83.83,0,0,1,.244-.588l12.711-12.712-12.288-12.287Z" transform="translate(19.575)" fill="#88c754"/>
    <path id="Caminho_435" data-name="Caminho 435" d="M2221.306,1622.531a.828.828,0,0,1,.586-.244h25.766V1609.82a.831.831,0,0,1,.831-.832h33.247a.832.832,0,0,1,.588.244l6.406,6.405h39.037l6.267-12.532-6.541-19.621a.823.823,0,0,1,.015-.571l26.4-65.984-32.616-32.615h-12.609l-26.355,26.354a.832.832,0,0,1-1.175,0l-19.948-19.949a.831.831,0,0,1-.244-.588v-32.414h-18.772l-19.705,19.7a.828.828,0,0,1-.588.243h-13.3a.828.828,0,0,1-.588-.243l-13.056-13.055H2169.53v12.468a.831.831,0,0,1-.244.588l-13.055,13.055v66.149a.832.832,0,0,1-.832.832h-12.953l-32.759,32.759v12.355l98.683,32.9Z" transform="translate(0.953 6.834)" fill="#88c754"/>
    <path id="Caminho_436" data-name="Caminho 436" d="M2603.26,1590.07h-25.1l-6.4,6.406a.83.83,0,0,1-1.175,0l-6.406-6.406h-12.954a.831.831,0,0,1-.831-.83v-12.468h-24.934v12.468a.832.832,0,0,1-.244.588l-12.71,12.71,12.123,12.123,12.71-12.71a.832.832,0,0,1,.588-.244h53.194a.829.829,0,0,1,.588.244l5.7,5.7Z" transform="translate(70.588 27.415)" fill="#88c754"/>
    <path id="Caminho_437" data-name="Caminho 437" d="M2590.76,1605.267l-5.82-5.819h-38.719v11.636h12.468a.833.833,0,0,1,.588.244l12.709,12.71Z" transform="translate(76.417 31.335)" fill="#88c754"/>
    <path id="Caminho_438" data-name="Caminho 438" d="M2570.811,1623.255l-12.468-12.468h-12.123v25.422l5.817,5.818Z" transform="translate(76.417 33.295)" fill="#88c754"/>
    <path id="Caminho_439" data-name="Caminho 439" d="M2547.92,1704.81v-39.7a.832.832,0,0,1,.244-.588l19.36-19.36-6.061-6.062a.83.83,0,0,1-.244-.588v-39.065H2549.1l-13.055,13.055a.833.833,0,0,1-1.176,0l-12.711-12.71-6.062,6.061a.834.834,0,0,1-.588.243h-26.253l-19.7,19.7a.83.83,0,0,1-1.175,0l-12.712-12.71-5.817,5.819v64.141l5.23-5.229a.816.816,0,0,1,.27-.181.84.84,0,0,1,.318-.063h26.6a.85.85,0,0,1,.328.067l46.544,19.948a.831.831,0,0,1,.5.765v13.3a.83.83,0,0,1-.244.587l-6.4,6.406v12.123h11.953Z" transform="translate(59.756 31.335)" fill="#88c754"/>
    <path id="Caminho_440" data-name="Caminho 440" d="M2526.705,1738.257v-25.422h-12.123L2508.42,1719v12.954a.838.838,0,0,1-.088.372l-12.7,25.394h11.609Z" transform="translate(67.672 50.935)" fill="#88c754"/>
    <path id="Caminho_441" data-name="Caminho 441" d="M2597.579,1567.835l-12.813-12.812h-12.954a.828.828,0,0,1-.587-.243l-6.061-6.061-17.941,17.941h11.292a.832.832,0,0,1,.832.83v12.468h11.633v-5.818a.832.832,0,0,1,.832-.831h25.767Z" transform="translate(76.59 22.565)" fill="#88c754"/>
    <path id="Caminho_442" data-name="Caminho 442" d="M2597.752,1572.083h-24.935v5.817a.831.831,0,0,1-.832.832h-13.3a.832.832,0,0,1-.832-.832v-12.468h-11.636v24.935h12.468a.834.834,0,0,1,.588.244l6.061,6.061,6.061-6.061a.829.829,0,0,1,.587-.244h25.767Z" transform="translate(76.417 25.454)" fill="#88c754"/>
    <path id="Caminho_443" data-name="Caminho 443" d="M2417.132,1858.636l-32.417-32.415h-25.907l-39.066,39.065,45.37,45.37Z" transform="translate(37.266 70.536)" fill="#88c754"/>
    <path id="Caminho_444" data-name="Caminho 444" d="M2334.708,1773.808v19.6l6.163,6.162h12.609l52.708-52.708v-12.484l-32.646-19.587h-13.068a.832.832,0,0,1-.832-.832V1701.5h-38.72l-12.812,12.811v58.67h25.767A.831.831,0,0,1,2334.708,1773.808Z" transform="translate(35.255 48.975)" fill="#88c754"/>
    <path id="Caminho_445" data-name="Caminho 445" d="M2419.762,1821.06l12.811-12.812v-5.956l-33.483-32.765h-31.834l-19.461,19.461V1814.9l6.162,6.162Z" transform="translate(42.116 60.736)" fill="#88c754"/>
    <path id="Caminho_446" data-name="Caminho 446" d="M2424.944,1846.953v-25.909l-6.162-6.162h-65.317v11.636h25.765a.837.837,0,0,1,.588.243l32.658,32.66Z" transform="translate(43.095 68.576)" fill="#88c754"/>
    <path id="Caminho_447" data-name="Caminho 447" d="M2498.259,1778.961l13.064-13.065,13.15-26.3v-13.1a.831.831,0,0,1,.244-.588l6.405-6.4v-12.956a.83.83,0,0,1,.244-.588l6.405-6.4v-12.407l-45.884-19.665h-26.082l-26.111,26.11v32.9a.831.831,0,0,1-.831.832h-32.9l-12.811,12.811v12.124h32.415a.835.835,0,0,1,.65.312l26.348,32.934h26.061Z" transform="translate(49.956 43.095)" fill="#88c754"/>
    <path id="Caminho_448" data-name="Caminho 448" d="M2449.895,1806.012l26.192-26.193,5.393-5.392h-24.59a.833.833,0,0,1-.65-.313l-26.348-32.934h-32.5l-26.312,26.312-5.272,5.272h31.239a.83.83,0,0,1,.588.244l33,33Z" transform="translate(45.229 55.836)" fill="#6784c1"/>
    <path id="Caminho_449" data-name="Caminho 449" d="M2494.058,1784.1l19.461-19.461V1752.52H2501.4l-13.057,13.055a.823.823,0,0,1-.325.2l-19.762,6.587-.075.076-11.665,11.665Z" transform="translate(60.91 57.796)" fill="#88c754"/>
  </g>
</svg>
