<svg id="sem-produto" xmlns="http://www.w3.org/2000/svg" width="140" height="140" viewBox="0 0 140 140">
  <g id="Retângulo_147" data-name="Retângulo 147" fill="none" stroke="#6784c1" stroke-width="1">
    <rect width="140" height="140" rx="4" stroke="none"/>
    <rect x="0.5" y="0.5" width="139" height="139" rx="3.5" fill="none"/>
  </g>
  <g id="Grupo_391" data-name="Grupo 391" transform="translate(-366 -864)">
    <g id="Grupo_390" data-name="Grupo 390" transform="translate(410 908)">
      <path id="Caminho_564" data-name="Caminho 564" d="M10,50H42a8,8,0,0,0,8-8V10a8,8,0,0,0-8-8H10a8,8,0,0,0-8,8V42A8,8,0,0,0,10,50Zm32-4H10a4,4,0,0,1-4-4V36.83l10-10L26.585,37.415a2,2,0,0,0,2.829,0h0L36,30.83l10,10V42A4,4,0,0,1,42,46ZM10,6H42a4,4,0,0,1,4,4V35.17l-8.585-8.585a2,2,0,0,0-2.829,0h0L28,33.17,17.415,22.585a2,2,0,0,0-2.829,0h0L6,31.17V10A4,4,0,0,1,10,6Z" fill="#6784c1"/>
      <path id="Caminho_565" data-name="Caminho 565" d="M49,32a7,7,0,1,0-7-7A7,7,0,0,0,49,32Zm0-10a3,3,0,1,1-3,3A3,3,0,0,1,49,22Z" transform="translate(-20 -8)" fill="#6784c1"/>
    </g>
  </g>
</svg>
