<svg xmlns="http://www.w3.org/2000/svg" xmlns:xlink="http://www.w3.org/1999/xlink" viewBox="0 0 23 24.32"><defs><style>.cls-1{fill:none;}.cls-2{isolation:isolate;}.cls-3{fill:#449e6f;}.cls-4{mix-blend-mode:multiply;}.cls-5{clip-path:url(#clip-path);}.cls-6{clip-path:url(#clip-path-2);}.cls-7{fill:#b0c92b;}</style><clipPath id="clip-path"><rect id="SVGID" class="cls-1" x="2.28" y="21.79" width="18.66" height="2.52"/></clipPath><clipPath id="clip-path-2"><rect id="SVGID-2" data-name="SVGID" class="cls-1" x="2.28" y="21.79" width="18.66" height="2.52"/></clipPath></defs><g class="cls-2"><g id="Camada_2" data-name="Camada 2"><g id="Camada_1-2" data-name="Camada 1"><path class="cls-3" d="M22.32,9H21.2a.35.35,0,0,1-.35-.35V4.11L18.69,2.16,16.47,4.25V7.88a.35.35,0,0,1-.35.35.35.35,0,0,1-.35-.35V4.1a.34.34,0,0,1,.11-.25l2.56-2.42a.35.35,0,0,1,.48,0l2.52,2.27a.39.39,0,0,1,.11.27V8.27h.77a.34.34,0,0,1,.35.35.35.35,0,0,1-.35.35"/><g class="cls-4"><g class="cls-5"><g class="cls-6"><path class="cls-3" d="M3,22.33h.2l.7,2H3.66l-.17-.55H2.7l-.18.55H2.28Zm.42,1.22-.32-.92-.32.92Z"/><path class="cls-3" d="M4.64,22.3a4.6,4.6,0,0,1,.68.08v.16s-.42,0-.68,0-.44.26-.44.81.12.8.45.81A1.84,1.84,0,0,0,5.17,24v-.54H4.71v-.13a1.61,1.61,0,0,1,.47-.07h.18v1H5.21l0-.13a1.13,1.13,0,0,1-.52.14c-.56,0-.64-.44-.64-1s.09-1,.63-1"/><path class="cls-3" d="M5.68,22.32h.84c.25,0,.45.15.45.6s-.26.55-.34.56l.42.82H6.83l-.42-.81-.53,0v.85h-.2Zm.84,1c.12,0,.25,0,.25-.36s-.13-.39-.25-.39H5.88v.75Z"/><path class="cls-3" d="M8,22.31c.47,0,.76.09.76,1s-.27,1-.76,1-.76-.09-.76-1,.31-1,.76-1m0,1.8c.42,0,.56-.11.56-.78s-.19-.82-.56-.82-.56,0-.56.82.14.78.56.78"/><path class="cls-3" d="M9.05,22.32h.81c.21,0,.47.09.47.58s-.27.6-.47.6-.6-.05-.61-.06v.86h-.2Zm.81,1c.14,0,.27,0,.27-.4s-.18-.37-.27-.37H9.25v.77Z"/><path class="cls-3" d="M10.67,22.68a.32.32,0,0,1,.34-.36l.85.05v.15H11c-.14,0-.14.08-.14.16v.53l.88,0v.16l-.88,0V24c0,.14.09.14.17.14h.82v.15l-.82,0c-.18,0-.37,0-.37-.34Z"/><path class="cls-3" d="M12.79,22.3a6,6,0,0,1,.66.07v.16s-.41,0-.66,0-.46.16-.46.81c0,.44.1.81.46.81l.66,0v.16a5.76,5.76,0,0,1-.66.06c-.5,0-.66-.43-.66-1s.12-1,.66-1"/><path class="cls-3" d="M13.76,22.32H14v1.12c0,.69.21.67.53.67s.51,0,.51-.67V22.32h.21v1.12c0,.87-.39.87-.72.87s-.73,0-.73-.87Z"/><path class="cls-3" d="M16.09,22.32h.2l.7,2h-.24l-.17-.55h-.79l-.18.55h-.24Zm.42,1.23-.32-.92-.32.92Zm-.12-1.76h.26l-.36.36H16.1Z"/><path class="cls-3" d="M17.22,22.32h.84c.26,0,.46.15.46.6s-.27.55-.35.56l.42.82h-.22L18,23.49l-.54,0v.85h-.2Zm.84,1c.12,0,.25,0,.25-.36s-.13-.39-.25-.39h-.64v.75Z"/><rect class="cls-3" x="18.87" y="22.32" width="0.2" height="1.97"/><path class="cls-3" d="M20.17,22.31c.47,0,.76.09.76,1s-.27,1-.76,1-.76-.09-.76-1,.31-1,.76-1m0,1.8c.43,0,.57-.11.57-.78s-.2-.82-.57-.82-.56,0-.56.82.14.78.56.78"/></g></g></g><path class="cls-3" d="M.35,19.21a.33.33,0,0,1-.21-.07.36.36,0,0,1-.07-.5c1.51-1.93,4.26-3,8.42-3.21,1.71-.1,3.23,0,4.57,0,2.87.1,4.94.18,6.74-1.25C22.08,12.38,22,8.75,22,8.71a.35.35,0,0,1,.34-.36.36.36,0,0,1,.36.34c0,.17.09,4-2.46,6.05-2,1.59-4.3,1.51-7.21,1.4a44.63,44.63,0,0,0-4.5,0C4.59,16.35,2,17.32.63,19.08a.34.34,0,0,1-.28.13"/><path class="cls-7" d="M2.32,19.25a.31.31,0,0,1-.24-.1.35.35,0,0,1,0-.5c.09-.09,2.39-2.38,9.14-1.95,8.2.53,9.63-.53,11.13-3.28a.35.35,0,0,1,.48-.14.35.35,0,0,1,.14.47c-1.62,3-3.23,4.21-11.79,3.66-6.38-.42-8.58,1.71-8.6,1.74a.39.39,0,0,1-.25.1"/><path class="cls-7" d="M14.1,15.25a2.1,2.1,0,1,1,2.1-2.1,2.1,2.1,0,0,1-2.1,2.1m0-3.46a1.36,1.36,0,1,0,1.36,1.36,1.36,1.36,0,0,0-1.36-1.36"/><path class="cls-7" d="M6.21,15.29a2.93,2.93,0,1,1,2.93-2.93,2.93,2.93,0,0,1-2.93,2.93m0-5.1a2.17,2.17,0,1,0,2.17,2.17,2.18,2.18,0,0,0-2.17-2.17"/><path class="cls-3" d="M16.12,11a.31.31,0,0,1-.3-.31V9.3a.31.31,0,0,1,.61,0v1.35a.31.31,0,0,1-.31.31"/><path class="cls-3" d="M9.84,11.83a.31.31,0,0,1,.3-.31h1.35a.31.31,0,0,1,.31.31.3.3,0,0,1-.31.3H10.14a.3.3,0,0,1-.3-.3"/><path class="cls-7" d="M10.27,1.57a.25.25,0,0,1-.19-.09,2.89,2.89,0,0,0-4.15-.14A.26.26,0,1,1,5.57,1a3.4,3.4,0,0,1,4.9.17.26.26,0,0,1,0,.37.24.24,0,0,1-.18.07"/><path class="cls-7" d="M9.8,2.33a.27.27,0,0,1-.2-.09A2.21,2.21,0,0,0,6.4,2.1.27.27,0,0,1,6,2.1a.27.27,0,0,1,0-.38,2.74,2.74,0,0,1,4,.18.27.27,0,0,1,0,.37.27.27,0,0,1-.17.06"/><path class="cls-7" d="M9.31,3.08A.26.26,0,0,1,9.1,3a1.53,1.53,0,0,0-1.16-.55,1.49,1.49,0,0,0-1,.42.27.27,0,0,1-.38,0,.26.26,0,0,1,0-.37,2,2,0,0,1,3,.18.26.26,0,0,1,0,.37.27.27,0,0,1-.16.06"/><path class="cls-3" d="M14.79,10.9H9.71a.75.75,0,0,1-.6-.32,3.54,3.54,0,0,0-3.84-1.4A.74.74,0,0,1,4.57,9a.7.7,0,0,1-.14-.71l.8-2.37H4.88a.36.36,0,0,1-.35-.35v-.9a.73.73,0,0,1,.73-.72h5.92a.72.72,0,0,1,.72.72v.62a.73.73,0,0,1-.72.73h-.42l.53,1.89c.33.06,1,.15,2.18.29,1.93.24,2,1,2,1.19v.84a.73.73,0,0,1-.73.73M6.25,8.37a4,4,0,0,1,3.44,1.81h5.1l0-.84c0-.06-.26-.37-1.43-.51L11.2,8.56A.72.72,0,0,1,10.61,8l-.54-1.86a.7.7,0,0,1,.11-.64.73.73,0,0,1,.58-.29h.42l0-.64-5.94,0,0,.57h.07l.36,0h0c.25,0,.36.11.35.35a.4.4,0,0,1,0,.15l-1,2.79.1.37-.07-.35a5.93,5.93,0,0,1,1.13-.12m8.56,1h0Z"/><path class="cls-3" d="M9.67,8.15H9.58l-2.92-1a.28.28,0,0,1-.21-.28V5.52a.29.29,0,0,1,.3-.29H9.09a.29.29,0,0,1,.28.22L10,7.79a.3.3,0,0,1-.09.28.26.26,0,0,1-.2.08M7,6.7l2.21.71L8.86,5.82H7Z"/></g></g></g></svg>