<svg xmlns="http://www.w3.org/2000/svg" viewBox="0 0 21.12 18.97"><defs><style>.cls-1{fill:#49a8b1;}.cls-2{fill:#4ea8b2;}.cls-3{fill:#2472b6;}</style></defs><g id="Camada_2" data-name="Camada 2"><g id="Camada_1-2" data-name="Camada 1"><path class="cls-1" d="M2.48,17a5.76,5.76,0,0,1,.66.06v.16l-.66,0c-.33,0-.46.15-.46.8,0,.45.1.81.46.81l.66,0v.16a5.76,5.76,0,0,1-.66.06c-.5,0-.65-.43-.65-1s.12-1,.65-1"/><path class="cls-1" d="M4.1,17c.46,0,.76.09.76,1s-.28,1-.76,1-.77-.08-.77-1,.31-1,.77-1m0,1.8c.42,0,.56-.11.56-.78s-.2-.82-.56-.82-.57,0-.57.82.14.78.57.78"/><polygon class="cls-1" points="5.2 16.98 5.4 16.98 6.45 18.58 6.45 16.98 6.65 16.98 6.65 18.95 6.45 18.95 5.4 17.35 5.4 18.95 5.2 18.95 5.2 16.98"/><path class="cls-1" d="M7,17.44c0-.39.23-.48.53-.48A6.21,6.21,0,0,1,8.2,17v.16l-.68,0c-.18,0-.33,0-.33.28v.18c0,.24.11.26.28.26h.38c.36,0,.42.25.42.47v.18c0,.38-.28.44-.55.44s-.55,0-.67-.06v-.17c.11,0,.42,0,.67,0s.35,0,.35-.24v-.18c0-.16-.05-.27-.22-.27H7.47c-.43,0-.48-.23-.48-.46Z"/><path class="cls-1" d="M8.61,17h.2v1.11c0,.69.21.68.53.68s.51,0,.51-.68V17h.21v1.11c0,.87-.4.87-.72.87s-.73,0-.73-.87Z"/><polygon class="cls-1" points="10.5 16.98 10.77 16.98 11.3 18.62 11.81 16.98 12.08 16.98 12.23 18.95 12.03 18.95 11.91 17.34 11.4 18.95 11.2 18.95 10.67 17.34 10.57 18.95 10.37 18.95 10.5 16.98"/><path class="cls-1" d="M13.29,17c.47,0,.76.09.76,1s-.27,1-.76,1-.76-.08-.76-1,.31-1,.76-1m0,1.8c.43,0,.57-.11.57-.78s-.2-.82-.57-.82-.56,0-.56.82.14.78.56.78"/><path class="cls-2" d="M4.09,12.56H.32a.35.35,0,0,1-.24-.1A.33.33,0,0,1,0,12.21L.91,2.84a.32.32,0,0,1,.32-.29H9.88a.33.33,0,0,1,.32.28l.44,3.59a.31.31,0,0,1-.27.35A.31.31,0,0,1,10,6.5L9.6,3.19H1.52L.67,11.93H4.09c3.29,0,5.18-1.93,7.18-4C13.6,5.58,16,3.12,20.81,3.24a.33.33,0,0,1,.31.33.32.32,0,0,1-.33.31C16.26,3.76,14,6.12,11.72,8.41c-2.09,2.13-4.07,4.15-7.63,4.15"/><path class="cls-2" d="M7.7,4a.31.31,0,0,1-.32-.31C7.38,2.57,7.13.64,5.49.64S3.6,2.57,3.6,3.72A.31.31,0,0,1,3.28,4,.32.32,0,0,1,3,3.72C3,1.35,3.88,0,5.49,0S8,1.35,8,3.72A.32.32,0,0,1,7.7,4"/><path class="cls-3" d="M10.65,11.06a.35.35,0,0,1-.27-.14.32.32,0,0,1,.07-.46,17.49,17.49,0,0,0,1.91-1.82C14,6.93,15.83,5,18.5,4.63a.34.34,0,0,1,.38.29.35.35,0,0,1-.29.38c-2.44.33-4.2,2.17-5.74,3.8a17.21,17.21,0,0,1-2,1.89.31.31,0,0,1-.2.07"/></g></g></svg>