<svg xmlns="http://www.w3.org/2000/svg" viewBox="0 0 22.1 18.26"><defs><style>.cls-1{fill:#525ca3;}.cls-2{fill:#a1abd5;}</style></defs><g id="Camada_2" data-name="Camada 2"><g id="Camada_1-2" data-name="Camada 1"><path class="cls-1" d="M5.73,16.24a6,6,0,0,1,.66.07v.16s-.41,0-.66,0-.46.16-.46.81c0,.44.1.81.46.81l.66,0v.16a5.76,5.76,0,0,1-.66.06c-.5,0-.66-.43-.66-1s.13-1,.66-1"/><path class="cls-1" d="M6.65,16.26h.84c.25,0,.45.15.45.6s-.26.55-.34.56l.42.82H7.8l-.41-.81-.54,0v.85h-.2Zm.84,1c.12,0,.25,0,.25-.36s-.13-.39-.25-.39H6.85v.75Z"/><path class="cls-1" d="M8.3,16.62a.32.32,0,0,1,.34-.36l.85,0v.15H8.64c-.14,0-.14.08-.14.16v.54l.89,0v.16l-.89,0v.54c0,.14.09.14.17.14h.82v.15l-.82.05c-.18,0-.37,0-.37-.34Zm.85-.88H9.4l-.35.36H8.86Z"/><path class="cls-1" d="M9.83,16.27h.74c.6,0,.7.59.7,1s-.18,1-.7,1H9.83ZM10.57,18c.35,0,.5-.36.5-.77,0-.58-.19-.8-.5-.8H10V18Z"/><rect class="cls-1" x="11.6" y="16.27" width="0.2" height="1.97"/><polygon class="cls-1" points="12.09 16.27 13.46 16.27 13.46 16.46 12.87 16.46 12.87 18.24 12.66 18.24 12.66 16.46 12.09 16.46 12.09 16.27"/><path class="cls-1" d="M14.41,16.25c.47,0,.76.09.76,1s-.27,1-.76,1-.76-.09-.76-1,.31-1,.76-1m0,1.8c.42,0,.56-.11.56-.78s-.19-.82-.56-.82-.56,0-.56.82.14.78.56.78"/><path class="cls-2" d="M5.66,11.48a.36.36,0,0,1,0-.71c7.3-.49,12.2-3.81,15-10.16a.36.36,0,0,1,.46-.18.35.35,0,0,1,.18.46C18.4,7.41,13.16,11,5.68,11.47h0"/><path class="cls-2" d="M9.79,9.24H4a2.05,2.05,0,0,1-2-2V2.26a2,2,0,0,1,2-2H14.36a2,2,0,0,1,2.05,2V5.43a.36.36,0,0,1-.35.36.35.35,0,0,1-.35-.36V2.26A1.35,1.35,0,0,0,14.36.92H4A1.35,1.35,0,0,0,2.63,2.26V7.19A1.36,1.36,0,0,0,4,8.54H9.79a.34.34,0,0,1,.35.35.35.35,0,0,1-.35.35"/><path class="cls-2" d="M21.75,2.71a.34.34,0,0,1-.33-.25L20.91.83l-1.48.66A.36.36,0,0,1,19,1.32a.36.36,0,0,1,.18-.47L21,0a.37.37,0,0,1,.29,0,.35.35,0,0,1,.19.22l.63,2a.36.36,0,0,1-.23.44l-.11,0"/><path class="cls-1" d="M9.46,2.46v.29a1.67,1.67,0,0,1,.5.12,1,1,0,0,1,.36.27,1.32,1.32,0,0,1,.19.29.65.65,0,0,1,.06.26.33.33,0,0,1-.1.24.32.32,0,0,1-.23.09.34.34,0,0,1-.35-.28.6.6,0,0,0-.43-.45V4.41a5.13,5.13,0,0,1,.54.17,1,1,0,0,1,.35.22,1.1,1.1,0,0,1,.26.35,1.14,1.14,0,0,1,.09.46,1.26,1.26,0,0,1-.14.57,1.13,1.13,0,0,1-.43.44,1.55,1.55,0,0,1-.67.2v.3a.67.67,0,0,1,0,.23c0,.05-.06.07-.13.07a.16.16,0,0,1-.14-.06.3.3,0,0,1,0-.18V6.83a2.1,2.1,0,0,1-.55-.15,1.3,1.3,0,0,1-.39-.28,1.1,1.1,0,0,1-.24-.35.92.92,0,0,1-.07-.36A.29.29,0,0,1,8,5.46a.34.34,0,0,1,.25-.11.37.37,0,0,1,.21.06.31.31,0,0,1,.11.16,2.77,2.77,0,0,0,.13.34.67.67,0,0,0,.45.36V5a2.93,2.93,0,0,1-.6-.22,1,1,0,0,1-.4-.35A1,1,0,0,1,8,3.86a1,1,0,0,1,.3-.76,1.33,1.33,0,0,1,.85-.35V2.47c0-.15.06-.23.17-.23s.17.07.17.22M9.12,4.31v-1a.77.77,0,0,0-.35.18.39.39,0,0,0-.13.33.41.41,0,0,0,.12.32,1,1,0,0,0,.36.2m.34.8V6.3a.77.77,0,0,0,.43-.22A.6.6,0,0,0,10,5.69a.45.45,0,0,0-.14-.36,1.32,1.32,0,0,0-.43-.22"/><path class="cls-1" d="M3.87,12.88a20.2,20.2,0,0,1-3.58-.31A.35.35,0,0,1,0,12.16a.34.34,0,0,1,.41-.28,22.26,22.26,0,0,0,13.43-2,.36.36,0,0,1,.48.14.35.35,0,0,1-.14.47A22.78,22.78,0,0,1,3.87,12.88"/></g></g></svg>