<svg xmlns="http://www.w3.org/2000/svg" viewBox="0 0 23.03 20.71"><defs><style>.cls-1{fill:#f6a843;}.cls-2{fill:#fddb35;}</style></defs><g id="Camada_2" data-name="Camada 2"><g id="Camada_1-2" data-name="Camada 1"><path class="cls-1" d="M19.1,12.05a.35.35,0,0,1-.35-.3L17.92,5.3l-.7,6.31a.35.35,0,0,1-.35.31H13.78a.35.35,0,0,1-.35-.35V6.19L11.27,4.24l-.62.58v5.85a.35.35,0,0,1-.35.35H8.7a.34.34,0,0,1-.35-.35V6.18a.36.36,0,0,1,.11-.25L10,4.52V.7H4.56V11a.35.35,0,0,1-.35.36A.36.36,0,0,1,3.86,11V.35A.35.35,0,0,1,4.21,0H10.3a.35.35,0,0,1,.35.35V3.86L11,3.51a.35.35,0,0,1,.48,0L14,5.78a.35.35,0,0,1,.11.26v5.18h2.42l1-8.91A.35.35,0,0,1,17.9,2h0a.35.35,0,0,1,.35.3l1.2,9.36a.35.35,0,0,1-.31.39h0m-10-1.73H10V5.49l-.9.85Z"/><path class="cls-2" d="M17,2.06h-.2a.18.18,0,0,1-.17-.18.19.19,0,0,1,.19-.17A5.93,5.93,0,0,0,21.06.09a.18.18,0,0,1,.25,0,.18.18,0,0,1,0,.25A6.1,6.1,0,0,1,17,2.06"/><path class="cls-2" d="M18.81,2.64h-.06a.18.18,0,0,1-.17-.18.19.19,0,0,1,.19-.17A5.49,5.49,0,0,0,22.69.38a.18.18,0,0,1,.25,0,.18.18,0,0,1,0,.25,5.9,5.9,0,0,1-4.14,2"/><path class="cls-1" d="M19.77,3.17h-.09L15.06,2a.35.35,0,1,1,.17-.68l4.62,1.12a.36.36,0,0,1-.08.7"/><rect class="cls-1" x="0.75" y="18.71" width="0.2" height="1.97"/><polygon class="cls-1" points="1.33 18.71 1.53 18.71 2.58 20.31 2.58 18.71 2.79 18.71 2.79 20.68 2.58 20.68 1.53 19.08 1.53 20.68 1.33 20.68 1.33 18.71"/><path class="cls-1" d="M3.16,19.06a.31.31,0,0,1,.34-.35l.86,0v.16H3.5c-.14,0-.14.08-.14.15v.54l.89,0v.16l-.89,0v.87h-.2Z"/><path class="cls-1" d="M4.64,18.71h.84c.26,0,.46.15.46.59s-.27.56-.35.57l.42.81H5.79l-.41-.8-.54,0v.84h-.2Zm.84.95c.12,0,.25,0,.25-.36s-.13-.39-.25-.39H4.84v.75Z"/><path class="cls-1" d="M6.92,18.71h.2l.7,2H7.58l-.17-.55H6.62l-.18.55H6.2Zm.42,1.22L7,19l-.32.92Z"/><path class="cls-1" d="M8,19.06a.31.31,0,0,1,.34-.35l.85,0v.16H8.36c-.14,0-.14.08-.14.15v.54l.88,0v.16l-.88,0v.54c0,.15.09.14.17.14h.82v.16l-.82,0c-.18,0-.37,0-.37-.34Z"/><path class="cls-1" d="M9.51,19.17c0-.39.23-.48.53-.48s.58.06.68.07v.16l-.68,0c-.18,0-.33,0-.33.28v.18c0,.25.11.27.28.27h.38c.36,0,.42.24.42.46v.18c0,.39-.28.45-.55.45s-.55-.05-.67-.07v-.16c.11,0,.42,0,.67,0s.35,0,.35-.25v-.18c0-.15-.05-.26-.22-.26H10c-.43,0-.48-.24-.48-.47Z"/><polygon class="cls-1" points="10.98 18.71 12.35 18.71 12.35 18.91 11.76 18.91 11.76 20.68 11.55 20.68 11.55 18.91 10.98 18.91 10.98 18.71"/><path class="cls-1" d="M12.58,18.71h.84c.26,0,.46.15.46.59s-.27.56-.35.57l.42.81h-.22l-.41-.8-.54,0v.84h-.2Zm.84.95c.12,0,.25,0,.25-.36s-.13-.39-.25-.39h-.64v.75Z"/><path class="cls-1" d="M14.23,18.71h.2v1.11c0,.69.22.68.53.68s.52,0,.52-.68V18.71h.2v1.11c0,.87-.39.88-.72.88s-.73,0-.73-.88Z"/><polygon class="cls-1" points="15.96 18.71 17.34 18.71 17.34 18.91 16.74 18.91 16.74 20.68 16.54 20.68 16.54 18.91 15.96 18.91 15.96 18.71"/><path class="cls-1" d="M17.62,18.71h.2v1.11c0,.69.21.68.53.68s.52,0,.52-.68V18.71h.2v1.11c0,.87-.39.88-.72.88s-.73,0-.73-.88Z"/><path class="cls-1" d="M19.39,18.71h.84c.26,0,.46.15.46.59s-.27.56-.34.57l.41.81h-.21l-.42-.8-.54,0v.84h-.2Zm.84.95c.13,0,.26,0,.26-.36s-.14-.39-.26-.39h-.64v.75Z"/><path class="cls-1" d="M21.68,18.71h.2l.69,2h-.24l-.17-.55h-.78l-.18.55H21Zm.41,1.22L21.77,19l-.32.92Z"/><path class="cls-2" d="M16.18,13.91A14.45,14.45,0,0,1,11.46,13C2,9.79.7,13.08.68,13.12a.35.35,0,0,1-.44.21A.35.35,0,0,1,0,12.89a2.72,2.72,0,0,1,1.45-1.4c1.44-.71,4.38-1.14,10.22.87,4.61,1.58,7.29.63,8.73-.44a4,4,0,0,0,1.67-2.26.34.34,0,0,1,.29-.4.34.34,0,0,1,.4.29,4,4,0,0,1-1.6,2.66,7.4,7.4,0,0,1-5,1.7"/><path class="cls-1" d="M16.86,15.44a21.1,21.1,0,0,1-7.7-1.74c-5.49-2.23-7.36-.28-7.37-.26a.36.36,0,0,1-.5,0,.35.35,0,0,1,0-.49c.08-.1,2.16-2.37,8.16.06,2.87,1.16,9.86,3.42,13-.56a.33.33,0,0,1,.49-.06.35.35,0,0,1,.06.49c-1.31,1.68-3.42,2.53-6.09,2.53"/><path class="cls-2" d="M18,2.28a.16.16,0,0,0-.24,0A8.61,8.61,0,0,1,12,4l.42.38h.23A8.71,8.71,0,0,0,18,2.53a.17.17,0,0,0,0-.25"/><path class="cls-2" d="M10.64,2.92a10.54,10.54,0,0,0,2.16.24,5.48,5.48,0,0,0,3.52-1,.18.18,0,0,0,0-.25.18.18,0,0,0-.25,0s-1.7,1.44-5.44.65Z"/></g></g></svg>