<svg xmlns="http://www.w3.org/2000/svg" xmlns:xlink="http://www.w3.org/1999/xlink" viewBox="0 0 506.27 342.41"><defs><style>.cls-1{fill:none;}.cls-2{fill:#fad57b;}.cls-10,.cls-14,.cls-16,.cls-2,.cls-20,.cls-21,.cls-22,.cls-23,.cls-26,.cls-27,.cls-28,.cls-29,.cls-32,.cls-33,.cls-34,.cls-4,.cls-5,.cls-7,.cls-8{fill-rule:evenodd;}.cls-3{clip-path:url(#clip-path);}.cls-4{fill:#f59e00;}.cls-18,.cls-5{fill:#2b61ab;}.cls-6{clip-path:url(#clip-path-2);}.cls-7{fill:#1d4882;}.cls-8{fill:#1a3f73;}.cls-9{fill:#f59f00;}.cls-11{fill:#b1baca;}.cls-12,.cls-23{fill:#fff;}.cls-13,.cls-14{fill:#f9c1b6;}.cls-15{clip-path:url(#clip-path-3);}.cls-16{fill:#ece8e9;}.cls-17{clip-path:url(#clip-path-4);}.cls-19,.cls-21{fill:#3e73bf;}.cls-20{fill:#6396e3;}.cls-22,.cls-24{fill:#193f73;}.cls-25{fill:#1c243e;}.cls-26{fill:#fabdb4;}.cls-27{fill:#ffa59b;}.cls-28{fill:#fff4ec;}.cls-29{fill:#ffa389;}.cls-30{clip-path:url(#clip-path-5);}.cls-31{clip-path:url(#clip-path-6);}.cls-32{fill:#7195ce;}.cls-33{fill:#ffa49b;}.cls-34{fill:#ff989c;}.cls-35{clip-path:url(#clip-path-7);}.cls-36{fill:#eceeee;}.cls-37{clip-path:url(#clip-path-8);}</style><clipPath id="clip-path"><path class="cls-1" d="M408.43,241.53c-30.87-10.9-51.35,33.35-20.88,63.72,18.06,18,60.4,15.14,56.23-18.64S477.11,289,478.4,256.9s2.42-19.91,19.88-32.72c6.08-4.46,11-13.6,5.82-23.56-5.51-10.66-20.55-8.71-26.48-2.78-15.43,15.4-4.27,18.94-34.57,14S439.29,252.42,408.43,241.53Z"/></clipPath><clipPath id="clip-path-2"><path class="cls-1" d="M56.19,294.21c-7.84,32.59,38.06,44.32,65.28,8.38,16.14-21.3,9.2-62.58-23.94-52s-.89-33.39-32.82-28.5-20,1.43-34.4-13.36c-5-5.15-14.57-8.23-24-1.22-10,7.5-6.66,22-.21,26.7,16.78,12.28,19.22.58,17.23,31.46S64,261.63,56.19,294.21Z"/></clipPath><clipPath id="clip-path-3"><path class="cls-1" d="M403.37,310.63a18.17,18.17,0,0,1-3.52,2.35c-.31.13-1.26,2-.24,2,.66,0,10-.73,12.53-1.58a8.75,8.75,0,0,0,.06-2.17c0-.91-.74-1.37-.9-2.24s-.87.19-1.58,0-1.38,1.37-1.31.54c.14-1.65-2-2.06-2.83-1.81C404.54,308.07,404.29,309.79,403.37,310.63Z"/></clipPath><clipPath id="clip-path-4"><path class="cls-1" d="M380.9,305.86s-.78,2.92-8.27,4.49a12.71,12.71,0,0,1-1.52.27,16.2,16.2,0,0,0-.56,1.92c.47.6,1.78.56,2.48.61a16.93,16.93,0,0,0,7.42-.79c2-.8,4.48.14,6.54-.5a8.52,8.52,0,0,0,.4-1.92,17.79,17.79,0,0,0-.39-2.41c-.11-.8-1.12-.6-1.62-.25a3.62,3.62,0,0,1-1.24.8,8.53,8.53,0,0,1-2.08-.07,3.71,3.71,0,0,0-1.32.46,5,5,0,0,0,1.2-1.78c0-.11.13-.51,0-.61S381.19,306,380.9,305.86Z"/></clipPath><clipPath id="clip-path-5"><path class="cls-1" d="M210.18,83.23s31.91,20,33.88,27.41c.41,1.54,4.69,28.2,4.72,32.68l-10.1,2.82s-7.72-19.69-9.78-32.08L205.67,104S197.79,84.24,210.18,83.23Z"/></clipPath><clipPath id="clip-path-6"><path class="cls-1" d="M208.51,72.39s.31,8.74.63,9.75c.21.67,12.73,3.33,19.27,4.39,11.21,1.81,22.65,5,34,6.06,4.56.42,19.09,1.39,20.27,1.58.12,0-1.38,9.71-1.38,9.71s-10.69,3.46-24.54-1.06a3,3,0,0,0-1.39-.34c-2.6.47-26.38,2.09-38.53,3.31-32,3.2-31.72-11.46-31.58-14.84.06-1.46,1-15.45,1-15.45S200.78,73.77,208.51,72.39Z"/></clipPath><clipPath id="clip-path-7"><path class="cls-1" d="M300.86,98c-.35,0-2.43,0-.42-1.4a11.41,11.41,0,0,0,4-7.8c.2-2,.32-2.34,1.22-3.21.62-.61,1.36,0,2-.13-1.5,12.29-5.13,16.73-5.61,17.2-1.72-.64-1.42-1.4-2.29-1.3C299.37,101,300.37,98.77,300.86,98Z"/></clipPath><clipPath id="clip-path-8"><path class="cls-1" d="M247.07,156.06c.19-.29,1.27-2.07,1.52.33a11.26,11.26,0,0,0,5.15,7.25c1.78,1.15,2,1.42,2.36,2.61.24.83-.67,1.18-.92,1.75-10.64-7.31-12.88-12.58-13.06-13.23,1.49-1.15,2-.51,2.4-1.31C245.08,153.33,246.62,155.28,247.07,156.06Z"/></clipPath></defs><g id="Camada_2" data-name="Camada 2"><g id="OBJECTS"><path class="cls-2" d="M408.43,241.53c-30.87-10.9-51.35,33.35-20.88,63.72,18.06,18,60.4,15.14,56.23-18.64S477.11,289,478.4,256.9s2.42-19.91,19.88-32.72c6.08-4.46,11-13.6,5.82-23.56-5.51-10.66-20.55-8.71-26.48-2.78-15.43,15.4-4.27,18.94-34.57,14S439.29,252.42,408.43,241.53Z"/><g class="cls-3"><path class="cls-4" d="M440.5,255.78l2.26-1.88c7.81-6.5,15.52-13.19,23-20.18l.48-.45,6.17-6,2.15-2.15c5.55-5.51,11-11.1,16.9-16.22l.31-1.14-.92-.14c-6.27,4.78-12.18,10.06-18.2,15.23l-2.3,2-5.43,4.76-1,.89-3.4,3.08c-6.15,5.54-12.35,10.89-18.59,16.13.36-2.6.47-5.28.71-7.87.34-3.82.64-7.64,1-11.47,0,0,.33-5.66.65-9.84,0,0,.05-.51-.44-.07-1.25,9-2,17.95-2.94,27.17-.12,1.13-.26,2.26-.47,3.36-12.93,10.82-26,21.25-39,32.22l-.67.57c.11-.83.19-1.67.27-2.51l0-.22c.31-9-.78-18-.39-27l-.67-1-.75.68c-.58,8.91.31,17.89-.09,26.86,0,0,0,2.1-.12,4.65-11.18,9.4-22.42,18.73-33.9,27.77l-4,3.7c-.53.79-.53.79-1.09,1.57l-.42,2,2,.16s.87-.35,2.07-.76l3.94-2.67c13.44-10.68,26.61-21.82,39.73-33,3.35,1.52,6.77,2.84,10.21,4.12l3.86,1.36,2.37.75,1.13.33,2.58.78,1.83.58.7-.32a1.62,1.62,0,0,0-.71-.91c-2.13-1-5-2.21-5-2.21l-2.34-.91c-4.48-1.52-9-2.89-13.39-4.61,10-8.49,19.87-17,29.85-25.38a138,138,0,0,1,23.17-2.23s3.91-.22,6.55-.26c0,0,.76-.48-.5-.59-2.51-.22-6-.41-6-.41A130.2,130.2,0,0,0,440.5,255.78Z"/></g><path class="cls-5" d="M56.19,294.21c-7.84,32.59,38.06,44.32,65.28,8.38,16.14-21.3,9.2-62.58-23.94-52s-.89-33.39-32.82-28.5-20,1.43-34.4-13.36c-5-5.15-14.57-8.23-24-1.22-10,7.5-6.66,22-.21,26.7,16.78,12.28,19.22.58,17.23,31.46S64,261.63,56.19,294.21Z"/><g class="cls-6"><path class="cls-7" d="M67.25,259.78l-2.09-1.86C58,251.45,50.57,245.11,42.9,239.06l-.48-.39-6.56-4.93L33.51,232c-6-4.43-12.08-8.76-17.73-13.58l-1.17-.08c0,.31,0,.62,0,.93,5.36,5.27,11.17,10.11,16.88,15.05l2.19,1.9,5.25,4.45,1,.84,3.37,2.76c6.1,5,12,10.11,17.81,15.27-2.62.14-5.28.54-7.88.8-3.82.4-7.65.84-11.47,1.26,0,0-5.66.77-9.84,1.25,0,0-.51.05,0,.45,9.07-.49,18-1.45,27.26-2.32,1.13-.1,2.27-.17,3.38-.18,12,10.69,23.6,21.6,35.75,32.35.21.18.42.36.62.55-.83.06-1.67.13-2.5.22l-.23,0c-9,1.43-17.83,4.24-26.78,5.57l-.92.86.75.61c8.89-1.14,17.72-3.74,26.67-5.07,0,0,2.08-.43,4.63-.78,10.41,9.24,20.75,18.56,30.84,28.15l4,3.23c.84.37.84.37,1.66.77l2.05,0s0-1.33,0-2c0,0-.43-.8-.94-1.91l-3-3.37c-11.9-11.23-24.22-22.11-36.6-32.91,1.19-3.6,2.17-7.24,3.1-10.88l1-4.08c.22-1.08.51-2.48.51-2.48.07-.4.14-.79.22-1.18.17-.9.34-1.8.52-2.7.26-1.29.4-1.92.4-1.92l-.39-.63a1.77,1.77,0,0,0-.82.88c-.77,2.28-1.72,5.4-1.72,5.4-.32,1.15-.67,2.48-.67,2.48-1.08,4.71-2,9.43-3.29,14.11-9.39-8.2-18.8-16.36-28.07-24.61a130.74,130.74,0,0,1-4.45-22.46s-.6-3.83-.89-6.42c0,0-.55-.66-.54.61,0,2.52.18,6,.18,6A124.44,124.44,0,0,0,67.25,259.78Z"/></g><path class="cls-5" d="M412,220.12c22.85-6.39,21.65-31.37,33.13-46.91,8-10.88,22.39-13,32.31-21.71,6.79-5.95,8.95-14.18,11-22.63,2.36-9.58,3.9-19.28,5.92-28.94A51.56,51.56,0,0,1,495.82,94a28,28,0,0,0,.93-2.89c-3.5-1.62-11.19,2.46-13.91,3.68-14.75,6.61-20.41,20.67-26.95,33.82s-26.51,9.79-34.57,21.95c-4.28,6.47-3,14.94-4.4,22.38-.95,5.13-4.24,9.33-5.08,14.51-.77,4.78.64,9.72.63,14.57,0,6.51-1.79,12.44-3,18.63"/><path class="cls-8" d="M410.6,220.07a5.62,5.62,0,0,0,.67.72l.34-.18,1-.52s.35.19.88-.24c3.29-2.74,6.52-5.52,8.86-9.17l0-.05c2.75-5,4.15-10.67,5.46-16.23,0,0,.33-1.56.58-2.81.12-.56.23-1.12.35-1.68,1.85-8.79,4.89-17.48,11.34-23.83,4.05-4,9.26-6.83,14.23-9.85,0,0,2-1.29,3.65-2.42a43.17,43.17,0,0,0,6.62-5.55,36.11,36.11,0,0,0,6.5-9.46s0,.08,0,0c.49-1,1.36-2.39,0-2.63-.76-.13-1.72.62-2.55,1.1C462,141,457.41,147,451,151.06c-4.65,3-9.67,5.44-14.35,8.36-8.08,5-14.59,12.69-16.31,22.34-1.43,8-.48,16.58-2,24.55a30.28,30.28,0,0,1-2.05,6.91l0,0a22.2,22.2,0,0,1-6.19,6l.28.55.2.28Z"/><path class="cls-2" d="M176.64,159.28c5.2-25.08-20.76-39.71-30.66-60.07-6.92-14.25-1.74-28.82-5.5-43.44-2.57-10-9.81-17.17-17.31-24.42-8.51-8.21-17.57-15.73-26.34-23.67C95,6,93.16,4.47,91.53,2.67,91.37,2.5,89.18-.07,89.08,0c-3.44,2.2-3.23,11.86-3.39,15.14C84.86,32.89,96.23,47,106.23,61.26s-3.63,30.6,4.59,45.68c4.37,8,13.62,12.18,20.46,18.14,4.71,4.1,7.29,9.78,12.12,13.82,4.45,3.72,10.18,5.53,15.1,8.59,6.59,4.1,11.7,9.48,17.34,14.52"/><path class="cls-4" d="M175.85,160.57a5.32,5.32,0,0,0,1.07-.16V160c0-.49,0-1.22,0-1.22s.37-.2.2-1c-1.09-4.76-2.26-9.49-4.76-13.94l0-.06c-3.69-5.69-8.71-10.54-13.68-15.25l-2.56-2.3-1.52-1.38c-8-7.24-15.24-15.51-18.38-25.46-2-6.24-2.19-12.82-2.72-19.31,0,0-.27-2.69-.59-4.88a50.49,50.49,0,0,0-2.24-9.6,46.83,46.83,0,0,0-6.27-12l0,0c-.72-1.05-1.72-2.75-2.67-1.62-.52.62-.26,2-.2,3,.49,8.36,4.19,16.36,5.07,24.84.63,6.16.57,12.35,1.14,18.49,1,10.62,5.41,21.44,14.32,29.1,7.4,6.35,16.58,10.87,23.91,17.26a41.43,41.43,0,0,1,6,6.24l0,0a26.7,26.7,0,0,1,2.9,9.47l.71.09Z"/><path class="cls-9" d="M91.83,183.51a87.12,87.12,0,0,0,28.51,21.33l.41.29c1.71,1.57.45.84.45.84-.55-.07-1.07-.08-1.07-.08-10.91-4.6-20.36-12-28.62-21l-.12.15-.53-.45a4,4,0,0,0-.08-.5l-1.55-1.74c-4.88,1.29-9.17,4.92-13.24,8-9.25,6.89-18.68,13.84-29.32,16.75-1.11.31-2.75.7-2.75.7-1.59.2-3.51-.31-2.81-1.37l.69-.47.29-.18c7.32-4.57,13.55-10.51,21-15.4,6.47-4.27,13.53-7.56,20.88-8.72a30.13,30.13,0,0,1,4.34-.36A149.69,149.69,0,0,1,77.4,166.66l-.13.05a1.48,1.48,0,0,1-.65-.13c-9.22-2.46-19.39,1.37-29.71,2-7,.41-14.19.49-20.4-1.13a19.64,19.64,0,0,1-2.17-.79L24,166.4l-.2-.21c-.05-.05-.09-.11-.14-.17-.47-.59-.85-1.57.81-1.64,1-.07,4.17-.67,6.78-1.18,6.6-1.28,13.22-2.9,19.88-3.44,7.92-.64,16.21-1.19,22.88,2.62a9.88,9.88,0,0,1,1,.68c-3.07-4.9-5.93-9.92-8.59-15-.69-1.3-1.37-2.6-2-3.91-.08,0,.36.14-1.34-.41-7.7-2.51-16.16-2.26-24.56-3.1-5.92-.6-11.8-1.4-17.69-2.28-4.87-.74-10-1.62-13.57-4.61a2,2,0,0,1-.49-.79c0-.82-.19-.64.63-.86,1.37-.38,3.07.15,4.88.1,12.4-.38,25-1.09,36.63,1.73a36.4,36.4,0,0,1,9.6,3.7,19.91,19.91,0,0,1,4.41,3.6c-3.67-7.17-7.23-14.43-10.82-21.68l-.41-.23c-.79-.7-.9-.5-1.15-.57-.91-.22-2.27-.44-2.27-.44l-.52-.11c-5.47-1-11.21-.95-16.75-1.85-7.28-1.18-14.23-3.85-20.86-6.77-1.23-.55-3.2-2-1.78-2.56.71-.29,1.62.24,1.78.25l3.72.32c9.31.79,18.82.79,27.75,4.16A32.09,32.09,0,0,1,51,117.28c-2.74-5.51-5.5-11-8.34-16.43q-1.47-2.82-3-5.59c-2.89-3.35-6.15-6.33-9.28-9.43-7-6.94-14.09-14.07-19.53-22.06a27.19,27.19,0,0,1-2.81-5,1.91,1.91,0,0,1,0-1.07c.42-.56-.73-1.57,3.31.83A80.37,80.37,0,0,1,42.19,92c2,4.21,4,8.46,4.81,13.14.92,1.83,1.83,3.68,2.73,5.53-1.24-11.08,2.49-23.53,6.69-35.43a56.92,56.92,0,0,1,3.76-9c.87-1.54,1.68.8,1.68.8,1,3.14.86,6.72.57,10.29-1.15,13.73-9.91,26.47-9.54,39.86.31.67.63,1.32,1,2,.37.22.53.36.28.35l-.08.07c2.38,5,4.74,9.92,7.16,14.83-1.77-8.08-.39-17,2.3-25.3a1.76,1.76,0,0,1,.1-.3c2.42-7.06,6.1-13.63,9.54-20.22.49-1,.91-3,1.86-1.56a2,2,0,0,1,.57,1.47,19.5,19.5,0,0,1,.1,4.77,152.13,152.13,0,0,1-5.15,26.9c-2.06,7.53-5.53,14.93-5.08,22.72,2.38,4.64,4.84,9.21,7.41,13.67a35.36,35.36,0,0,1-.38-7c.62-8.39,4.22-16.53,7.52-24.2,1.87-4.36,3.72-8.73,5.78-13,.63-1.28.72-3.64,2.19-2.47l.5.56c1.71,4.36.46,9.9-.87,15.21C85,136.1,80.38,146,78.17,156.34a24.44,24.44,0,0,0-.57,8.1A159,159,0,0,0,88,179l.19.23c-2-6.15-1-14,.81-20.73,2.43-9.11,5.73-18,8.52-26.93.26-.85.56-1.95.56-1.95.67-.82.84-.12.94.33s.16.55.16.57a104.06,104.06,0,0,1-.27,13.65,158.63,158.63,0,0,1-5.1,28.93A41.76,41.76,0,0,0,91.83,183.51Zm7.33-53h0Z"/><path class="cls-10" d="M127.41,143.7l.14,0,.13.06.13.07.11.09.09.11.08.12.06.13,0,.13,0,.14v.15l0,.14-.05.14-.06.12-.12.2-.12.2-.12.2-.13.2-.12.2-.13.2-.12.2-.13.2-.25.39-.26.39-.26.38-.26.39-.26.38-.27.38-.27.38-.27.38-.27.37-.28.38-.27.37-.28.37-.27.37-.28.37-.55.73-1.12,1.47-.55.73-.27.36-.28.37-.27.37-.27.36-.27.37-.27.37-.51.7-.52.7-.52.7-.51.7-.53.7-.52.7-.52.69-.53.7-.53.69-.53.69-.53.69-.53.69-.54.69-.53.69-.54.69-.54.68L110,169.63,108.91,171l-1.08,1.37-1.08,1.37-1.08,1.36-1.08,1.37-1.07,1.37-1.08,1.37-.53.68-.54.69-.53.68-.53.69-.53.69-.53.68-.53.69-.53.69-.52.69-.53.7-.52.69-.52.69-.51.7-.52.7-.51.7-.51.7-.51.7-.51.7-.5.71-.5.7-.49.71-.5.71-.49.71-.24.36-.25.36-.24.36-.24.36-.24.35-.24.36-.24.36-.24.37-.23.36-.24.36-.24.36-.23.36-.23.37-.24.36-.23.37-.23.36-.23.37-.23.37-.08.11-.1.1L86,202l-.12.07-.14.05-.14,0h-.14l-.14,0-.14,0-.13-.06-.12-.08-.11-.09-.1-.11-.07-.12-.06-.13,0-.14v-.28l0-.14,0-.14.07-.12.23-.37.23-.37.24-.38.23-.36.24-.37.23-.37.24-.37.24-.36.23-.37L87,197l.25-.36.24-.37.24-.36.24-.36.25-.36.24-.37.25-.36.24-.36.5-.72.5-.71.5-.72.5-.71.51-.71.51-.71.51-.71.51-.7.52-.71.52-.7.52-.7.52-.7.52-.7.53-.69.53-.7.53-.69.53-.69.53-.69.53-.69.54-.69.53-.69.54-.69.54-.68,1.07-1.38,1.08-1.37,1.08-1.36,1.08-1.37,1.08-1.37,1.08-1.36,1.07-1.37,1.08-1.37.53-.68.54-.69.53-.68.53-.69.53-.69.53-.68.53-.69.53-.69.52-.69.52-.69.52-.7.52-.69.52-.69.51-.7.51-.7.51-.7.27-.37.28-.37.27-.38.28-.36.28-.37.27-.37.56-.74,1.11-1.46.55-.73.27-.37.28-.36.27-.37.27-.37.27-.36.27-.37.26-.37.26-.37.27-.37.25-.38.26-.37.25-.38.25-.37.25-.38.12-.19.12-.19.12-.19.12-.19.11-.19.12-.2.12-.19.11-.2.09-.11.1-.11.11-.08.12-.07.14-.05.14,0h.28Z"/><path class="cls-10" d="M189.7,159.39l.15,0,.15.05.14.08.12.1.11.12.08.13.06.15,0,.15v.16l0,.16,0,.15-.07.14-.07.13-.07.12-.06.13-.07.12-.07.13-.06.12-.07.13-.06.13-.06.13-.06.13-.06.13-.06.13-.06.13-.06.14-.06.13-.06.14,0,.14-.06.13-.05.14-.06.14,0,.14-.05.14,0,.14L189,164l-.05.14,0,.14-.1.29-.09.3-.09.29-.09.3-.09.3-.08.3-.08.3-.08.31-.07.31-.07.31-.07.31-.07.31-.07.32-.06.31-.06.32-.06.32,0,.32-.06.32-.05.32,0,.32-.05.33,0,.32-.05.32,0,.33,0,.32,0,.32,0,.33,0,.32,0,.33,0,.32,0,.32,0,.32,0,.32,0,.32,0,.32,0,.32,0,.32-.05.63,0,.63,0,.61,0,.61,0,.6-.06,1.18,0,.44,0,.45,0,.44V182l0,.44v4.07l0,.46v.45l0,.46,0,.46,0,.46,0,.45,0,.46,0,.46,0,.46,0,.46.05.46,0,.45.05.46.05.46,0,.46.06.46.07.46.06.45.07.46.07.46.08.46.07.45.08.46.09.45.09.46.09.45.09.45.1.45.1.46.1.45.11.44.11.45.11.45.12.45.12.44.12.44.12.45.13.44.14.44.13.43.14.44.15.44.07.21.07.22.08.22.07.21.08.22.08.21.08.22.07.21.08.21.09.22.08.21.08.21.08.21.09.21.08.21.09.21.08.21.09.21.09.21.09.21.09.21.09.2.1.21.09.21.09.2.1.21.09.2.1.2.1.21.1.2.1.2.1.2.1.21.1.2.1.19.11.2.1.2.11.2.11.2.1.19.11.2.11.19.11.2.12.19.11.19.11.2.12.19.11.19.12.19.11.19.12.19.12.19.12.19.12.18.13.19.12.18.12.19.13.18.12.18.13.19.13.18.13.18.13.18.13.18.13.18.13.17.14.18.13.17.14.18.13.17.14.18.14.17.14.17.14.17.14.17.15.17.14.17.14.17.15.16.15.17.14.16.15.17.15.16.15.16.15.16.16.16.15.16.16.16.15.16.16.15.16.16.15.15.17.16.16.15.16.15.16.15.16.15.17.15.17.15.16.15.17.14.17.15.17.14.17.14.18.14.17.14.17.15.18.13.18.14.17.14.18.13.18.14.19.13.18.13.18.13.18.13.19.13.19.13.18.13.19.12.19.12.19.13.2.12.19.12.19.12.2.12.2.12.19.11.2.12.2.11.2.12.21.11.2.11.2.11.21.1.21.11.2.11.21.1.21.1.21.11.22.1.21.1.22.09.21.1.15.07.15.06.14.06.15.06.15.06.14.06.15.06.15.06.15.05.14.06.15.05.15.05.15.06.15,0,.15.05.14,0,.15.05.15,0,.3.09.3.09.3.08.3.08.3.08.3.07.31.08.3.07.31.06.3.06.31.07.31,0,.31.06.31.05.32.06.31,0,.32.05.31,0,.32.05.32,0,.32,0,.33,0,.32,0,.16,0,.15.05.13.09.12.1.1.12.09.13,0,.15,0,.16v.15l0,.16,0,.15-.07.14-.09.13-.11.11-.13.1-.14.07-.16,0-.15,0h-.16l-.33,0-.33,0-.33,0-.33-.05-.33,0-.33,0-.33-.05-.32-.06-.33-.05-.32-.06-.33-.05-.32-.07-.33-.06-.32-.07-.32-.07-.32-.07-.33-.08-.32-.07-.32-.09-.32-.08-.32-.09-.32-.1-.32-.09-.16-.05-.16-.06-.16,0-.16-.05-.16-.06-.16,0-.15-.06-.16-.06-.16-.06-.16-.06-.16-.06-.16-.06-.16-.06-.16-.07-.16-.06-.16-.07-.16-.07-.16-.07-.22-.1-.23-.11-.23-.1-.22-.11-.22-.11-.23-.1-.22-.11-.22-.12-.21-.11-.22-.11-.22-.12-.21-.12-.22-.11-.21-.12-.21-.12-.21-.12-.21-.13-.21-.12-.2-.13L205,229l-.2-.13-.21-.13-.2-.13-.2-.13-.2-.14-.2-.13-.2-.13-.19-.14-.2-.14-.19-.13-.19-.15-.2-.14-.19-.14-.18-.14L202,227l-.19-.14-.19-.15-.18-.14-.18-.15-.18-.15-.19-.15-.18-.15-.18-.16-.17-.15-.18-.16-.17-.15-.18-.16-.17-.16-.18-.16-.17-.16-.17-.16-.16-.16-.17-.16-.17-.17-.16-.16-.17-.17-.16-.16-.16-.17-.16-.17-.16-.17-.16-.17-.16-.17-.16-.17-.15-.18-.16-.17-.15-.18-.15-.17-.15-.18-.15-.18-.15-.18-.15-.18-.15-.18-.14-.18-.15-.18-.14-.18-.14-.19-.15-.18-.14-.19-.13-.18-.14-.19-.14-.19-.14-.19-.13-.19-.14-.19-.13-.19-.13-.19-.13-.19-.13-.19-.13-.2-.13-.19-.13-.2-.12-.19-.12-.2-.13-.2-.12-.2-.12-.2-.12-.2-.12-.2-.12-.2-.12-.2-.12-.2-.11-.2-.12-.21-.11-.2-.11-.21-.11-.2-.11-.21-.11-.2-.11-.21-.11-.21-.11-.21-.1-.21-.11-.21-.1-.21-.1-.21-.11-.21-.1-.21-.1-.21-.09-.22-.1-.21-.1-.21-.09-.22-.1-.21-.09-.22-.1-.22-.09-.21-.09-.22-.09-.22-.09-.21-.09-.22L189,209l-.08-.22-.09-.22-.08-.22-.09-.22-.08-.22-.08-.22-.08-.23-.08-.22-.08-.22-.08-.23-.08-.22-.07-.22-.08-.23-.15-.45-.14-.45-.14-.45-.14-.46-.13-.45-.13-.46-.13-.46-.12-.45-.12-.46-.12-.46-.11-.47-.11-.46-.11-.46-.1-.47-.1-.46-.1-.47-.09-.47-.09-.46-.09-.47-.08-.47-.08-.47-.08-.47-.07-.47-.07-.47-.07-.47-.06-.47-.06-.47-.06-.47-.06-.47-.05-.47,0-.47-.05-.48,0-.47,0-.47,0-.47,0-.47,0-.47,0-.47,0-.46,0-.47V187l0-.47v-4.63l0-.46,0-.45v-.46l0-.45.06-1.18,0-.61,0-.61,0-.63,0-.63.05-.64,0-.33,0-.32,0-.33,0-.32,0-.33,0-.33,0-.33,0-.33,0-.33,0-.34,0-.33,0-.33,0-.34.05-.33,0-.33.05-.34,0-.33.05-.34.06-.33,0-.33.06-.34.06-.33.06-.33.07-.33.07-.33.07-.33.07-.33.08-.32.08-.33.08-.32.08-.33.09-.32.09-.31.09-.32.1-.32.1-.31.11-.31,0-.16.05-.15.06-.15.05-.16.06-.15.06-.15.06-.15.05-.15.06-.15.07-.15.06-.15.06-.15.07-.15.06-.14.07-.15.06-.14.07-.15.07-.14.07-.14.07-.14.07-.14.08-.15.07-.13.08-.14.07-.14.08-.13.09-.13.11-.12.12-.09.14-.07.15-.05.16,0Z"/><path class="cls-10" d="M314.78,143.23l.15,0,.15.06.14.08.11.1.11.13.08.13.05.15,0,.16v.15l0,.16,0,.15-.07.14-.09.16-.1.15-.19.31-.2.31-.2.3-.2.31-.21.3-.21.3-.21.3-.21.29-.21.3-.21.29-.22.29-.22.29-.21.3-.44.57-.44.58-.43.57-.43.57-.22.28-.21.29-.22.28-.21.29-.21.28-.2.29-.21.28-.2.29-.2.28-.2.29-1.21,1.77-1.21,1.76-1.21,1.76-1.21,1.76-1.21,1.76-1.21,1.76-2.43,3.52-2.43,3.52-1.21,1.76-1.21,1.75L293,176.89l-1.21,1.77-1.21,1.76-1.2,1.76-.9,1.33-.9,1.33-.9,1.32-.45.67-.45.66-.44.67-.45.66-.44.67-.44.67-.44.67-.44.67-.43.67-.44.68-.06.09-.07.1-.07.1-.08.1-.08.1-.08.1-.18.22-.38.45-.19.24-.09.11-.09.12-.09.12-.09.11-.09.12-.08.11-.07.11-.07.1-.07.11-.06.09,0,.05,0,0,0,0,0,0,0,0v0l0,0v.09h0l0,.5v6.27l0,.53,0,1.06,0,1,0,1.06,0,1.06,0,1.05,0,1.06V210l0,.53v2.27l0,.15-.06.15-.09.13-.1.12-.13.1-.13.08-.15,0-.16,0h-.16l-.15,0-.15-.05-.14-.08-.13-.09-.11-.12-.09-.13-.06-.14,0-.15,0-.16v-1.57l0-.52v-.53l0-.52,0-1.05,0-1.06,0-1.06,0-1,0-1.06,0-1.06,0-.54v-.53l0-.53v-6.12l0-.09,0-.08,0-.09,0-.08,0-.07,0-.08,0-.08,0-.07,0-.08,0-.07,0-.07,0-.07,0-.08.09-.13.08-.14.09-.14.1-.14.1-.13.1-.13.1-.14.1-.13.1-.13.11-.13.2-.24.37-.46.17-.2.07-.09.07-.09.06-.08,0-.07.05-.06,0,0,.43-.67.44-.68.44-.67.44-.67.45-.68.44-.66.45-.67.44-.67.45-.67.45-.67.9-1.33.9-1.33.91-1.32,1.2-1.77,1.21-1.77,1.21-1.76,1.21-1.76,1.21-1.76,1.22-1.76,2.42-3.52,2.43-3.51,1.21-1.76,1.22-1.76,1.21-1.76,1.21-1.76,1.2-1.76,1.21-1.77.21-.3.2-.29.21-.3.22-.29.21-.3.21-.29.22-.29.22-.29.21-.29.22-.29.44-.57.43-.57.44-.57.43-.58.21-.28.21-.29.21-.28.21-.29.21-.28.2-.29.2-.29.2-.28.2-.29.19-.29.19-.29.19-.29.18-.3.09-.14.09-.15.1-.13.11-.11.13-.09.14-.07.15,0,.16,0Z"/><path class="cls-11" d="M406.25,327.75H110a25.39,25.39,0,0,1-25.39-25.39V125.57A25.4,25.4,0,0,1,110,100.17H406.25a25.4,25.4,0,0,1,25.39,25.4V302.36a25.39,25.39,0,0,1-25.39,25.39"/><rect class="cls-12" x="104.1" y="119.23" width="308.05" height="181.63"/><path class="cls-10" d="M337.54,145.75l.43,0,.43,0,.43,0,.44,0,.86.06.87.07.88.06.43,0,.44,0,.43,0,.44,0,.44,0,.43,0,.43,0h.44l.43,0h3.41l.21,0h.42l.2,0,.21,0,.21,0,.2,0,.21,0,.2,0,.21,0h.29l.07,0,.07,0,.06,0,.07,0,.06,0,.06,0,.06,0,.05.05.05.05,0,.06.05.05,0,.07,0,.06,0,.07,0,.06,0,.07v.43l0,.07,0,.06,0,.07,0,.06,0,.06,0,.06-.05,0-.05.05-.06,0-.06,0-.06,0-.06,0-.07,0-.07,0h-.14l-.21,0-.22,0-.22,0-.22,0-.22,0-.23,0H350l-.22,0h-.22l-.22,0h-4l-.44,0-.45,0-.44,0-.45,0-.44,0-.44,0-.44,0-.44,0-.88-.07-.87-.06-.87-.06-.43,0-.42,0-.43,0-.42,0h-.14l-.07,0-.07,0-.07,0-.06,0-.06,0-.06,0,0-.05-.06,0,0-.05-.05-.06,0-.06,0-.06,0-.07,0-.06v-.07l0-.07v-.36l0-.07,0-.06,0-.07,0-.06,0-.07,0,0,0-.06.05-.05.06,0,.06,0,.06,0,.06,0,.06,0,.07,0,.07,0h.28Z"/><path class="cls-10" d="M339.33,114.63h.08l.09,0,.08,0,.08,0,.07,0,.08,0,.06.06.07.06.05.06.05.07.1.15.1.14.1.14.09.14.11.15.1.14.1.14.1.14.11.14.1.13.11.14.11.14.11.14.11.14.22.27.23.27.23.27.23.27.23.27.24.27.24.26.24.27.25.27.24.26.25.27.49.53.5.53.5.53.25.27.25.26.25.27.25.27.25.27.24.28.24.27.24.28.28.32.28.33.28.33.28.33.27.33.27.33.27.33.27.33.27.34.26.33.53.67.53.67.52.67.53.67.52.66.53.67.26.33.26.32.27.33.26.33.27.33.27.32.26.32.27.32.27.32.28.32.05.07,0,.07,0,.08,0,.08,0,.08,0,.08v.34l0,.09,0,.08,0,.08,0,.07-.05.07,0,.07-.06.06-.07.06-.07.05-.07,0-.08,0-.08,0-.08,0h-.43l-.08,0-.08,0-.08,0-.07,0-.07,0-.07-.06,0-.06-.28-.33-.28-.32-.27-.33-.28-.33-.27-.33-.27-.33-.27-.33-.27-.34-.26-.33-.27-.33-.53-.67-.53-.67-.52-.67-.52-.67-.53-.66-.53-.67-.26-.33-.26-.33-.27-.32-.26-.33-.27-.33-.27-.32-.27-.32-.27-.32-.27-.32-.27-.32-.23-.26-.24-.27-.24-.26-.23-.27-.25-.26-.24-.26-.25-.27-.24-.26-.5-.53-.5-.53-.5-.54-.25-.27-.25-.27-.25-.27-.25-.27-.25-.28-.24-.27-.25-.28-.24-.29-.24-.28-.24-.28-.23-.29-.12-.15-.11-.15-.12-.14-.11-.15-.12-.15-.11-.15-.11-.15-.11-.15-.11-.15-.11-.15-.11-.16-.1-.15-.11-.15-.1-.16,0-.07,0-.08,0-.08,0-.08v-.43l0-.08,0-.08,0-.08.05-.07.05-.07.05-.07.06-.06.07,0,.07,0,.08,0,.08,0,.08,0,.08,0h.26Z"/><path class="cls-10" d="M365.05,114.8h.13l.06,0,.06,0,.06,0,.05,0,.06,0,0,0,.05,0,.05,0,.05,0,0,.05,0,0,0,0,0,0,0,.06,0,.06,0,0v.06l0,.06v.07l0,.32,0,.33,0,.32.05.33.09.65.1.65.1.65.1.65.11.65.11.65.21,1.3.22,1.3.11.66.1.65.11.66.1.65v.38l0,.06,0,.05,0,.06,0,.06,0,0,0,.05,0,0,0,0,0,0,0,0-.05,0-.05,0-.06,0-.05,0-.06,0-.06,0h-.5l-.06,0,0,0-.06,0-.06,0-.05,0-.05,0-.05,0,0,0,0,0,0,0,0,0,0,0,0-.06,0,0,0-.06,0-.06v-.12l-.1-.66-.11-.65-.1-.65-.11-.65-.21-1.3-.22-1.3-.11-.66-.1-.65-.11-.66-.1-.65-.1-.66-.1-.66,0-.33-.05-.33,0-.33,0-.33v-.31l0-.07v-.06l0,0,0-.06,0-.06,0,0,0,0,0,0,0,0,.05,0,.05,0,0,0,.05,0,.06,0,.05,0,.06,0,.06,0,.06,0h.25Z"/><path class="cls-13" d="M411.62,189.86s.19-19.91.31-21.36c.48-5.61.71-10.58-2-12.88a21.47,21.47,0,0,0-5.79-4c-1.27-.51-7.36.78-11,1.42-3,.53-3.3,3.41-3,6.28l-1.28,24.83c2.09,5.37,19.77,9,22.8,5.66"/><path class="cls-14" d="M386.25,300.68c.22,1.71-.63,4-1.14,5.57-.37,1.12-.24,2.42-.73,3.49-.69,1.47-1.89,0-2.24-.93-.49-1.28,0-3.25.22-4.52.31-1.72-.1-3.89.65-5.5s2.47-.91,2.89.63"/><path class="cls-14" d="M411.49,302.4c.23,1.53-.61,3.55-1.12,5-.36,1-.22,2.16-.71,3.1-.68,1.32-1.89,0-2.24-.83-.49-1.15,0-2.9.2-4,.3-1.53-.12-3.46.62-4.89s2.46-.8,2.89.58"/><path class="cls-10" d="M403.37,310.63a18.17,18.17,0,0,1-3.52,2.35c-.31.13-1.26,2-.24,2,.66,0,10-.73,12.53-1.58a8.75,8.75,0,0,0,.06-2.17c0-.91-.74-1.37-.9-2.24s-.87.19-1.58,0-1.38,1.37-1.31.54c.14-1.65-2-2.06-2.83-1.81C404.54,308.07,404.29,309.79,403.37,310.63Z"/><g class="cls-15"><path class="cls-16" d="M413.47,310.1h.45l.09,0h.18l.08,0h.09l.09,0,.09,0,.09,0,.16,0,.17.05.13,0h0l.17.06.16.06.16.06.16.06.16.07.16.07.15.07.15.07.15.07.15.07.14.07.13.07h0l.14.07.14.08.26.15.26.14.24.14,0,0h0l0,0,.08,0,.07,0,.08,0,.08,0,.09,0,.08,0,.09,0,.09,0,.09,0,.1,0,.1,0,.09,0,.1,0,.21,0,.25.05.16.08.21.35h.08l.12.15-.15.11-.08,0-.3.28-.18,0-.25,0-.22,0h-.33l-.12,0h-.11l-.11,0-.12,0-.11,0-.12,0-.12,0-.11,0-.12,0-.12,0,0,0-.06,0-.26-.11-.26-.11-.27-.1-.14-.06-.14-.05h0l-.13,0-.14-.05-.14-.05-.14-.05-.14-.05-.14,0-.14,0-.15,0-.14,0-.14,0-.15,0-.14,0h0l-.11,0-.13,0-.14,0h-2l-.11,0-.11,0-.11,0-.11,0-.11,0-.12,0-.11,0-.12,0-.11,0h0l-.1,0-.22.11-.45.23-.23.11-.11.06-.12.05-.11.06-.12.05-.11.05-.12.05-.26.1-.25.11-.07,0-.44.21-1,.46-.5.23-.49.23-.24.11-.25.11-.25.11-.25.11-.25.11-.25.1-.25.11-.21.08-.05,0-.25.1-.26.1-.26.1-.26.1-.27.09-.27.09-.27.09-.27.09-.28.08-.28.08-.14,0-.14,0-.15,0-.14,0-.21-.12.12-.2.14-.05.14,0,.14,0,.14,0,.27-.09.27-.09.27-.09.26-.1.27-.09.25-.1.26-.11.25-.1.25-.11.25-.11.05,0,.2-.09.24-.11.25-.11.24-.12.24-.11.24-.12.25-.12.23-.12.49-.25.48-.25,1-.5.43-.23.06,0,.25-.14.24-.14.1-.05.1-.06.1-.06.1-.06.1-.07.1-.07.2-.14.42-.28.21-.15.09-.06h0l.11-.08.11-.09.11-.07.11-.08.11-.08.12-.08.12-.07.12-.07.13-.07,0,0,.09-.05.14-.06.07,0,.06,0,.07,0,.07,0,.07,0,.08,0,.07,0,.07,0,.07,0h.09l.08,0H413l.09,0h.37Z"/></g><path class="cls-10" d="M380.9,305.86s-.78,2.92-8.27,4.49a12.71,12.71,0,0,1-1.52.27,16.2,16.2,0,0,0-.56,1.92c.47.6,1.78.56,2.48.61a16.93,16.93,0,0,0,7.42-.79c2-.8,4.48.14,6.54-.5a8.52,8.52,0,0,0,.4-1.92,17.79,17.79,0,0,0-.39-2.41c-.11-.8-1.12-.6-1.62-.25a3.62,3.62,0,0,1-1.24.8,8.53,8.53,0,0,1-2.08-.07,3.71,3.71,0,0,0-1.32.46,5,5,0,0,0,1.2-1.78c0-.11.13-.51,0-.61S381.19,306,380.9,305.86Z"/><g class="cls-17"><path class="cls-16" d="M382.18,308.83h.16l.07,0h.08l.07,0,.08,0h.07l.08,0,.14,0,.14,0,.15,0,.14.06.13.05,0,0,.1,0,.13.07.13.07.13.07.13.07.12.07.13.07.12.08.11.07.12.08.12.07.11.08h0l.09.07.11.07.2.16.2.15.19.14.06,0,.06,0h0l.06,0,.06,0,.06,0,.07,0,.06,0,.07,0,.07,0,.07,0,.07,0,.08,0,.07,0,.08,0,.16.05.2.06.13.09.13.35h.07l.1.15-.16.1-.07,0-.26.26-.16,0-.2,0-.18,0h-.09l-.09,0-.09,0-.1,0-.09,0-.1,0-.09,0-.1,0-.1,0-.09,0-.1,0-.1,0-.1-.05-.09-.05-.21-.11-.21-.11-.22-.11-.11-.06-.09,0h0l-.11-.06-.12-.05-.11-.05-.11,0-.11-.05-.12-.05-.11,0-.11,0-.12,0-.11,0-.11,0-.08,0h0l-.11,0-.11,0-.1,0-.11,0-.1,0h-1.34l-.08,0h-.09l-.09,0-.09,0-.1,0-.09,0-.09,0-.08,0h0l-.09,0-.19.09-.37.18-.19.09-.09.05-.1,0-.1,0-.09.05-.1,0-.09,0-.43.17h0l-.4.18-.82.37-.4.18-.41.19-.2.09-.2.08-.21.09-.2.09-.21.08-.2.08L375,313l-.14.05-.07,0-.21.08-.21.07-.22.08-.21.07-.22.07-.22.07-.22.07-.22.06-.23.06-.23.06-.23.06-.24,0-.21-.12.13-.21.23-.06.23-.06.22-.07.22-.06.22-.07.21-.08.21-.07.21-.08.21-.08.21-.08.2-.09.2-.08.07,0,.14-.06.2-.09.19-.09.2-.09.2-.1.2-.09.19-.1.2-.1.39-.2.39-.2.8-.41.4-.2h0l.4-.22.08-.05.08,0,.08-.05.08-.05.08-.05.08-.06.17-.12.33-.24.18-.12.09-.07h0l.06,0,.09-.07.09-.07.09-.07.1-.07.09-.06.1-.07.11-.06.1-.06.08,0h0l.12-.06.11-.05.06,0,.06,0,.07,0,.06,0,.06,0,.07,0h.06l.07,0h.61Z"/></g><path class="cls-18" d="M384.78,255h0s-1.42-22.85-1.89-30.45c-.41-6.53,3.49-37.75,11.85-30.69C404.36,202,409,211.28,405,226.35c-1.4,5.35-5.94,25.82-7.74,34,2.77,5.77,2.35,13-.75,17.79,0,0-9.3,25.67-10.05,26.58-1.21,1.48-4.41.09-4.41.09C381,304.2,384.76,255.35,384.78,255Z"/><path class="cls-19" d="M404.05,255.39h0s-5.83-22.13-7.78-29.49c-1.67-6.32-3.92-37.76,5.63-32.56,11,6,17.3,14.16,16.36,29.76-.3,5-.71,22.66-.91,32.18,4.14,5.64,5.39,14.33,3.24,19.83,0,0-7.6,29.23-7.9,30.51-.26,1.09-4.81.93-6.26,0Z"/><path class="cls-20" d="M410.76,206.34l-.05.06h0v0h0v0h0v0h0v0l0,0h0v0l0,.06.05.06h0l0,.08,0,.08,0,.08.08.16.07.13,0,0,0,.05,0,.06,0,.07.06.13.06.13.07.12.14.26.07.13.07.13h0l.06.13.07.14,0,.07,0,.07,0,.07,0,.07,0,.07,0,.07,0,.08,0,.07,0,.07,0,.08,0,.07,0,.08.08.42.08.43.07.42.08.42.07.42.07.42,0,.21,0,.21,0,.21,0,.21,0,.21,0,.22,0,.21,0,.21,0,.21,0,.21,0,.22,0,.21,0,.21v3.55l0,.68,0,.67v.11l0,.57,0,.67,0,.68,0,.67,0,.68,0,.67,0,.67-.07,1.35-.07,1.35-.06,1.34-.07,1.35,0,.67,0,.68,0,.67,0,.67v.06l0,.62,0,.67,0,.67,0,.68,0,.67,0,.68v3.24l0,.65v.29l0,.94v5.55l0,.23,0,.23v.23l0,.23,0,.23,0,.18v0l0,.23,0,.23,0,.23,0,.23,0,.23,0,.23,0,.23,0,.22,0,.23,0,.23,0,.23.05.23,0,.23.05.23.05.23.05.23.05.23.06.23.06.25.06.24.07.25.06.24.07.24.07.25.06.24.07.25.15.48.14.49.15.48.15.49.15.48.15.48.31,1,.15.49.15.48.13.44,0,.05.14.48.15.49.14.49.07.24.06.25.07.25.07.24.06.25.06.24.07.25.06.25.06.25.05.25.06.25.05.25.06.25.05.25,0,.25,0,.25.05.25,0,.26,0,.25,0,.26,0,.25,0,.26,0,.26,0,.25,0,.26,0,.26,0,.26,0,.26v.22l0,.22v3.86l0,.42v.42l0,.42,0,.42,0,.42,0,.41,0,.42,0,.41,0,.42,0,.41,0,.41-.05.41-.05.41-.05.41-.05.41-.06.41-.07.41-.06.4-.07.41-.07.4-.07.41-.07.4-.08.41-.08.4-.08.4-.09.41-.08.4-.09.4-.09.4-.09.41-.1.4-.09.4-.1.4-.06.22,0,.18-.1.4-.11.4-.1.4-.11.4-.11.4-.11.41-.11.4-.11.4-.11.4-.12.4-.11.4-.12.4-.24.81-.24.81-.13.43-.12.37-.25.81,0,.13,0,.13,0,.13,0,.14,0,.14,0,.15,0,.15,0,.16,0,.16,0,.16v.17l0,.17v.17l0,.18v7.13l0,.37v.85l0,.16v.16l0,.15v.15l0,.14,0,.14,0,.14-.08.07-.06-.09v-2.24l0-.37,0-.38,0-.39v-.39l0-.4,0-.82,0-.41,0-.42,0-.41,0-.41,0-.41v-2.36l0-.18v-.18l0-.18v-.17l0-.18,0-.16,0-.17,0-.16,0-.16,0-.16,0-.15,0-.14,0-.15,0-.13.25-.82.11-.38.13-.42.23-.81.24-.8.11-.41.12-.4.11-.4.11-.4.11-.4.11-.4.1-.4.11-.39.1-.4.11-.4.1-.4.1-.4,0-.17.05-.23.1-.4.09-.4.09-.39.09-.4.09-.4.09-.4.08-.4.08-.4.08-.4.08-.4.07-.4.07-.4.07-.4.07-.4.06-.41.06-.4.06-.4.06-.41.05-.4.05-.4.05-.41,0-.41,0-.4,0-.41,0-.41,0-.41,0-.41,0-.41,0-.41V274l0-.42v-4.63l0-.21v-.21l0-.26,0-.25,0-.25,0-.25,0-.25,0-.25,0-.25,0-.25,0-.25,0-.24,0-.25-.05-.25-.05-.24-.05-.25-.05-.24,0-.25-.06-.24-.05-.24-.06-.25-.06-.24-.06-.24-.06-.25-.07-.24-.06-.24-.07-.24-.07-.24-.07-.24-.07-.24-.14-.49-.14-.48-.15-.48,0-.05-.13-.43-.16-.48-.15-.49-.31-1-.16-.48-.15-.49-.15-.49-.16-.48-.15-.49-.14-.49-.07-.25-.08-.25-.07-.24-.06-.25-.07-.25-.07-.25-.07-.25-.06-.25-.06-.23-.06-.24-.05-.24-.05-.24,0-.23-.05-.24-.05-.24,0-.23,0-.24,0-.23,0-.24,0-.24,0-.23,0-.24,0-.23,0-.24,0-.24,0-.23v0l0-.19,0-.23,0-.24,0-.23,0-.24V247l0-.23v-5.16l0-.94v-.29l0-.65,0-.94v-1.62l0-.68,0-.68,0-.68,0-.68,0-.67,0-.68,0-.62v-.06l0-.67.05-.68,0-.67.05-.67.09-1.35.1-1.34.09-1.35.1-1.34,0-.67,0-.68.05-.67,0-.67,0-.67,0-.67,0-.57v-.11l0-.67,0-.67,0-.68,0-.67v-2.58l0-.21v-.21l0-.21,0-.21,0-.21,0-.21,0-.2,0-.21,0-.21,0-.21,0-.21-.06-.42-.06-.42-.07-.42-.07-.42-.07-.42-.08-.42v-.14l0-.07,0-.06,0-.07,0-.07,0-.06,0-.07,0-.07,0-.06,0-.07,0-.06-.06-.13-.06-.14h0l-.06-.13-.06-.13-.13-.27-.06-.14-.06-.13-.05-.14,0-.07,0-.06v0l0,0-.07-.13-.07-.16,0-.09,0-.08,0-.09h0l0-.08,0-.08v-.23h.07Z"/><path class="cls-21" d="M392.76,210.08h0v0h0v0h0v0h0v.06h0l0,0,0,0,0,.08.06.09h0l0,.1.09.2.09.19,0,.09,0,.08v.14l0,.11h0l0,.11v.12l0,.11,0,.24,0,.23,0,.24v4l0,.47v3.28l0,.23v.23l0,.23,0,.23,0,.22,0,.23,0,.15v.07l0,.23,0,.1,0,.12,0,.11,0,.11V224l0,.07v.12l0,.06,0,.05,0,.06,0,0,0,.05,0,.05,0,0,0,0,0,0,0,0,0,0,0,0,0,0,0,0,0,0h0l0,0,0,0h0l0,0,0,0h0l0,0h0l0,0h0l0,0h1.71l.08,0,.16,0,.15,0,.14,0h0l.16,0,.16,0,.16,0,.32,0,.66.09.33.05.16,0,.17,0,.16,0,.17,0,.16,0h.06l.11,0,.16,0,.16,0,.16.05.16.05.15,0,.08,0,.08,0,.07,0,.08,0,.08,0,.07,0,.07,0,.08,0,.07,0,.07,0,.08,0,.07,0,.07,0,.07,0,0,.07-.07,0-.07,0-.07,0-.08,0-.07,0-.07,0-.08,0-.07,0-.08,0-.07,0-.08,0-.07,0-.08,0-.08,0-.07,0-.16,0-.16,0-.16,0-.16,0-.16,0-.1,0h-.06l-.16,0-.16,0-.17,0h-.16l-.17,0-.33,0-.66-.05-.33,0-.16,0h-.16l-.17,0h0l-.15,0-.16,0-.15,0h-1.76l-.05,0h0l-.05,0h0l0,0,0,0,0,0,0,0,0,0,0,0,0,0,0,0,0,0,0,0,0,0,0,0,0,0,0,0,0,0,0,0,0,0,0-.08,0-.07,0-.08,0-.08h0l0-.08,0-.08,0-.07,0-.09v-.08l0-.08v-1.64l0-.11,0-.11,0-.12,0-.12,0-.23v-.23l0-.24,0-.23v-.24l0-.24v-2.84l0-.48,0-.47,0-.47,0-.47,0-.46v-4h0v-.12h0v0h0v0h0v-.05l0-.08,0-.08-.06-.2-.08-.21,0-.11h0l0-.1,0-.1V210h.06l.06.05h0l-.05.06Z"/><path class="cls-21" d="M397.12,227l0,.1V228l0,.18,0,.19,0,.18,0,.18,0,.18,0,.19,0,.18,0,.18,0,.18,0,.18,0,.15v0l-.08.35-.08.36-.09.35-.08.36-.08.35,0,.18,0,.18,0,.17,0,.18,0,.18,0,.18-.08.45-.08.46-.08.45-.08.46-.08.45-.08.46-.09.45-.09.45-.17.91-.18.9-.18.91-.14.74,0,.16-.18.9-.18.9-.18.91-.17.9-.09.45-.08.45-.09.45-.08.46-.08.45-.08.45,0,.16,0,.29-.08.46-.07.42-.06.42-.06.42-.06.42-.06.43,0,.42h0l-.05.42-.05.42-.05.43,0,.42,0,.43,0,.42,0,.42v.16l0,.27,0,.42,0,.43,0,.43,0,.42,0,.43,0,.42,0,.43,0,.43,0,.42,0,.43v.43l0,.43,0,.85,0,.86,0,.85-.05,1.71,0,.86v.15l0,.71,0,.85v.43l0,.43,0,.42,0,.43,0,.43,0,.42,0,.43,0,.43,0,.42,0,.43,0,.43,0,.42,0,.43,0,.42-.05.43,0,.42-.05.43,0,.42-.06.43-.05.42-.06.42-.07.43-.05.3-.05.31-.06.31-.06.3-.06.31-.07.31-.05.22,0,.09-.07.31-.08.32-.08.31-.08.31-.08.31-.09.31-.09.32-.09.31-.09.31-.09.31-.1.31-.09.31-.1.3-.1.31-.1.31-.09.3-.1.3-.21.61-.2.59-.2.59-.2.58-.09.28-.1.28-.09.29-.09.29-.09.29-.09.29-.09.3-.09.3-.08.3-.09.3-.08.31-.09.3-.08.31-.08.31,0,.11-.06.2-.08.32-.07.31-.08.32-.07.32-.08.31-.07.32-.07.33-.07.32-.06.32-.07.33-.07.32-.06.33-.06.32-.06.33-.06.33-.06.32-.06.33,0,.33-.06.33-.05.33-.05.32-.05.33,0,.33-.05.33-.05.33,0,.32,0,.33h0l-.05.32,0,.33,0,.32,0,.33,0,.32,0,.32,0,.32,0,.32,0,.32,0,.32,0,.31,0,.27v.05l0,.31,0,.31,0,.31,0,.31,0,.3,0,.31v1.19l-.13.13-.12-.13v-2.75l0-.32V301l0-.32,0-.32,0-.32,0-.32,0-.33,0-.32,0-.33,0-.32,0-.33,0-.33,0-.33h0l0-.33,0-.33,0-.32.05-.33,0-.34,0-.33.05-.33.05-.33.05-.33.05-.33,0-.33.06-.33.06-.33.05-.33.06-.33.07-.33.06-.32.06-.33.07-.33.06-.32.07-.33.07-.32.07-.32.07-.32.08-.32.07-.32.08-.32.05-.21,0-.1L387,288l.08-.32.08-.31.08-.3.09-.31.08-.31.09-.3.09-.3.09-.3.09-.29.09-.29.09-.29.09-.29.1-.29.19-.58.2-.59.19-.59.2-.6.09-.3.1-.31.1-.3.09-.31.09-.3.1-.31.09-.31.09-.31.09-.31.08-.3.09-.31.08-.31.08-.31.08-.31.07-.31.07-.3.07-.31,0-.09.05-.21.06-.31.07-.3.05-.3.06-.3.05-.3,0-.3.06-.42.06-.42.05-.42.05-.42.05-.42,0-.42,0-.42,0-.42,0-.42,0-.42,0-.43,0-.42,0-.42,0-.43,0-.42,0-.43,0-.42,0-.42v-.43l0-.43,0-.42v-.43l0-.85,0-.71v-.14l0-.86,0-1.71,0-.86,0-.85,0-.86,0-.43,0-.43V257l0-.43,0-.43,0-.43,0-.42,0-.43,0-.43,0-.43,0-.43,0-.43,0-.27v-.16l0-.43,0-.42,0-.43,0-.43.05-.43.05-.43.05-.42h0l.06-.43.06-.43.07-.43.07-.42.07-.43.07-.42.09-.46,0-.3,0-.15.09-.46.09-.45.09-.45.09-.46.1-.45.09-.45.19-.9.2-.9.19-.9.2-.9,0-.16.17-.74.2-.9.19-.9.19-.9.1-.45.09-.45.1-.45.09-.45.09-.45.08-.45.09-.46.09-.45,0-.18,0-.18,0-.18,0-.18,0-.18,0-.18.09-.36.09-.35.09-.36.09-.35.09-.35v0l0-.15,0-.17,0-.18,0-.17,0-.18,0-.17,0-.18,0-.18,0-.18,0-.17,0-.18,0-.18,0-.18,0-.19v-.27l0-.09.06-.05Z"/><path class="cls-21" d="M392.81,225.42h1l.24,0h.25l.47,0,.48,0,.3,0,.17,0,.44,0h0l.23,0,.23,0h.06l.17,0,.13,0,.1,0,0,.05,0,0-.11,0-.13,0-.17,0H395.2l-.48,0-.48,0h-3.73l-.13,0h-.49l-.12,0-.13,0-.12,0-.13,0-.19-.11.12-.19.13,0,.12,0,.13,0,.12,0,.13,0,.06,0h.06l.13,0,.12,0,.13,0,.12,0h0l.12,0,.12,0,.13,0h1.86Z"/><path class="cls-14" d="M352.53,161.07v0a24.39,24.39,0,0,1,.18-2.58c.11-.39.3-1,.32-1,.21-.84.37-.6.42-.6,1,0,.68,1.87,1.53,3.9a7.69,7.69,0,0,0,.66,1.23c.35.18.69.36,1,.56s2.19,9,.86,7.61a10.45,10.45,0,0,0-7.09-3.07,21,21,0,0,0-4.18.56c-1.19.26-4.55,1.4-4.52,1.11s.43-.62.71-.79a17.93,17.93,0,0,1,3.34-1.74l1.18-.43c.2-.07.6-.25.6-.25l-.65.1c-.41.06-.83.21-1.24.24-1.22.11-4.66,1.16-5.18,1.09-.14,0-.51,0-.47-.27s2.47-1.42,3.13-1.63c1.4-.44,2.92-1,3.3-1.13,0,0,.38-.09.4-.14s-.34,0-.36,0c-.34-.05-6.89.53-6.79.31.23-.49.92-.7,1.45-.89a18.24,18.24,0,0,1,4.24-.78c.48-.06,1-.11,1.46-.19.07,0,.5,0,.55-.1s-.32,0-.36,0c-.27,0-.67,0-1,0a24.18,24.18,0,0,0-3.51-.06c-.46,0-1.7.14-1.73-.06-.1-.62,4.64-1.13,5.54-1.14A42.55,42.55,0,0,1,352.53,161.07Z"/><path class="cls-14" d="M390.78,155.43c-6,5.3-14.45,19.74-14.45,19.74a50.83,50.83,0,0,1-6.29-3.79c-8.9-6.25-15.08-11.47-16.66-9-2.06,3.18,22.22,31.71,28.19,24.48,7.54-9.14,16.44-18.87,16.38-25C397.92,159,390.78,155.43,390.78,155.43Z"/><path class="cls-22" d="M385.69,181.81s11.09-14.48,10.12-16.22c-4.73-8.49-1.75-12.66-1.79-12.66-4.18.18-5.56,2.15-8.28,5.28a71.92,71.92,0,0,0-9,13.77C379.24,175.91,385.69,181.81,385.69,181.81Z"/><path class="cls-14" d="M450.36,161v0a22.06,22.06,0,0,0-.3-2.57c-.13-.39-.35-.95-.37-1-.24-.82-.4-.57-.44-.57-1,0-.6,1.9-1.35,4a8.57,8.57,0,0,1-.61,1.26,10.51,10.51,0,0,0-1,.6c-.19.13-1.77,9.13-.51,7.64a10.43,10.43,0,0,1,6.94-3.39,19.7,19.7,0,0,1,4.2.36c1.2.2,4.61,1.18,4.57.9s-.46-.6-.75-.76a18,18,0,0,0-3.41-1.59l-1.21-.37c-.2-.06-.6-.22-.6-.22l.65.07c.41,0,.84.17,1.25.19,1.22.05,4.71.93,5.22.84.14,0,.51,0,.46-.3s-2.53-1.3-3.21-1.48c-1.42-.37-3-.85-3.34-1-.05,0-.39-.07-.41-.12s.34-.05.36-.06c.34-.06,6.91.21,6.8,0-.25-.47-.95-.65-1.49-.82a19.1,19.1,0,0,0-4.27-.58c-.49,0-1-.06-1.47-.12-.07,0-.51,0-.55-.07s.31,0,.36,0c.27,0,.66,0,1-.07a24.07,24.07,0,0,1,3.51-.22c.45,0,1.7.06,1.72-.14.08-.62-4.68-.91-5.58-.88A41.13,41.13,0,0,0,450.36,161Z"/><path class="cls-14" d="M413.53,154.93c6.23,5,13.72,21.27,13.72,21.27a52.06,52.06,0,0,0,6.1-4.08c8.6-6.67,14.53-12.16,16.23-9.79,2.2,3.08-20.72,32.71-27,25.77-8-8.78-17.3-18.08-17.53-24.19C404.93,161.08,413.53,154.93,413.53,154.93Z"/><path class="cls-23" d="M386.28,190.56h.27l0,0h0l0,0h0l0,0,0,0,0,0,0,0,0,0,0,0,0,0,0,0,0,0,0,0,0,0,0,0,0,0,0,0,0,0,0,0,0,0,0,0v0l0,0v.19l0,.24,0,.14v1l0,.11,0,.11,0,.1,0,.09,0,.09,0,.16,0,.07v.26h0v0h0v0h0V194l0,.05v0h0l0,0h0l0,0h.73l0,0h0l0,0,0,0,0,0,0,0,0,0,0,0,0,0,0,0,0,0,0,0,0,0,0,0,0,0,0,0,0,0,0,0,0,0v0l0,0v0l0,0v.62l0,0v.07l0,0,0,0v0l0,0,0,0,0,0,0,0,0,0,0,0,0,0,0,0,0,0,0,0,0,0,0,0,0,0h0l0,0,0,0-.09.09-.07,0-.08.06-.08.07-.06,0-.06,0-.06,0-.07,0-.07,0-.08,0-.09,0-.1,0-.1,0h-.6l0,0h-.08l0,0,0,0,0,0h0l0,0,0,0,0,0-.05,0-.07-.07-.05-.06-.05-.06-.06-.08,0-.07,0,0h0l-.09-.11-.06-.08-.07-.09-.06-.09-.07-.1-.06-.11-.07-.11-.06-.11,0-.06,0-.06,0-.07,0-.06,0-.07,0-.07,0-.07,0-.08,0-.08,0-.08,0-.08v-.66l0-.12,0-.11,0-.1,0-.1,0-.09,0-.17,0-.08v-.07l0-.06v-.41l0-.1V192l0-.23v-.46l0,0v-.07l0,0,0,0,0,0,0,0,0,0,0,0,0,0,0,0,0,0,0,0,0,0,0,0,0,0,0,0,0,0,0,0,0,0,0,0,0,0h0l0,0h.38Z"/><path class="cls-24" d="M394.11,152.84s-2.24,4.62,1.24,5.76c8.31,2.73,8.88-7.21,8.88-7.21a32.81,32.81,0,0,1,6.65,2.23,8.55,8.55,0,0,1,4.22,5.72,12.85,12.85,0,0,1,0,3.22,174.93,174.93,0,0,0,1.82,43.58c.11.63.18,1.39-.26,1.77a1.49,1.49,0,0,1-.85.28c-11.43,1.36-21.56,6.3-32.78,1.85.28-3.15.51-6.51.7-10,.42-7.8.61-24.53,1.93-32.48C387.52,156.32,394.11,152.84,394.11,152.84Z"/><path class="cls-25" d="M402.46,146.47c1.86,1.34,4.51-4.46,5.53-6.13s1.76-3.8.68-5.84a4.25,4.25,0,0,1-.58-1.27,2.26,2.26,0,0,1,.33-1.27c1.15-2.51-.39-5.74-2.12-8.54a5.56,5.56,0,0,0-1.59-1.76,5.66,5.66,0,0,0-2.69-.78c-6.15-.45-9.78,3.36-15.91,3-1.79-.09-3.63-.55-5.42-.66s-3.65.18-4.66,1.34a3,3,0,0,0,.89,4.38,6.08,6.08,0,0,0,3.43.66c-1.65,1.26-1.22,4.08.49,5.92a10.66,10.66,0,0,0,6.74,3c1.8.16,3.59,0,5.36.59C396,140.16,399.8,144.55,402.46,146.47Z"/><path class="cls-13" d="M398.33,157.59a6.92,6.92,0,0,0,5.6-5.85l-2-7.2c-.36-2.12-2.84-3.16-5.32-2.38s-3,3.61-2.67,5.73l.71,7.83C395,157.84,397,157.84,398.33,157.59Z"/><path class="cls-13" d="M391.05,150.6c4,4.18,9.42-1.89,11.41-4.13,3-3.35,5.48-17.43-1.25-20.85s-15,1.25-17.2,5S388.25,147.66,391.05,150.6Z"/><path class="cls-13" d="M401.07,137.74c-.45,1.9,0,3.56.95,3.73,3.12.58,4.65-.12,5.11-2a3,3,0,0,0-2.31-3.72,2.77,2.77,0,0,0-3.75,2"/><path class="cls-25" d="M383.24,129.73c1-2,3.25-3.39,5.51-4.19a42,42,0,0,1,6.46-1.59,21.37,21.37,0,0,1,6.5-.4c4.09.56,4.65,5.36,4.37,8.34-.15,1.53,1.2,2.79,0,3.87a4.32,4.32,0,0,1-2.41.59c-.89.05,1.29,4.76-.54,5.4-.22.08-2.27-1.28-3.53-3.85-.92-1.88-.81-4.41-1.22-5.6-.21-.6-.76-1.64-1.21-1.57a2,2,0,0,0-1.7.66,19.17,19.17,0,0,0-1.4,1.45,13.77,13.77,0,0,1-2.76,2.14c-1.77,1-4.52,1.74-6.64.59a3.7,3.7,0,0,1-1.91-2.53.34.34,0,0,1-.12-.22,6,6,0,0,1,0-1.2,10,10,0,0,1,.25-1.84c0-.14.22-.14.32-.05l-.15.3,0,1.14a5,5,0,0,0-.08,1.51l0,.08v.09a1,1,0,0,0,0-.17,7.51,7.51,0,0,1,.08-2.55,5.18,5.18,0,0,0-.38,1.49,5.61,5.61,0,0,0,.12,1.42.42.42,0,0,0,.3.1,2.14,2.14,0,0,1-.09-.34l.05-1.63a5.72,5.72,0,0,1,.17-.59c0-.24,0-.48.07-.72A.13.13,0,0,0,383.24,129.73Z"/><path class="cls-22" d="M416.35,183.81a180.35,180.35,0,0,0-9-16.28c-2.34-3.6,3.27-13.86,3.31-13.85,7.68,1.76,16.17,19.29,16,19.35C424.38,177.07,416.35,183.81,416.35,183.81Z"/><path class="cls-11" d="M46.74,312.38H469.52s0,32-42.22,29.08H89.24s-42.5,1.67-42.5-29.08"/><path class="cls-12" d="M300.59,327H215.66a5.56,5.56,0,0,1-5.55-5.56h96a5.56,5.56,0,0,1-5.56,5.56"/><path class="cls-10" d="M117.93,99l.24.09.2.15.16.19.1.23,0,.24,0,.25-.09.23-.14.21-.2.16-.22.1-.25,0-.47,0h-.46l-.46,0-.46,0-.47,0-.45,0-.46,0-.46,0-.46,0-.45,0-.46,0-.45,0-.46,0-.22,0-.23,0-.22,0-.23,0-.22,0-.23,0-.22,0-.23,0-.22,0-.22,0-.23,0-.22,0-.22,0-.23,0-.22,0-.22,0-.22,0-.22,0-.23,0-.22,0-.22,0-.22,0-.22,0-.22.06-.22,0-.22,0-.22.06-.21.06-.22.06-.22.06-.22.06-.22.06-.22.07-.21.07-.22.07-.22.07-.21.07-.22.07-.22.08-.22.08-.23.09-.22.08-.21.09-.22.09-.22.1-.22.09-.21.1-.22.1-.21.1-.21.11-.22.11-.21.11-.21.11-.21.11-.21.11-.2.12-.21.12-.21.12-.2.12-.2.13-.21.13-.2.12-.2.13-.2.13-.2.14-.2.13-.19.14-.2.13-.19.14-.19.14-.33.24-.31.24-.31.24-.3.23-.3.24-.28.23-.29.24-.27.23-.27.24-.13.11-.13.12-.13.11-.13.12-.13.12-.12.11-.12.12-.12.11-.13.12-.11.11-.12.12-.12.11-.11.12-.11.11-.11.12-.11.11-.11.12-.11.11-.1.11-.11.12-.1.11-.1.12-.1.11-.1.12-.1.11-.09.11-.1.12-.09.11-.09.11-.09.12-.09.11-.09.11-.09.12-.08.11-.09.11-.08.12-.08.11-.08.11-.08.12-.08.11-.08.11-.08.12-.07.11-.07.11-.08.11-.07.12-.07.11-.07.12-.07.11-.06.11-.07.11-.06.12-.07.11-.06.11-.06.12-.06.11-.06.11-.06.12-.06.11,0,.12-.06.11,0,.11-.06.12,0,.11-.1.23-.1.23-.1.23L88,117l-.09.23-.08.23-.08.23-.08.23-.08.24-.07.23-.07.24-.06.23-.06.24-.06.24-.06.23,0,.24-.06.24,0,.25-.05.24,0,.24,0,.25,0,.24,0,.25,0,.25,0,.25,0,.25,0,.25,0,.26,0,.25,0,.26,0,.26,0,.26V124l0,.26v5.92l0,1.22v8.08l0,.37,0,.37,0,.37,0,.37v1.48l0,.42v1l0,1.1,0,1.25,0,1.39v1.52l0,1.65,0,1.77,0,1.89v2l0,2.11v2.21l0,2.31v7.46l0,5.36,0,5.61,0,5.84v6l0,6.15v85.39l0,.25-.09.23-.15.2-.2.15-.23.1-.25,0-.25,0-.23-.1-.2-.15-.15-.19-.1-.23,0-.25V193.33l0-6,0-5.83,0-5.62,0-5.36v-2.57l0-2.49V163l0-2.31v-2.21l0-2.12v-2l0-1.89v-1.78l0-1.65,0-1.53,0-1.39,0-1.25,0-1.11v-2.12l0-.3v-.5l0-.36,0-.37,0-.36v-.36l0-.35v-7.61l0-1.22v-6.06l0-.27v-.28l0-.27,0-.27,0-.27,0-.27,0-.28,0-.26,0-.27,0-.27,0-.27,0-.26,0-.27,0-.26,0-.27,0-.26.05-.26.06-.27.06-.26.06-.26.06-.26.07-.26.07-.26.08-.26.08-.25.08-.26.09-.26.09-.26.09-.25.1-.26.1-.25.11-.26.1-.25.12-.25.06-.13.06-.13.06-.12.06-.13.06-.13.07-.12.06-.13.07-.12.06-.13.07-.13.07-.12.07-.13.07-.12.08-.13.07-.12.08-.13.07-.12.08-.13.08-.12.08-.13.08-.12.08-.13.09-.12.08-.12.09-.13.08-.12.09-.13.09-.12.09-.12.09-.13.1-.12.09-.13.1-.12.1-.12.1-.13.1-.12.1-.12.1-.13.1-.12.11-.12.11-.13.1-.12.11-.12.11-.12.12-.13.11-.12.12-.12.11-.13.12-.12L91,109l.12-.13.12-.12.12-.12.13-.12.13-.13.12-.12.13-.12L92,108l.13-.12.14-.12.13-.13.14-.12.14-.12.14-.12.28-.25.29-.25.3-.24.3-.25.31-.25.32-.24.32-.25.33-.25.33-.25.21-.15.2-.15.21-.14.21-.15.21-.14.21-.14.21-.14.22-.14.21-.13.22-.14.22-.13.22-.13.22-.13.22-.13.22-.13.23-.12.22-.12.23-.12.23-.12.22-.11.23-.12.23-.11.24-.11.23-.1.24-.11.23-.1.24-.1.24-.09.24-.1.24-.09.24-.09.24-.08.23-.08.23-.08.23-.08.23-.07.23-.07.23-.07.24-.07.23-.07.23-.06.23-.06.23-.06.23-.06.24-.06.23-.06.23,0,.23,0,.24,0,.23-.06.23,0,.23,0,.24,0,.23-.05.23,0,.24,0,.23,0,.23,0,.23,0,.24,0,.23,0,.24,0,.23,0,.23,0,.24,0,.23,0,.23,0,.24,0,.23,0,.24,0,.46,0,.47,0,.47,0,.47,0,.47,0,.47,0,.47,0,.47,0,.47,0,.46,0,.48,0h.46l.47,0Z"/><path class="cls-10" d="M389.34,312.37l.32.2.22.3.09.36-.05.37-.19.32-.31.22-.36.09H388l-.7,0-.78,0-.88,0-1,0h-1.05l-1.14,0-1.22,0H379.9l-1.39,0H377l-1.55,0h-6.95l-1.92,0-4.06,0h-4.32l-4.58,0-4.83,0H240.25l-14.6,0H211l-14.62,0-28.77,0-14,0H140.07l-13.06,0H54.27l-2.71,0H47.15l-.37-.07-.31-.2-.21-.31-.07-.37.07-.36.2-.32.31-.2.36-.08h4.42l2.71,0h85.81l13.56,0h14l28.77,0H211l14.65,0,14.6,0h113.4l4.58,0,4.32,0,4.06,0h5.54l1.7,0H377l1.47,0h1.39l1.3,0h1.22l1.14,0,1,0h1l.87,0,.78,0,.69,0H389Z"/><path class="cls-10" d="M47,313l.18.06.16.1.14.13.11.15.19.33.19.34.19.33.19.33.18.33.18.33.17.33.17.33.17.33.17.33.16.32.16.33.16.32.16.32.31.64.3.63.31.63.29.62.3.62.15.3.15.31.15.3.15.3.15.3.15.3.16.29.15.3.16.29.16.29.16.29.17.29.16.29.17.28.17.28.18.29.08.13.09.14.09.14.1.14.09.14.09.14.09.13.1.14.1.14.09.13.1.14.1.13.1.14.1.13.1.14.11.13.1.13.1.14.11.13.11.13.11.13.11.13.11.13.12.13.11.13.12.13.12.13.11.13.13.13.12.13.12.12.13.13.12.13.13.12.13.13.13.12.14.13.13.12.14.13.14.12.14.13.14.12.15.12.14.12.15.12.15.13.15.12.16.12.19.14.19.14.18.14.2.14.19.14.19.13.19.14.2.13.19.13.2.12.2.13.2.12.2.12.2.12.2.12.2.12.2.11.21.12.2.11.21.11.2.1.21.11.21.1.2.11.21.1.21.1.21.1.22.09.21.1.21.09.21.09.22.09.21.09.22.09.22.08.21.09.22.08.22.08.22.08.22.08.22.08.22.07.22.08.22.07.23.07.22.07.22.07.23.07.22.07.23.06.23.07.22.06.23.06.23.06.23.06.22.06.23.06.23.05.23.06.23.05.23.05.24.06.23.05.23,0,.23.05.24.05.23.05.23,0,.24.05.23,0,.24,0,.23,0,.47.08.47.08.48.08.47.06.48.07.47.07.48.06.47.06.48.05.48,0,.48.06.48,0,.47.05.48,0,.48,0,.48,0,.48,0,.48,0,.47,0,.48,0,.48,0,.48,0,.95.06.94.06.95.06.88.05.89.05.89.05.89,0,.89,0,.89,0,.89,0,.89,0,.89,0,.89,0,.89,0,.89,0,.89,0,.89,0,.89,0,.89,0,.89,0,.9,0h.89l.89,0,.89,0H142l1.79,0h1.79l.18,0,.18.05.17.09.14.13.12.14.09.17.05.18,0,.18,0,.19-.06.18-.09.17-.12.14-.15.12-.16.08-.18.06H108.94l-.9,0h-.89l-.89,0h-.9l-.9,0-.89,0-.89,0-.9,0-.89,0-.9,0-.89,0-.9,0-.89,0-.9,0-.89,0-.89,0-.9,0-.89,0-.89,0-.9-.05-.89-.05-.9,0-.89-.05-1-.06-1-.06-1-.06-.48,0-.48,0-.48,0-.49,0-.48,0-.49,0-.48,0-.49,0-.48-.05-.49,0-.49-.05-.49-.05-.48-.06-.49-.05-.49-.06-.49-.07-.49-.06-.48-.07-.49-.07-.49-.08-.48-.08-.49-.08-.24,0-.24-.05-.25,0-.24-.05-.24-.05-.24,0-.24-.05-.24-.05-.24-.05-.24,0-.24-.06-.24-.05-.24-.06-.24-.06-.24-.06-.24-.05-.24-.06-.24-.07-.24-.06L70,339.2l-.24-.07-.24-.07-.23-.07-.24-.07-.23-.07-.24-.07-.23-.07-.24-.08-.23-.07-.24-.08-.23-.08-.23-.08-.23-.09-.23-.08-.23-.09-.23-.09-.23-.08-.23-.09-.23-.1-.23-.09-.22-.1-.23-.09-.23-.1-.22-.1-.23-.11L64,337l-.22-.11-.23-.1-.22-.11-.22-.11-.22-.12-.22-.11-.22-.12-.22-.12L62,336l-.22-.12-.21-.12-.22-.13-.21-.13-.22-.13-.21-.13-.21-.14-.21-.13-.21-.14-.21-.14-.21-.14-.2-.15-.21-.14-.21-.15-.2-.15-.2-.16-.2-.15-.17-.13-.16-.13-.17-.13-.16-.13-.15-.14-.16-.13-.16-.13-.15-.13-.15-.14-.15-.13-.14-.14-.15-.13-.14-.14-.14-.14-.14-.13-.14-.14-.14-.14-.13-.14-.13-.13-.13-.14-.13-.14-.13-.14-.13-.14-.12-.14-.12-.14-.12-.15-.13-.14-.11-.14-.12-.14-.12-.15-.11-.14-.11-.14L54,329.1l-.11-.14-.1-.15-.11-.14-.11-.15-.1-.14-.11-.15-.1-.15-.1-.14-.1-.15-.1-.15-.1-.14-.1-.15-.09-.15-.1-.15-.09-.15-.19-.3-.18-.29-.18-.3-.17-.31-.18-.3-.16-.3-.17-.31-.16-.3-.17-.31-.15-.3-.16-.31-.16-.31-.15-.31-.16-.31-.15-.31-.15-.31-.3-.62-.3-.62-.3-.63-.3-.63-.31-.63-.15-.32-.16-.31-.16-.32-.16-.32-.16-.32-.16-.32-.17-.31-.17-.32-.17-.32-.18-.32-.18-.32-.18-.32-.18-.33-.19-.32-.08-.17,0-.18v-.19l0-.19.06-.17.1-.16.13-.14.15-.11.17-.08.18,0h.19Z"/><path class="cls-10" d="M210.23,320.81l.15,0,.15.07.13.09.11.1.1.13.07.14.06.15v.07l0,0v.06l0,.06,0,.06,0,.06v.05l0,.06,0,.05,0,.06,0,.05,0,0,0,.06,0,.05,0,.05,0,.05,0,.05,0,0,0,.05,0,.05,0,.05,0,.05,0,0,0,.05,0,.05,0,0,.06.09.07.09.07.09.07.09.07.08.08.09.08.08.08.08.09.08.08.07.09.08.1.07.09.08.1.07.1.07.1.07.1.06.11.07.11.06.11.07.12.06.11.06.12.06.12.06.13.05.12.06.13,0,.13.06.13.05.14.05.13,0,.14,0,.14.05.14,0,.14,0,.15,0,.14,0,.15,0,.15,0,.15,0,.15,0,.15,0,.16,0,.15,0,.16,0,.16,0,.16,0,.16,0,.16,0,.16,0,.16,0,.17,0,.16,0,.17,0,.16,0,.17,0,.17,0h.16l.17,0,.34,0,.34,0,.34,0,.34,0h.34l.34,0h10.11l1.83,0h22l1.95,0h3.76l1.79,0,3.37,0,3,0,2.63,0,2.16,0,1.62,0h1.54l.15,0,.14.06.14.08.11.11.1.12.08.14.05.15,0,.15v.16l0,.16-.05.15-.07.14-.1.12-.11.11-.14.09-.14.07-.15,0h-.16l-1.38,0-1.62,0-2.16,0-2.63,0-3,0-3.37,0h-3.65l-1.9,0H220.71l-.36,0-.35,0-.36,0-.36,0-.35,0-.18,0-.18,0-.18,0-.18,0-.18,0-.17,0-.18,0-.18,0-.17,0-.18,0-.17,0-.18,0-.17,0-.18,0-.17,0-.17,0-.17,0-.18,0-.16,0-.17,0-.17,0-.17-.05-.17,0-.16-.05-.17-.05-.16-.05-.16,0-.16-.06-.16-.06-.16-.06-.15-.06-.16-.06-.15-.06-.16-.07-.15-.07-.15-.07-.14-.07-.15-.08-.14-.08-.15-.08-.14-.08-.14-.09-.13-.09-.14-.09-.13-.09-.13-.1-.13-.1-.13-.1-.12-.1-.12-.11-.12-.11-.11-.11-.12-.12-.11-.12-.11-.12-.1-.12-.1-.13-.1-.13L210,324l-.05-.07,0-.07-.05-.07,0-.07,0-.07,0-.08,0-.07,0-.07,0-.08,0-.07,0-.08,0-.07,0-.08,0-.08,0-.08,0-.07,0-.08,0-.08,0-.08,0-.09,0-.08,0-.08,0-.09,0-.08,0-.08,0-.09,0-.15v-.16l0-.15.05-.15.08-.14.1-.13.11-.1.14-.09.14-.06.15,0h.32Z"/><path class="cls-10" d="M210.28,118.65l.21,0,.2.08.18.11.15.15.12.18.07.21,0,.21,0,.21-.07.2-.11.18-.15.16-.18.11-.21.07-.21,0-104.33-.3,0,3.56-.15,12.08-.22,17.44-.13,10L105.25,174l-.15,10.81L105,195.56,104.82,206l-.07,5-.07,4.86-.07,4.65-.06,4.41-.07,4.12,0,3.81-.06,3.46-.05,3.07,0,2.66,0,1.16,0,1,0,.21-.07.2-.12.18-.16.15-.18.11-.2.07-.21,0-.22,0-.2-.08-.18-.11-.15-.16-.11-.18-.06-.21,0-.21,0-1,0-1.16,0-2.65,0-3.08.05-3.45.06-3.81.06-4.12.07-4.4.06-4.65.07-4.87.07-5,.15-10.48.14-10.79.14-10.81.14-10.57.13-10.05.23-17.44L104,123.8l0-4.51,0-.21.07-.2.12-.18.15-.15.18-.12.2-.06.21,0Z"/><path class="cls-10" d="M253.6,6.79h.08l.08,0,.07,0,.08,0,.07,0L254,7l.07,0,.06.06.05,0,.06.06,0,.07,0,.07,0,.07,0,.07,0,.08v.39l0,.08,0,.07-.19.53-.19.54-.2.53-.19.53-.2.53-.21.53-.2.53-.21.53-.21.52-.21.53-.21.52-.21.53-.22.52-.21.52-.43,1-.43,1.05-.43,1-.22.52-.21.52-.21.52-.21.52-.21.52-.21.52-.2.52-.2.52-.2.52-.2.52-.19.53-.19.52,0,.07,0,.08,0,.06-.05.07,0,.05-.06.06-.06.05-.07,0-.07,0-.07,0-.07,0-.08,0-.07,0h-.24l-.08,0h-.08l-.07,0-.07,0-.08,0-.06-.05-.07,0-.05-.06-.06-.05,0-.06,0-.07,0-.07,0-.07,0-.07,0-.08v-.31l0-.08v-.08l0-.07.19-.53.2-.54.2-.53.2-.53.21-.53.2-.53.21-.52.21-.53.22-.52.21-.53.21-.52.22-.52.43-1,.43-1,.43-1,.21-.52.22-.52.21-.52.21-.52.21-.52.2-.52.21-.52.2-.52.2-.52.2-.52.19-.52.19-.52.19-.53.18-.52,0-.08,0-.07,0-.06.05-.07,0-.06.05,0,.06,0,.07,0,.07,0,.07,0,.07,0,.08,0,.08,0h.23Z"/><path class="cls-10" d="M264.61,20.46h.2l.06,0,.07,0,.05,0,.06,0,.06,0,.05,0,0,0,.05.05,0,.05,0,.05,0,.06,0,.06,0,.06,0,.06,0,.06,0,.07v.4l0,.06,0,.06,0,.07,0,.05,0,.06,0,.06-.05.05,0,.05-.05,0-.36.31-.37.31-.36.31-.37.31-.37.31L263,24l-.38.3-.37.3-.37.31-.38.29-.37.3-.38.3-.38.3-.37.29-.76.59-.76.59-.75.58-1.52,1.16-.75.58-.75.58-.75.58-.38.29-.37.3-.05,0-.06,0-.06,0-.06,0-.06,0-.07,0-.06,0h-.33l-.07,0-.06,0-.07,0-.06,0-.06,0-.05,0-.06,0,0,0-.05-.05,0-.05,0,0,0-.06,0-.06,0-.06,0-.06,0-.06v-.07l0-.06v-.33l0-.07,0-.06,0-.06,0-.06,0-.06,0-.06,0,0,0-.05.05-.05,0,0,.38-.29.37-.3.76-.58.75-.58.76-.59,1.51-1.16.76-.58.75-.58.75-.59.37-.29.38-.29.37-.3.37-.29.37-.3.37-.29.37-.3.36-.3.37-.3.36-.3.37-.3.36-.31.35-.3.36-.31.06,0,.05,0,.06,0,.06,0,.06,0,.06,0,.07,0h.26Z"/><path class="cls-26" d="M219.75,17.47c-.6-1.2-4.63-4.82-5.84-5.78-4.1-3.25-10.25-5-13.6-1.93-4.09,3.73-4.81,9.42-1.19,20.16,1.25,3.68,7.37,9.18,9,8.35,1.28-.64,10-7.6,11.8-11.51A12,12,0,0,0,219.75,17.47Z"/><path class="cls-26" d="M207.15,29.3c1.5-2.33-1-6.56-5.79-5.37-.58.14-4.56,6.76-8.92,11.06a27.4,27.4,0,0,0,2.64,3.23c.56.64,6.76,7.92,6.82,5C202.08,34.83,206,31,207.15,29.3Z"/><path class="cls-26" d="M198.17,32.19c1.82.37,7.87,14.44,7.67,15.8-.51,3.36.61,38-.42,38.41-4.34,1.85-18.25,4.35-18.25,1.09,0-1.09-1.48-38.34-1.1-44.65.22-3.56,3.33-5.65,4-6.49C191.29,34.86,197.17,32,198.17,32.19Z"/><path class="cls-26" d="M232.39,90c8.06.81,16.13,2.69,24.23,3.13a299.25,299.25,0,0,1,30.59,3.1c4.5.73,9.23.87,13.53,1.56.58.09,3.29.32,3.49,1,.11.34-4.81,1.57-5.38,1.7-3.19.69-6.48.7-9.69,1.28s-6.6,1.69-9.82,1.89c-5.89.35-11.76,1.23-17.6-.17-1.84-.44-3.57-1.38-5.4-1.82-.49-.11-1.27-.91-1.77-.75-7.26,2.28-17.13,1.26-25,1.82-10.82.77-22.59,3.78-33.23.69-3.84-1.12-10.41-4.83-9.63-9.69.29-1.79-.69-14.21.1-14.77C187.82,78.22,226.38,89.39,232.39,90Z"/><path class="cls-27" d="M200.51,38c1.91,0,10.6,19.07,17.76,21.93,5.7,2.27,15.87-.22,21.7-2.83a6.13,6.13,0,0,1,4.19-.18c3,1,4.75,4.21-.23,4.55-2,.13-4.84,2.15-6.4,2.94-5.86,3-11.3,4.47-20.29,5.05-2.69.17-6.56-1-17.19-12.67C192,47.93,193.29,38.15,200.51,38Z"/><path class="cls-28" d="M210,70.44s-2.55-7.39-2.47-10.19c.06-2-1.22-14.64-5.24-22.85-.83-1.7-8.64-4.63-11.46-3.09-10.86,6-5.4,29.89-5,31.75.22.93-2,5.63-1.48,6.44a10.81,10.81,0,0,0,2.26,3.08c2.19,1.66,5.83,1.23,8.36,1.14C200.47,76.52,207,74.39,210,70.44Z"/><path class="cls-27" d="M191.39,41.74s4.9-1.5,6.69-.1c4.85,3.82,5.81,7.16,3.95,16.85-1.22,6.37-9.8,8.29-12.11-.25C188.66,53.61,188.55,45.14,191.39,41.74Z"/><path class="cls-29" d="M198,99.12s30.1,13.08,31.81,14.73c.43.42,2.48,8.19,3.4,11.61,2.11,7.84,6.77,12.9,11.6,29.48.47,1.62,3,5.64,3.17-1.12.24-10.76-3.79-39-4.06-41.84-.81-8.75-23.91-20.87-29.23-25.87s-12-.71-13.45.3C199,87.91,195.91,95.41,198,99.12Z"/><path class="cls-22" d="M210.18,83.23s31.91,20,33.88,27.41c.41,1.54,4.69,28.2,4.72,32.68l-10.1,2.82s-7.72-19.69-9.78-32.08L205.67,104S197.79,84.24,210.18,83.23Z"/><g class="cls-30"><path class="cls-5" d="M203.82,87.78h.05l.12,0,.12,0,.13,0,.12,0h.07l.06,0,.06,0,.06,0,.06,0,.06,0,.06,0,.05,0,.22.14.23.14.24.15.12.08.11.08.12.08.12.08.12.08.11.08.12.08.11.09.11.08.1.09.21.17.21.17.21.16.21.16.1.07.11.08.2.16.21.15.21.15.2.14.21.15L209,91l.21.14.21.13.21.14.21.13.21.14.21.13.22.12.21.13.22.13.21.13.22.12.22.13.22.12.21.12.23.14.45.27.45.26.46.28.2.11.2.12.2.12.2.12.39.25.39.25.39.24.39.26.39.25.33.23,0,0,.39.26.38.27.38.26.37.27.38.27.37.27.38.27.37.27.37.28.37.27.37.28.36.27.08.06.66.5.72.56.73.56.73.56.72.55.37.28.36.27.11.09.11.08.23.16.23.17.23.16.24.16.23.15.24.16.24.16.25.15.24.16.49.31.5.32.25.16.24.16.25.16.25.16.24.17.25.17.24.17.24.17.24.18.12.09.12.08.12.1.12.09.12.09.11.09.12.1.11.1.12.09.11.1.11.1.11.1.11.1.11.11.11.1.11.11.11.1.1.11.12.13.12.13.12.14.12.13.11.14.11.14.11.14.11.14.1.14.1.15.1.14.09.15.1.15.09.15.09.16.08.15.08.16.08.15.08.16.07.16,0,.1,0,.07.07.16.07.16.06.17.06.17.05.17.05.16,0,.18.05.17,0,.17,0,.17,0,.17v.06l0,.1,0,.16.05.2.14.52.19.67.22.82.27.94.62,2.22L238,121l0,.09.79,2.87.42,1.51.42,1.55.43,1.56.19.7.23.88.42,1.58.41,1.57.21.8.19.74.38,1.51.37,1.46.35,1.4.17.67,0,.17.12.48.16.63.14.61.15.59.13.56.13.53.12.51.1.47.1.45.1.41.07.38.08.34,0,.16,0,.14,0,.14,0,.13,0,.12,0,.11v.53l0,0,0,0-.24,0h0l-.05-.24v0h0V147h0v-.09l0-.09,0-.11,0-.11,0-.13,0-.13,0-.14,0-.16-.08-.34-.09-.37-.1-.4-.12-.44-.12-.47-.14-.5-.14-.53-.15-.55-.17-.58-.17-.6-.18-.63-.13-.48-.05-.16-.19-.67-.4-1.38-.43-1.44L241,135l-.22-.74-.23-.79-.46-1.55-.46-1.57-.26-.87-.2-.69-.45-1.56-.45-1.54-.44-1.51-.83-2.86,0-.08-.72-2.5-.64-2.22-.27-.94-.24-.82-.19-.67-.15-.53-.05-.2,0-.16,0-.13,0-.08,0-.16,0-.16,0-.15,0-.15,0-.14-.05-.15,0-.15-.05-.14-.05-.15-.06-.14-.06-.14,0-.06,0-.09-.07-.14-.07-.13-.07-.14-.07-.14-.08-.13-.07-.14-.08-.13-.09-.13-.08-.13-.09-.13-.09-.13-.09-.12-.1-.13-.09-.12-.1-.12-.1-.12-.1-.12-.11-.12-.11-.12-.11-.11-.09-.1-.1-.09-.1-.1-.1-.09-.1-.1-.1-.09-.1-.09-.11-.09-.1-.09-.11-.09-.1-.09-.11-.09-.11-.09-.11-.08-.11-.09-.11-.08-.11-.09-.12-.08-.23-.17-.23-.16-.23-.16-.24-.16-.24-.16-.24-.16-.24-.15-.24-.16-.25-.15-.49-.31-.5-.31-.25-.16-.24-.16-.25-.16-.25-.16-.25-.16-.24-.16-.24-.17-.25-.17-.23-.17-.12-.09-.12-.08-.37-.28-.37-.27-.73-.56-.73-.55-.73-.55-.73-.56-.66-.49-.07-.06-.37-.28-.36-.28-.37-.27-.36-.27-.37-.28-.37-.27-.37-.27-.36-.27-.37-.26-.38-.27-.37-.26-.37-.26,0,0-.33-.23-.37-.26-.38-.25-.38-.25-.38-.25-.38-.25-.19-.12-.19-.12-.2-.12-.19-.12-.46-.28-.45-.28-.44-.27-.24-.15-.2-.14-.21-.14-.21-.15-.21-.15-.21-.15-.21-.15-.2-.15-.21-.15-.21-.15-.2-.15-.2-.15-.21-.16-.2-.16-.2-.16-.2-.16-.21-.16-.2-.17-.2-.17-.2-.17-.2-.17-.1-.09-.1-.09-.2-.18-.2-.18-.2-.19-.19-.18-.1-.09-.09-.09-.1-.08-.1-.09-.1-.09-.11-.08-.11-.09-.1-.08-.11-.09-.11-.08L205,88.8l-.22-.16-.21-.15h0l0,0h0l-.05,0h0l-.05,0h0l-.05,0h0l-.05,0-.06,0h0l-.06,0-.11,0-.12,0-.13,0-.11,0-.06,0-.06,0-.05,0-.06,0,0,0-.05,0-.05,0,0,0,0,0,0,0,0,0,0,0,0,0,0,0v-.21l0,0,0,0,0,0,0,0,0,0h.29v.17h0l0,0h0l0,0h0l0,0h.09Zm-.2,0h0v-.06h0Z"/></g><path class="cls-5" d="M208.51,72.39s.31,8.74.63,9.75c.21.67,12.73,3.33,19.27,4.39,11.21,1.81,22.65,5,34,6.06,4.56.42,19.09,1.39,20.27,1.58.12,0-1.38,9.71-1.38,9.71s-10.69,3.46-24.54-1.06a3,3,0,0,0-1.39-.34c-2.6.47-26.38,2.09-38.53,3.31-32,3.2-31.72-11.46-31.58-14.84.06-1.46,1-15.45,1-15.45S200.78,73.77,208.51,72.39Z"/><g class="cls-31"><path class="cls-32" d="M192.72,73h0l0,0v0l0,0v0l0,0h0l0,0h0l0,0h0l0,0,0,0h0l0,0,.07.08.07.1.07.1,0,0,0,.05,0,.06,0,0,0,.06,0,.06,0,.06,0,.06v.36l0,.07v.07l0,.07v.07l0,.07,0,.07,0,.07,0,.13V75l0,.08,0,.14,0,.13.05.14,0,.13.05.14.05.13,0,.14.1.28.11.27.11.28.06.14.05.15.06.14,0,.15.05.15.05.15,0,.15.05.15,0,.16,0,.16,0,.16,0,.08,0,.08v1l0,.08,0,.17,0,.16,0,.16,0,.16v.37h0v.15h0v.34l0,.22,0,.23.05.23.05.23,0,.23.06.23.06.23.06.23.05.2v0l.06.23.07.23.06.23.07.23.07.23.07.23.07.24.15.46.15.46.3.93.15.46.14.46.08.23.07.23.07.24.07.23.06.23.07.24.06.24.07.25.13.51.07.25.07.26.07.26.07.26.08.26,0,.13,0,.13,0,.13,0,.13,0,.12,0,.13,0,.13,0,.12,0,.13.05.12,0,.12.05.12.05.12.06.12.05.12.06.11.06.11.06.11.06.11.06.11.06.1.07.11.07.1.07.1.07.09.07.1.07.09.08.09.08.08.07.08.08.09.09.07,0,0,0,0,.05,0,0,0,0,0,0,0,0,0,.05,0,0,0,.05,0,.05,0,0,0,0,0,.05,0,.05,0,0,0,.05,0,.06,0,0,0,.05,0,.05,0,.06,0,.05,0,.06,0,.06,0,.07,0,.06,0h.06l.07,0h.07l.07,0h.07l.07,0h.08l.15,0,.16,0,.16,0,.16,0h3.51l1.11,0,1.11,0,1.11,0,1.11,0,1.11,0,1.11,0,2.23.06,1.11,0,1.12,0,1.11,0,1.12,0,1.11,0,1.12,0,.56,0,.56,0,.56,0,.56,0,1.33.06,1.34.05,1.34,0,1.34,0,1.33,0,1.34,0,1.33,0,1.34,0,2.67.08,2.67.08,2.14.07h.52l1.34,0,1.33,0,1.33,0,1.33,0,1.34,0,1.33,0,1.33.06,1.34.06.66,0,.67,0,.67,0,.66,0,.67,0,.67,0,.66,0,.67,0,.67,0,.66,0,.67,0,.67,0,.66,0,.67,0,.67,0,.67,0,.66.06.67,0,.67,0,.67.06.26,0,.26,0,.52,0,.53,0,.54,0,.54,0,.54,0,.54,0,.55,0,1.11,0,1.11.06.56,0,.56,0,.56,0,.56,0,.56,0,.56,0,.28,0,.28,0,.28,0,.28,0,.28,0,.27,0,.28,0,.28,0,.28,0,.27,0,.28,0,.27,0,.28,0,.27,0,.27.05.27,0,.27,0,.27,0,.27,0,.27,0,.27.06.26,0,.27.06.26.06.26.06.25.06h0l.26.06.26.07.24.42-.41.24-.26-.06-.25-.07h0l-.25-.06-.25-.06-.26-.06-.26,0-.26-.06-.26,0-.26,0-.27-.05-.26,0-.27,0-.27,0-.26,0-.27,0-.27,0-.27,0-.27,0-.28,0-.27,0-.27,0-.28,0-.27,0-.28,0-.28,0-.27,0-.28,0-.28,0-.55,0-.56,0-.56,0-.55,0-.56,0-.56,0-1.11-.06-1.1,0-.55,0-.55,0-.55,0-.54,0-.54,0-.53,0-.53,0-.26,0-.26,0-.67,0-.67-.05-.66,0-.67,0-.66,0-.67,0-.67,0-.66,0-.67,0-.66,0-.67,0-.66,0-.67,0-.67,0-.66,0-.67,0-.66,0-.67,0-.66,0-.67,0-1.33-.06-1.33,0-1.33,0-1.33,0-1.34,0-1.33,0-1.33,0-1.33,0h-.52l-2.15-.06-2.67-.08-2.67-.07-1.33,0-1.34,0-1.33,0-1.34,0-1.34,0-1.34,0-1.34,0-1.34,0-.56,0-.55,0-.56,0h-.56l-1.11,0-1.12,0-1.11,0-1.11,0-1.12,0-1.11,0L212,97l-1.11,0-1.11,0-1.11,0-1.11,0-1.12,0-1.11,0h-3.56l-.18,0-.17,0-.18,0-.17,0H201l-.09,0-.08,0h-.08l-.09,0-.08,0-.08,0-.08,0-.08,0-.07,0-.08,0-.07,0-.08,0-.07,0-.07,0-.06,0-.07,0-.07,0-.06,0-.06,0-.07,0-.06,0-.06,0-.06,0-.06,0-.06,0-.06,0,0,0-.06,0-.06,0-.05-.05,0,0-.06,0-.05-.05-.1-.09-.1-.1-.1-.1-.09-.11-.09-.1-.09-.11-.09-.11-.08-.12-.08-.11-.08-.12-.08-.12-.07-.12-.07-.12-.07-.12-.07-.13-.06-.12-.07-.13-.06-.13-.06-.13-.06-.13-.05-.13-.06-.13,0-.13-.05-.14-.05-.13,0-.14-.05-.13,0-.14,0-.13,0-.14-.05-.13,0-.14-.08-.27-.08-.27-.07-.26-.07-.27-.07-.26-.14-.5-.06-.25-.07-.24-.06-.23-.06-.22-.07-.23-.07-.22-.07-.23-.07-.23-.15-.45-.15-.46-.3-.93-.16-.46-.14-.47-.08-.24-.07-.23-.07-.24-.07-.23L194.3,84l-.07-.24-.06-.24v0l0-.21-.06-.24-.05-.24L194,82.6l0-.24,0-.24-.05-.25,0-.24,0-.25v-1l0-.09,0-.16,0-.16,0-.16,0-.16v-.22h0v-.15h0v-.47h0l0-.07v-.07l0-.15,0-.14,0-.14,0-.14,0-.14,0-.14,0-.14,0-.14,0-.14-.05-.14-.05-.14-.1-.28-.1-.28-.1-.28-.05-.15,0-.14-.05-.15,0-.14-.05-.15,0-.15,0-.15,0-.1v-.06l0-.15v-.81h0v0h0v0h0v0h0V74h0l0,0h0l0,0h0l0-.05,0,0h0l0,0,0-.1-.06-.1-.06-.1,0,0,0-.06,0,0,0,0,0-.06,0,0,0-.06v-.28l0,0v0l0,0,0,0,0,0,0,0,0,0,0,0h0l.28.08-.07.28h0v0Zm0,0h0l0,0v0h0l0,0Zm0,0v0Zm0,0h0Zm0,0h0Zm0,0h0Zm0,0h0Zm0,0h0Zm0,0h0Zm0,0Zm0,0Z"/><path class="cls-32" d="M203.64,74.25v.44h0v.1h0v.1h0v.21h0v.73l0,.22v1.6l0,.14,0,.14,0,.14,0,.14,0,.14,0,.14,0,.13,0,.14,0,.16,0,.11-.08.27-.08.26-.09.26-.08.26-.08.25-.09.25,0,0,0,.06,0,0,0,.06,0,0,0,.05,0,0h0l0,0-.07.09-.06.09-.07.09-.07.09-.07.08-.06.08-.13.15-.06.07-.06.07-.05.07h0l0,.07-.1.14-.1.14-.11.14-.11.14-.1.14-.11.14-.12.13h0l-.11.13-.11.13-.12.13-.12.13-.12.12-.13.13-.13.12-.12.12L200,84l-.06.06-.07.06-.07.05-.07.06-.07.05-.07.06-.07.05-.07,0-.07,0-.05,0,0,0-.08,0-.07.05-.08,0-.07,0-.08,0-.08,0-.08,0-.08,0-.08,0-.08,0-.08,0-.08,0-.09,0-.08,0-.09,0-.08,0-.09,0-.09,0-.09,0-.08,0h0l-.09,0-.09,0-.06,0h-.07l-.07,0h-1.73l0,0h-.12l-.21-.07h0l.07-.2,0,0h0l0,0,.05,0,0,0,.06,0h1.78l.06,0h0l.09,0,.08,0h0l.08,0,.08,0,.08,0,.08,0,.08,0,.07,0,.08,0,.08,0,.07,0,.07,0,.08,0,.07,0,.07,0,.07,0,.07,0,.07-.05.07,0,.06,0,.07-.05.06,0,0,0,0,0,.06,0,.06-.06.07,0,.06,0,.06-.06.06,0,.06-.06.06-.06.05,0,.12-.12.11-.12.11-.12.1-.13.11-.13.1-.13.1-.13.1-.13.09-.13h0l.09-.13.1-.14.09-.14.09-.14.09-.14.09-.15.09-.14.05-.09.06-.08.05-.09.06-.08.12-.16.06-.08.05-.08.06-.08,0-.08h0l.05-.08,0-.08h0l0,0h0l0,0h0l0,0h0l0,0h0l0,0h0l0,0v0l0,0L202,80l.07-.26.07-.25.06-.26.07-.25.06-.26,0-.11,0-.15,0-.13,0-.13,0-.13,0-.13,0-.12,0-.13,0-.13,0-.13,0-.08v0l0-.13,0-.12,0-.13,0-.13,0-.12,0-.13v-.12l0-.13V76l0-.21,0-.22,0-.11v-.23l0-.11,0-.11,0-.12,0-.11v0l0-.06v-.06l0,0,0-.06,0,0h0v0h0v0h0v0h0V74l0,0v0l0,0,0,0h0l0,0,.05,0,0,0h.13l.15.25-.25.15h.1l0,0,0,0v0h0v0h0v0h0v0Z"/><path class="cls-32" d="M204.36,76.26h0l0,0h0v0l0,0,0,0v0h0V77l0,.14,0,.12v.05h0v0l-.06.4,0,.2,0,.2,0,.19,0,.2,0,.19,0,.2,0,.19,0,.2,0,.19,0,.19-.05.2-.05.19,0,.2-.06.2,0,.1,0,.11,0,.1,0,.1,0,.1,0,.1,0,.09,0,.1,0,.09,0,.09,0,.09,0,.09,0,.09,0,.08,0,.06,0,0,0,.08-.05.08,0,.09,0,.08,0,.07,0,.08-.05.08,0,.08-.05.07-.05.07,0,.08-.05.07,0,.07-.05.07-.06.07-.1.14-.12.13-.11.14-.12.13-.12.13-.12.13-.12.12-.13.13-.13.13,0,0-.1.1-.14.12-.28.26-.29.26-.3.27-.21.19-.11.11-.12.11-.13.1-.05,0-.08.06-.14.11-.07,0-.07,0-.07.05-.08,0-.07,0-.08,0-.08,0-.07,0-.08,0-.05,0h0l-.09,0-.08,0-.08,0-.08,0-.09,0-.08,0h-.09l-.08,0-.26,0-.28,0h-.14l-.15,0-.14,0-.15,0-.15,0-.14,0-.13,0-.13,0h-.12l-.05,0h0l-.05,0h0L196,87h0L196,87h0l0,0-.31-.1h0l.11-.31,0,0,.06,0,0,0,.06,0,.06,0,.07,0,.06,0,.07,0,.13,0,.15,0,.14,0,.15,0,.15,0,.15,0,.15,0h0l.11,0,.27,0,.24-.05.07,0h0l.07,0h0l.07,0h0l.07,0h0l.07,0h0l.07,0,.06,0h0l.07,0,0,0,0,0h0l.07,0,.06,0h0l.06,0,.07,0,.06,0,.06,0,.06,0,.06,0,.06,0,.12-.1.08-.06.05,0,.11-.1.12-.1.11-.1.22-.18.3-.27.3-.25.28-.25.13-.12.1-.09,0,0,.13-.12.13-.11.12-.12.12-.12.12-.12.11-.12.11-.12.11-.12.1-.12,0-.06.05-.06,0-.07.05-.06.05-.07,0-.06,0-.07,0-.07.05-.07,0-.07.05-.07,0-.07,0-.07,0-.07.05-.08v0l0,0,0-.08,0-.08,0-.08,0-.08,0-.09,0-.08,0-.09,0-.09,0-.09,0-.09,0-.09,0-.09,0-.1,0-.1.06-.19.06-.19.06-.18,0-.19.06-.19,0-.18,0-.19.05-.19,0-.19,0-.19,0-.19,0-.19,0-.19,0-.19.07-.4v0l0,0,0-.12,0-.13,0-.07h0l0-.07v-.2h0l0,0,0,0,0,0-.11-.27h0l.27-.1Z"/><path class="cls-32" d="M189.75,74.67l.08-.22h0l.21.09,0,0,0,.05,0,0,0,.06v0l0,0v1.26h0v.05h0v.48l0,.44v1.55l0,.11v.1l0,.11,0,.11v.1l0,.11v0l0,.08,0,.1,0,.1,0,.1,0,.07,0,.09.06.21,0,.12,0,.12,0,0,0,.07,0,.13h0l0,.06,0,.06h0v-.42h0V79l0-.22V74.65h0v-.07h0V74.5l0-.06h0v0h0v0h0v0h0l0,0h0v0h0v0h0l0-.27.29,0v0l0,0v.36l0,.08h0v.51h0v0h0v0h0l0,.2,0,.2,0,.21,0,.2v.4l0,.4,0,.34v.26l0,.2v.2l0,.2,0,.2,0,.2,0,.27v.05l0,.22v1.77l0,.12v.2l0,.07v.07l0,0v0l0,0v0h0l0,0,0,0,0,0,0,0h-.25l-.05,0,0,0,0,0,0,0,0,0,0,0,0,0,0,0,0,0,0-.05,0-.06,0-.05,0-.06,0-.06,0-.07,0-.06,0-.06,0-.07,0-.07,0-.06,0-.14,0-.08,0-.05,0-.13,0-.12,0-.21,0-.09v-.06l0-.11,0-.11,0-.11,0-.08v0l0-.11,0-.12V79l0-.11v-.68l0-.23v-.23l0-.22V77l0-.45v-.22l0-.21v-.31l0-.1,0-.21,0-.1,0-.1,0-.1v0h0v-.1h0v0h0v0h0V75h0v0h0v-.05h0v0h0v0h0v0h0v0h0l0,0h0ZM190.91,81h0Zm0,0h0Z"/><path class="cls-32" d="M187.63,74.63v0h0v0h0v0h0v0h0v.17h0l0,.09,0,.1,0,.19,0,.18,0,.08v.2l0,.47,0,.46v.23l0,.23v.46l0,.23,0,.23v.22l0,.12v.11l0,.11,0,.11,0,.11V79l0,.11h0l0,.1,0,.11,0,.11,0,.08,0,.11,0,.11,0,.12,0,.12,0,.13v.2h0v.42l0,.07v.06l0,.07h0V81l0,.06,0,.06,0,.06,0,.06,0,.06,0,0,0,.06,0,0,0,0,0,0-.05,0h-.22l0,0h0l0,0,0,0,0,0,0,0,0,0,0,0,0,0,0-.06,0-.06,0-.07,0-.07,0-.08,0-.08,0-.08,0-.08v-.05l0,0,0-.08,0-.17-.06-.16,0-.15,0-.13,0-.07v0l0-.13,0-.17,0-.17,0-.17,0-.17,0-.17,0-.17,0-.17,0-.18,0-.17,0-.17,0-.17V77.6l0-.17V75.56l0-.35,0-.34,0-.35,0-.34.12-.16.13.16,0,.34,0,.34,0,.34.05.34v0l0,.29,0,.34,0,.34v.16l0,.17v.17l0,.16,0,.17,0,.16v.17l0,.17,0,.16,0,.17,0,.16,0,.17,0,.16,0,.17,0,.16,0,.17,0,.17,0,.16,0,.12v.11l0,.13,0,.15,0,.16,0,.16,0,.09v.08l0,.08,0,.07h0l0,.07v0h0v-.06h0v-.06h0v-.12h0V80.4h0v-.12h0v-.4l0-.1v-.1l0-.09v-.09l0-.11,0-.12,0-.11h0l0-.12v-.24l0-.11v-3h0v-.15l0-.18,0-.2v-.64l0,0,0,0,.27-.07.08.27h0Z"/><path class="cls-32" d="M196.87,76.21l0-.09-.06-.18,0-.1,0-.1,0-.1,0-.1,0-.1V75l.24-.16L197,75v.08h0v0h0v0h0v0h0v0h0v0h0v0h0l0,0h0l0,.09,0,.09h0l0,.09,0,.1,0,.09.07.18,0,.09,0,.08,0,.08,0,.08,0,.06v.06l0,.12,0,.13v0l0,.08v.12l0,.13v.24l0,.23v.12l0,.12V78l0,.11v.11l0,.14,0,.16v.09l0,.09v.38h0v.29l0,.05v0l0,0,0,0,0,0,0,.05,0,0,0,0,0,0,0,0-.05,0,0,0h-.28l-.05,0,0,0,0,0,0,0,0,0,0,0,0,0,0,0,0-.06,0-.07,0-.06,0-.06,0-.07,0-.07,0-.07,0-.07,0-.07,0-.06h0l0-.14,0-.13,0-.12,0-.1,0-.14-.07-.24-.07-.26-.06-.26L196,77.3v0L196,77l-.06-.28,0-.28,0-.14,0-.14,0-.14,0-.14,0-.14,0-.14,0-.14v-.14l0-.14v-.14l0-.14V74.1l0-.13.12-.14.13.13,0,.13,0,.13,0,.12,0,.13,0,.08v0l0,.13v.13l0,.14,0,.13,0,.13,0,.14,0,.13,0,.14,0,.14,0,.13,0,.14,0,.13,0,.14.06.27.07.26.07.27v0l.07.24.07.25.07.25.08.24,0,.14,0,.1,0,.11,0,.12,0,.13h0l0,.06,0,.06,0,.06,0,.06h0v-.25h0v-.08l0-.08,0-.15,0-.15,0-.13V76.51h0v-.11h0v-.06h0l0-.08h0Z"/></g><path class="cls-26" d="M196,40.07c2.07.07,5.16,4.2,8.14,8,4.09,5.21,7.54,10,7.54,10s2.82-14.94,5.18-20.53c1-2.26,3.29,2.09,3.32,2.77.54,9.41,0,26.87-4,29.17-2.51,1.45-5.26,0-18.07-10.74C187.46,49.84,188.18,39.81,196,40.07Z"/><path class="cls-26" d="M216.44,38.77a5,5,0,0,0,.15-1.68,39.52,39.52,0,0,0-.42-4.07,9.06,9.06,0,0,1-.08-1.47c0-.11,0-.42.1-.5.27-.19.67.36.77.54a9.59,9.59,0,0,1,.73,2,3.58,3.58,0,0,0,.21.63c.09,0,.09-.16.12-.24a8.62,8.62,0,0,0,.34-2.2c.22-1.78.3-3.59.52-5.37a14.15,14.15,0,0,1,.32-1.82s.1-.47.17-.46.31.27.37.4a4.75,4.75,0,0,1,.39,1.62,28,28,0,0,1,.07,4.67,13.71,13.71,0,0,0-.08,1.81c0,.1,0-.21.08-.32s.09-.3.13-.45c.14-.5.3-1,.43-1.48.38-1.45.37-3,.62-4.45q.13-.76.3-1.53c0-.08.06-.53.18-.47.54.29.57,1.26.62,1.79a28.73,28.73,0,0,1,0,4.82c0,.61,0,1.22-.09,1.82l-.06.66c0,.11-.07.43,0,.33a58.83,58.83,0,0,0,1.29-6.58c0-.15,0-.3.07-.45s.22-1.83.82-1.21a2,2,0,0,1,.41,1.23,16.07,16.07,0,0,1,0,2.86,19.72,19.72,0,0,1-1.63,6.54c-.49,1.06-1.15,2.06-1.74,3.08a9.05,9.05,0,0,1-1.78,2.46,1.62,1.62,0,0,1-.84.5,3.83,3.83,0,0,1-1.78-.64Z"/><path class="cls-33" d="M239.18,57.79c1.83-1.86,5.47-2.07,6.76-2.56,1-.36,2.73-1,2.95-.42.35.95-3.19,2.5-3.1,2.5.73,0,7.43-1.4,7.69-.73.72,1.88-4.44,1.92-4.95,2.2-.09.06,3.82-.89,3.8.31,0,1.87-4.36,1.48-4.14,1.53.84.18,3.22.09,3.19.61-.09,1.67-3,1.61-5.16,1.55-1.17,0-2.35-.24-3.52-.38a9.11,9.11,0,0,1-3-.67,1.5,1.5,0,0,1-.79-.58C238.69,60.61,238.39,58.6,239.18,57.79Z"/><path class="cls-34" d="M221.6,15.26s4.13,3.94,4,8.15-6.4,8.65-9.27,7.72a54.26,54.26,0,0,1-2.81-5.95s2.2-.86,2.56-2.35c0,0-2.77,2.78-6.16,2.36,0,0-3.6-1.09-4.46,1.82,0,0-1.27-2.5,1.65-4.19,0,0,2-1.09,1-2.76s-4.78.5-3.62,2.86c0,0-1.73-.44-2.6,3.37-1.67,7.29-9,3.84-9,3.84s-5-4.48-5.47-7.53c-.54-3.63-.93-10,7.86-10.78,6.41-.57,4.93-13,18.28-6C216.91,7.61,219.47,12,221.6,15.26Z"/><path class="cls-10" d="M300.86,98c-.35,0-2.43,0-.42-1.4a11.41,11.41,0,0,0,4-7.8c.2-2,.32-2.34,1.22-3.21.62-.61,1.36,0,2-.13-1.5,12.29-5.13,16.73-5.61,17.2-1.72-.64-1.42-1.4-2.29-1.3C299.37,101,300.37,98.77,300.86,98Z"/><g class="cls-35"><path class="cls-36" d="M302.74,99.22c-.22.32-.45.64-.69,1-.76,1.06-2,2.49-2,2.54-.9,1-.4,3.78,2.81-.67,4.63-5.29,5.75-12.16,5.78-19l-.16-2.37-.28-.29-.33.89c-.08,1-.13,2.07-.17,3.12L307.3,83c-.25-.41-.41-.44-.84-.13-.67.64-.14,1.08-.14,1.08a28.84,28.84,0,0,1,.06,4c-.55,1.08-3.32,4.73-3.4,7.85,0,0-.22,1.63-.23,2.49C302.74,98.59,302.74,98.91,302.74,99.22Zm3.5-9.7a21.93,21.93,0,0,1-2.77,8.56,29.56,29.56,0,0,1,.06-3.27,5.82,5.82,0,0,1,1-2.71c.44-.72.77-1,1-1.43S306,89.91,306.24,89.52ZM303,96.91l-.08.85S303,96.76,303,96.91Z"/></g><path class="cls-10" d="M247.07,156.06c.19-.29,1.27-2.07,1.52.33a11.26,11.26,0,0,0,5.15,7.25c1.78,1.15,2,1.42,2.36,2.61.24.83-.67,1.18-.92,1.75-10.64-7.31-12.88-12.58-13.06-13.23,1.49-1.15,2-.51,2.4-1.31C245.08,153.33,246.62,155.28,247.07,156.06Z"/><g class="cls-37"><path class="cls-36" d="M245,157.08c-.18-.34-.35-.7-.51-1.06-.59-1.17-1.28-2.91-1.3-3-.49-1.28-3.31-2.2-.86,2.72,2.5,6.55,8.3,10.87,14.62,14.23l2.28,1,.43-.1-.67-.71c-.92-.58-1.85-1.13-2.81-1.69l1.5.38c.51,0,.62-.14.56-.65-.24-.88-.93-.65-.93-.65a32.37,32.37,0,0,1-3.71-1.89c-.71-1-2.66-5.15-5.51-6.75,0,0-1.41-1-2.2-1.42Zm7.19,7.74a22.66,22.66,0,0,1-6.5-6.55,31.16,31.16,0,0,1,3,1.65,5.89,5.89,0,0,1,2,2.16c.44.73.57,1.17.8,1.56ZM247,158.46l-.74-.49S247.11,158.53,247,158.46Z"/></g><rect class="cls-11" x="210.42" y="80.08" width="27.24" height="3.59" transform="translate(-2.33 6.67) rotate(-1.7)"/><rect class="cls-11" x="229.43" y="63.37" width="34.85" height="2.71" transform="translate(76.3 254.56) rotate(-62.76)"/></g></g></svg>