<svg xmlns="http://www.w3.org/2000/svg" viewBox="0 0 27.96 26.17"><defs><style>.cls-1{fill:#8e2773;}.cls-2{fill:#8b2572;}.cls-3{fill:#e06d91;}.cls-4{fill:#fff;}</style></defs><g id="Camada_2" data-name="Camada 2"><g id="Camada_1-2" data-name="Camada 1"><polygon class="cls-1" points="0 20.5 1.37 20.5 1.37 20.7 0.78 20.7 0.78 22.47 0.58 22.47 0.58 20.7 0 20.7 0 20.5"/><path class="cls-1" d="M1.6,20.5h.84c.26,0,.46.14.46.59s-.27.56-.35.57l.42.81H2.75l-.41-.81-.54,0v.84H1.6Zm.84.95c.13,0,.25,0,.25-.36s-.13-.39-.25-.39H1.8v.75Z"/><path class="cls-1" d="M3.89,20.5h.19l.7,2H4.54l-.17-.55H3.58l-.17.55H3.16Zm.41,1.22L4,20.8l-.32.92Z"/><path class="cls-1" d="M5.06,20.5h.76a.47.47,0,0,1,.51.51c0,.2,0,.38-.24.44.12,0,.26.16.26.47a.48.48,0,0,1-.53.55H5.06Zm.76.84A.29.29,0,0,0,6.14,21a.28.28,0,0,0-.32-.31H5.26v.64Zm0,.93c.13,0,.33,0,.33-.35s-.1-.38-.33-.38H5.26v.73Z"/><path class="cls-1" d="M7.22,20.5h.2l.69,2H7.88l-.17-.55H6.92l-.18.55H6.49Zm.42,1.22-.32-.92L7,21.72Z"/><path class="cls-1" d="M8.4,20.5h.2v1.63c0,.14.09.14.16.14h.83v.2H8.76c-.17,0-.36,0-.36-.34Z"/><polygon class="cls-1" points="9.9 20.5 10.1 20.5 10.1 21.42 11.04 21.42 11.04 20.5 11.24 20.5 11.24 22.47 11.04 22.47 11.04 21.62 10.1 21.62 10.1 22.47 9.9 22.47 9.9 20.5"/><path class="cls-1" d="M12.35,20.48c.46,0,.76.09.76,1s-.28,1-.76,1-.77-.08-.77-1,.31-1,.77-1m0,1.8c.42,0,.56-.11.56-.78s-.2-.82-.56-.82-.57,0-.57.82.14.78.57.78"/><path class="cls-1" d="M13.28,22.26a.07.07,0,0,1,.07-.08h.14s.06,0,.06.08v.24a.2.2,0,0,1-.25.21v-.09c.08,0,.08-.05.08-.08v-.07h0a.06.06,0,0,1-.07-.07Z"/><path class="cls-1" d="M14.62,20.5h.81c.22,0,.47.09.47.57s-.27.6-.47.6-.6-.05-.61-.06v.86h-.2Zm.81,1c.14,0,.27,0,.27-.4s-.17-.37-.27-.37h-.61v.77Z"/><path class="cls-1" d="M16.19,20.5H17c.26,0,.46.14.46.59s-.27.56-.35.57l.42.81h-.22l-.41-.81-.54,0v.84h-.2Zm.84.95c.12,0,.25,0,.25-.36s-.13-.39-.25-.39h-.64v.75Z"/><path class="cls-1" d="M18.51,20.48c.47,0,.76.09.76,1s-.27,1-.76,1-.76-.08-.76-1,.31-1,.76-1m0,1.8c.43,0,.57-.11.57-.78s-.2-.82-.57-.82-.56,0-.56.82.14.78.56.78"/><path class="cls-1" d="M19.61,20.5h.74c.6,0,.7.59.7,1s-.18,1-.7,1h-.74Zm.74,1.76c.35,0,.5-.36.5-.77,0-.58-.19-.79-.5-.79h-.54v1.56Z"/><path class="cls-1" d="M21.39,20.5h.19v1.11c0,.69.22.67.54.67s.51,0,.51-.67V20.5h.2v1.11c0,.87-.39.87-.71.87s-.73,0-.73-.87Z"/><path class="cls-1" d="M23.8,20.47a6,6,0,0,1,.66.07v.16s-.41,0-.66,0-.46.16-.46.81c0,.45.1.81.46.81l.66,0v.16a5.76,5.76,0,0,1-.66.06c-.5,0-.66-.43-.66-1s.13-1,.66-1m-.07,2.32c.07,0,.08-.12.08-.22H24c0,.27,0,.36-.27.36h-.14v-.1Z"/><path class="cls-1" d="M25.4,20.5h.2l.7,2h-.24l-.17-.55H25.1l-.18.55h-.24Zm0-.46c.13,0,.21.09.28.09s.16-.05.25-.09l.06.11a.6.6,0,0,1-.31.17c-.15,0-.19-.1-.29-.09s-.16.05-.26.09l-.05-.11a.53.53,0,0,1,.32-.17m.45,1.68-.32-.92-.33.92Z"/><path class="cls-1" d="M27.2,20.48c.46,0,.76.09.76,1s-.28,1-.76,1-.77-.08-.77-1,.31-1,.77-1m0,1.8c.42,0,.56-.11.56-.78s-.2-.82-.56-.82-.57,0-.57.82.14.78.57.78"/><path class="cls-1" d="M1.57,23.74h.74c.6,0,.7.59.7,1s-.18,1-.7,1H1.57Zm.74,1.76c.35,0,.5-.36.5-.77,0-.58-.19-.79-.5-.79H1.77V25.5Z"/><path class="cls-1" d="M3.29,24.09c0-.27.16-.36.34-.35l.86,0v.16H3.63c-.14,0-.14.07-.14.15v.54l.89,0v.16l-.89,0v.54c0,.14.09.14.17.14h.83v.15l-.83,0c-.18,0-.37,0-.37-.34Z"/><path class="cls-1" d="M5.5,23.74h.76a.48.48,0,0,1,.51.51.41.41,0,0,1-.25.44c.12,0,.26.16.26.47a.48.48,0,0,1-.52.55H5.5Zm.76.84c.2,0,.31-.11.31-.33a.28.28,0,0,0-.31-.31H5.7v.64Zm0,.93c.13,0,.32,0,.32-.36s-.09-.37-.32-.37H5.7v.73Z"/><path class="cls-1" d="M7.11,24.09c0-.27.16-.36.34-.35l.85,0v.16H7.45c-.14,0-.14.07-.14.15v.54l.88,0v.16l-.88,0v.54c0,.14.08.14.16.14H8.3v.15l-.83,0a.3.3,0,0,1-.36-.34Z"/><polygon class="cls-1" points="8.64 23.74 8.84 23.74 9.89 25.34 9.89 23.74 10.09 23.74 10.09 25.71 9.89 25.71 8.84 24.11 8.84 25.71 8.64 25.71 8.64 23.74"/><path class="cls-1" d="M10.43,24.2c0-.39.23-.48.54-.48.14,0,.57.05.67.06V24l-.67,0c-.19,0-.34,0-.34.28v.18c0,.24.11.26.28.26h.38c.36,0,.42.24.42.47v.18c0,.38-.28.44-.54.44a4.89,4.89,0,0,1-.68-.07V25.5c.11,0,.42,0,.68,0,.11,0,.34,0,.34-.24v-.18c0-.16,0-.27-.22-.27h-.38c-.43,0-.48-.24-.48-.46Z"/><path class="cls-1" d="M12.72,24.09c0-.27.16-.36.34-.35l.85,0v.16h-.85c-.14,0-.14.07-.14.15v.54l.89,0v.16l-.89,0v.54c0,.14.09.14.17.14h.82v.15l-.82,0c-.18,0-.37,0-.37-.34Z"/><path class="cls-1" d="M14.89,24.2c0-.39.23-.48.53-.48.14,0,.57.05.68.06V24l-.68,0c-.19,0-.33,0-.33.28v.18c0,.24.11.26.27.26h.38c.36,0,.43.24.43.47v.18c0,.38-.28.44-.55.44a4.9,4.9,0,0,1-.67-.07V25.5c.1,0,.42,0,.67,0s.35,0,.35-.24v-.18c0-.16-.05-.27-.23-.27h-.37c-.43,0-.48-.24-.48-.46Z"/><path class="cls-1" d="M16.5,24.09c0-.27.16-.36.34-.35l.86,0v.16h-.86c-.14,0-.14.07-.14.15v.54l.89,0v.16l-.89,0v.54c0,.14.09.14.17.14h.83v.15l-.83,0c-.18,0-.37,0-.37-.34Z"/><path class="cls-1" d="M18,23.74h.84c.26,0,.46.14.46.59s-.27.55-.35.57l.42.81h-.22l-.41-.81-.54,0v.84H18Zm.84,1c.13,0,.25,0,.25-.36s-.13-.39-.25-.39h-.64v.75Z"/><polygon class="cls-1" points="19.68 23.74 20.25 25.39 20.86 23.74 21.08 23.74 20.35 25.71 20.15 25.71 19.46 23.74 19.68 23.74"/><rect class="cls-1" x="21.36" y="23.74" width="0.2" height="1.97"/><path class="cls-1" d="M22.53,23.71a6,6,0,0,1,.66.07v.16s-.41,0-.66,0-.46.16-.46.81c0,.44.1.81.46.81l.66,0v.16a5.76,5.76,0,0,1-.66.06c-.5,0-.66-.43-.66-1s.12-1,.66-1M22.45,26c.08,0,.09-.12.09-.22h.18c0,.27-.06.36-.27.36h-.14v-.1Z"/><path class="cls-1" d="M24.14,23.72c.47,0,.76.09.76,1s-.27,1-.76,1-.76-.09-.76-1,.31-1,.76-1m0,1.8c.42,0,.56-.11.56-.78s-.19-.82-.56-.82-.56,0-.56.82.14.78.56.78"/><path class="cls-1" d="M25.2,24.2c0-.39.23-.48.54-.48.14,0,.57.05.67.06V24l-.67,0c-.19,0-.34,0-.34.28v.18c0,.24.11.26.28.26h.38c.36,0,.42.24.42.47v.18c0,.38-.28.44-.54.44a4.89,4.89,0,0,1-.68-.07V25.5c.11,0,.42,0,.68,0,.11,0,.34,0,.34-.24v-.18c0-.16-.05-.27-.22-.27h-.38c-.43,0-.48-.24-.48-.46Z"/><path class="cls-2" d="M16.08,14.71H10.71a.25.25,0,0,1-.19-.09.23.23,0,0,1,0-.21,24.34,24.34,0,0,1,.86-3.24,5.21,5.21,0,0,0,0-3.94.25.25,0,0,1,.17-.31.25.25,0,0,1,.31.16,5.68,5.68,0,0,1,0,4.26A24.25,24.25,0,0,0,11,14.21h4.74a19.13,19.13,0,0,0-1-3,5,5,0,0,1,.16-4.14.25.25,0,1,1,.46.2A4.56,4.56,0,0,0,15.21,11a22.11,22.11,0,0,1,1.11,3.37.25.25,0,0,1-.24.31"/><path class="cls-2" d="M13.26,16.91a.25.25,0,0,1-.25-.25V14.6a.25.25,0,0,1,.25-.25.25.25,0,0,1,.25.25v2.06a.25.25,0,0,1-.25.25"/><path class="cls-2" d="M11.89,16.91a.25.25,0,0,1-.25-.25V14.6a.25.25,0,0,1,.5,0v2.06a.25.25,0,0,1-.25.25"/><path class="cls-2" d="M14.64,16.91a.25.25,0,0,1-.25-.25V14.6a.25.25,0,0,1,.5,0v2.06a.25.25,0,0,1-.25.25"/><path class="cls-3" d="M12.63,17c-4.43,0-7.7-1.42-9.54-4.18a.25.25,0,0,1,.07-.35.25.25,0,0,1,.34.07c5.14,7.71,20.09,1.76,20.24,1.7a.25.25,0,0,1,.19.46,36.57,36.57,0,0,1-8.34,2.11,23.78,23.78,0,0,1-3,.19"/><path class="cls-3" d="M19,16a.25.25,0,0,1-.25-.25V8.31A.25.25,0,0,1,19,8.06a.25.25,0,0,1,.25.25v7.46A.25.25,0,0,1,19,16"/><path class="cls-3" d="M19.29,11.72A.25.25,0,0,1,19,11.5a.25.25,0,0,1,.21-.28c.05,0,1-.17,1-1.56V7c-.28-.3-1.6-1.47-4.34-1a.25.25,0,0,1-.28-.2.24.24,0,0,1,.2-.29c3.36-.55,4.81,1.18,4.87,1.25a.3.3,0,0,1,0,.16V9.66c0,1.84-1.38,2.06-1.4,2.06h0"/><path class="cls-3" d="M17.46,5a1.59,1.59,0,0,1-1.58-1.59V2.75a1.59,1.59,0,1,1,3.17,0v.69A1.59,1.59,0,0,1,17.46,5m0-3.37a1.09,1.09,0,0,0-1.08,1.09v.69a1.09,1.09,0,1,0,2.17,0V2.75a1.09,1.09,0,0,0-1.09-1.09"/><path class="cls-2" d="M13.62,17.94c-3.83,0-9.1-.87-11.55-5.21a.25.25,0,0,1,.43-.25c3.9,6.9,15.37,4.61,15.49,4.59a.25.25,0,0,1,.29.19.25.25,0,0,1-.19.3,25.35,25.35,0,0,1-4.47.38"/><path class="cls-3" d="M7.14,15.84a.25.25,0,0,1-.25-.25V8.13a.25.25,0,1,1,.5,0v7.46a.25.25,0,0,1-.25.25"/><path class="cls-3" d="M6.84,11.72h0s-1.4-.22-1.4-2.06V6.94a.23.23,0,0,1,0-.15c.06-.09,1.62-2.13,5.25-1.23a.25.25,0,0,1-.12.48c-3-.74-4.41.67-4.68,1V9.66c0,1.41,1,1.56,1,1.56a.25.25,0,0,1,0,.5"/><path class="cls-3" d="M8.66,5A1.59,1.59,0,0,1,7.08,3.44V2.75a1.59,1.59,0,1,1,3.17,0v.69A1.59,1.59,0,0,1,8.66,5m0-3.37A1.09,1.09,0,0,0,7.58,2.75v.69a1.09,1.09,0,1,0,2.17,0V2.75A1.09,1.09,0,0,0,8.66,1.66"/><path class="cls-2" d="M11.42,11.58a.26.26,0,0,1-.21-.11,7.64,7.64,0,0,1-.82-2.08,6.74,6.74,0,0,1-.28-1.9A2.79,2.79,0,0,1,12.4,4.54c.28,0,.45.24.64.57a4,4,0,0,0,.25.37,3.47,3.47,0,0,0,.21-.36c.16-.3.33-.62.65-.55a2.93,2.93,0,0,1,2.3,2.85,5.78,5.78,0,0,1-.18,2.07A8.36,8.36,0,0,1,15.59,11l-.22.39a.24.24,0,0,1-.33.1.25.25,0,0,1-.11-.34l.23-.4a8.17,8.17,0,0,0,.64-1.39A5.42,5.42,0,0,0,16,7.44a2.39,2.39,0,0,0-1.84-2.37c0,.07-.12.2-.17.29-.17.3-.35.64-.67.64s-.47-.31-.66-.64a2.79,2.79,0,0,0-.2-.31,2.29,2.29,0,0,0-1.8,2.42,6.41,6.41,0,0,0,.26,1.79,7.17,7.17,0,0,0,.76,1.93.27.27,0,0,1-.07.35.23.23,0,0,1-.14,0"/><path class="cls-2" d="M14.29,2V2l-.13.7c-.23.9-.42,1.49-.93,1.49s-.59-.47-.8-1.24L12.23,2h-.1a1.34,1.34,0,0,1-.4-.06v.11l.16.75.07.25c.2.75.43,1.61,1.28,1.61s1.19-1,1.42-1.88l.11-.61A1.49,1.49,0,0,1,14.29,2"/><path class="cls-2" d="M14.77,2.4h0a1.79,1.79,0,0,1-1.14-.92,1.8,1.8,0,0,1-1.95.68A.22.22,0,0,1,11.47,2c0-.05,0-.11,0-.17A1.79,1.79,0,1,1,15,2.24a.22.22,0,0,1-.1.13.2.2,0,0,1-.11,0M13.62.71h0a.19.19,0,0,1,.19.18,1.39,1.39,0,0,0,.78,1V1.79a1.36,1.36,0,0,0-2.72,0A1.36,1.36,0,0,0,13.42.85a.22.22,0,0,1,.2-.14"/><path class="cls-4" d="M11.7,2a2.89,2.89,0,0,1-.27,1.51c-.35.5-.88,1.31-.55,1.89"/><path class="cls-2" d="M10.88,5.58a.21.21,0,0,1-.18-.11c-.42-.72.24-1.66.56-2.11A2.59,2.59,0,0,0,11.48,2a.22.22,0,0,1,.43,0A3.09,3.09,0,0,1,11.6,3.6c-.24.35-.81,1.17-.53,1.66a.21.21,0,0,1-.08.29.2.2,0,0,1-.11,0"/><path class="cls-4" d="M14.78,2A3,3,0,0,0,15,3.55c.35.49.88,1.3.55,1.88"/><path class="cls-2" d="M15.59,5.65a.17.17,0,0,1-.1,0,.21.21,0,0,1-.08-.29c.28-.49-.3-1.31-.54-1.66A3,3,0,0,1,14.57,2a.21.21,0,0,1,.23-.19.21.21,0,0,1,.19.23,2.56,2.56,0,0,0,.23,1.36c.31.45,1,1.39.56,2.12a.23.23,0,0,1-.19.11"/></g></g></svg>