<svg xmlns="http://www.w3.org/2000/svg" viewBox="0 0 23.84 18.93"><defs><style>.cls-1{fill:#5d6268;}.cls-2{fill:#a7bdcb;}</style></defs><g id="Camada_2" data-name="Camada 2"><g id="Camada_1-2" data-name="Camada 1"><polygon class="cls-1" points="3.21 16.93 4.58 16.93 4.58 17.13 3.99 17.13 3.99 18.91 3.79 18.91 3.79 17.13 3.21 17.13 3.21 16.93"/><path class="cls-1" d="M4.81,16.93h.84c.26,0,.46.15.46.6s-.27.55-.34.56l.41.82H6l-.42-.81-.54,0v.85h-.2Zm.84,1c.13,0,.26,0,.26-.36s-.14-.39-.26-.39H5v.75Z"/><path class="cls-1" d="M7.1,16.93h.2l.69,2H7.75l-.17-.55H6.8l-.18.55H6.37Zm.41,1.23-.32-.92-.32.92Z"/><polygon class="cls-1" points="8.27 16.93 8.48 16.93 9.53 18.54 9.53 16.93 9.73 16.93 9.73 18.91 9.53 18.91 8.48 17.31 8.48 18.91 8.27 18.91 8.27 16.93"/><path class="cls-1" d="M10.07,17.4c0-.39.23-.48.53-.48s.57,0,.68.06v.16l-.68,0c-.19,0-.33,0-.33.28v.18c0,.24.11.26.27.26h.39c.35,0,.42.24.42.46v.19c0,.38-.28.44-.55.44s-.55-.05-.67-.07V18.7c.11,0,.42,0,.67,0s.35,0,.35-.24V18.3c0-.15-.05-.26-.22-.26h-.38c-.43,0-.48-.24-.48-.46Z"/><path class="cls-1" d="M11.63,16.93h.81c.22,0,.47.09.47.58s-.27.59-.47.59l-.61-.05v.86h-.2Zm.81,1c.14,0,.27,0,.27-.39s-.17-.37-.27-.37h-.61v.76Z"/><path class="cls-1" d="M13.92,16.92c.47,0,.76.09.76,1s-.27,1-.76,1-.76-.09-.76-1,.31-1,.76-1m0,1.8c.43,0,.57-.11.57-.79s-.2-.81-.57-.81-.56,0-.56.81.14.79.56.79"/><path class="cls-1" d="M15,16.93h.84c.26,0,.46.15.46.6s-.27.55-.35.56l.42.82h-.22l-.41-.81-.54,0v.85H15Zm.84,1c.13,0,.25,0,.25-.36s-.13-.39-.25-.39h-.64v.75Z"/><polygon class="cls-1" points="16.53 16.93 17.9 16.93 17.9 17.13 17.31 17.13 17.31 18.91 17.11 18.91 17.11 17.13 16.53 17.13 16.53 16.93"/><path class="cls-1" d="M18.13,17.28a.31.31,0,0,1,.34-.35l.85.05v.15h-.85c-.14,0-.14.08-.14.15v.54l.88,0V18l-.88,0v.54c0,.14.09.14.17.14h.82v.15l-.82.05c-.18,0-.37,0-.37-.34Z"/><path class="cls-2" d="M5.63,11a.35.35,0,0,1-.22-.63L5.93,10a.35.35,0,0,1,.42.57l-.5.37a.4.4,0,0,1-.22.08M7.2,9.89a.35.35,0,0,1-.3-.17A.35.35,0,0,1,7,9.24l.56-.33a.35.35,0,1,1,.34.62l-.54.31a.37.37,0,0,1-.18.05M8.89,9a.35.35,0,0,1-.32-.2.36.36,0,0,1,.17-.47l.6-.26a.35.35,0,0,1,.27.65L9,9,8.89,9m1.78-.69a.36.36,0,0,1-.11-.69l.62-.19a.35.35,0,0,1,.44.24.36.36,0,0,1-.24.43l-.6.19-.11,0m1.84-.51a.35.35,0,0,1-.07-.69L13.08,7a.36.36,0,0,1,.41.28.35.35,0,0,1-.29.41l-.61.12h-.08m1.89-.31a.35.35,0,0,1-.35-.31.36.36,0,0,1,.31-.39L15,6.72a.34.34,0,0,1,.37.32.35.35,0,0,1-.32.38l-.62.06h0m4.45,0h0l-.63,0A.34.34,0,0,1,17.87,7a.35.35,0,0,1,.37-.33l.65,0a.36.36,0,0,1,0,.71m-2.54-.1a.36.36,0,0,1,0-.71H17A.36.36,0,0,1,17.3,7a.37.37,0,0,1-.36.34h-.63Z"/><path class="cls-1" d="M9.75,12.73a.3.3,0,0,1-.22-.08.35.35,0,0,1,0-.49C12.66,8.33,17.21,7,23,8.26a.36.36,0,0,1,.27.42.35.35,0,0,1-.42.27C17.34,7.77,13,9,10,12.61a.36.36,0,0,1-.27.12"/><path class="cls-1" d="M.85,10.92a.38.38,0,0,1-.26-.11.36.36,0,0,1,0-.5c5.73-5.47,15-5.86,19.81-4.38a.35.35,0,1,1-.21.67C16.58,5.48,7.13,5,1.09,10.82a.33.33,0,0,1-.24.1"/><path class="cls-2" d="M4.71,6.75h0a.34.34,0,0,1-.32-.37A6.79,6.79,0,0,1,10.49,0a6.41,6.41,0,0,1,6.9,4.22.35.35,0,1,1-.68.2A5.7,5.7,0,0,0,10.56.73a6.1,6.1,0,0,0-5.5,5.69.36.36,0,0,1-.35.33"/><path class="cls-1" d="M.35,11.41a.33.33,0,0,1-.24-.1A.35.35,0,0,1,0,11.05L.06,9a.35.35,0,0,1,.36-.34A.34.34,0,0,1,.76,9l-.05,1.7,1.62-.14a.35.35,0,1,1,.06.7l-2,.18h0"/><path class="cls-1" d="M21.57,10a.35.35,0,0,1-.15-.67L23,8.61l-.82-1.4a.35.35,0,0,1,.61-.35l1,1.74a.31.31,0,0,1,0,.28.35.35,0,0,1-.19.22l-1.92.83-.14,0"/></g></g></svg>